<svg width="254" height="254" viewBox="0 0 254 254" fill="none" xmlns="http://www.w3.org/2000/svg">
<rect width="254" height="254" rx="1" fill="#D3D3D8" fill-opacity="0.25"/>
<path d="M70.64 120H65.58V119.42C66.1133 119.18 66.66 119.02 67.22 118.94V107.08C66.9533 107.013 66.68 106.94 66.4 106.86C66.12 106.78 65.8467 106.687 65.58 106.58V106H70.64V106.58C70.4267 106.687 70.2 106.78 69.96 106.86C69.72 106.94 69.4467 107.013 69.14 107.08V115.76L68.92 117.26L69.88 115.68L75.74 107.56V107.08C75.4333 107.013 75.14 106.94 74.86 106.86C74.5933 106.767 74.3467 106.673 74.12 106.58V106H79.2V106.58C78.96 106.687 78.7 106.78 78.42 106.86C78.14 106.94 77.8533 107.013 77.56 107.08V118.94C78.1867 119.047 78.7333 119.207 79.2 119.42V120H74.12V119.42C74.3333 119.327 74.5667 119.24 74.82 119.16C75.0733 119.067 75.3467 118.993 75.64 118.94V110.28L75.84 108.78L74.96 110.28L69.02 118.5V118.94C69.3267 118.993 69.6133 119.06 69.88 119.14C70.16 119.22 70.4133 119.313 70.64 119.42V120ZM84.8652 120H80.5652V119.5C80.7518 119.393 80.9585 119.307 81.1852 119.24C81.4118 119.16 81.6452 119.087 81.8852 119.02V111C81.6452 110.933 81.4118 110.867 81.1852 110.8C80.9585 110.72 80.7518 110.627 80.5652 110.52V110H84.8652V110.52C84.5585 110.707 84.1652 110.867 83.6852 111V114.5H88.1252V111C87.6585 110.92 87.2585 110.76 86.9252 110.52V110H91.2452V110.52C90.8852 110.747 90.4452 110.907 89.9252 111V119.02C90.1652 119.073 90.3985 119.133 90.6252 119.2C90.8518 119.267 91.0585 119.367 91.2452 119.5V120H86.9252V119.5C87.2585 119.26 87.6585 119.1 88.1252 119.02V115.38H83.6852V119.02C83.9518 119.073 84.1785 119.14 84.3652 119.22C84.5518 119.3 84.7185 119.393 84.8652 119.5V120ZM102.611 110H106.071V110.52C105.845 110.68 105.465 110.84 104.931 111C104.505 111.587 104.065 112.16 103.611 112.72C103.158 113.28 102.711 113.84 102.271 114.4C102.445 114.64 102.658 114.94 102.911 115.3C103.165 115.66 103.438 116.053 103.731 116.48C104.038 116.893 104.351 117.32 104.671 117.76C105.005 118.2 105.331 118.62 105.651 119.02L106.471 119.5V120H104.351L103.791 119.54C103.565 119.233 103.318 118.88 103.051 118.48C102.798 118.067 102.545 117.653 102.291 117.24C102.038 116.827 101.805 116.447 101.591 116.1C101.378 115.74 101.205 115.46 101.071 115.26H100.111V119.02C100.525 119.127 100.925 119.287 101.311 119.5V120H97.2913V119.5C97.4779 119.407 97.6579 119.32 97.8313 119.24C98.0179 119.16 98.2113 119.087 98.4113 119.02V115.14L97.3112 115.34C97.1913 115.527 97.0313 115.8 96.8313 116.16C96.6313 116.52 96.4113 116.907 96.1713 117.32C95.9446 117.733 95.7046 118.14 95.4513 118.54C95.1979 118.94 94.9513 119.273 94.7113 119.54L94.1113 120H92.0312V119.5L92.9513 119.02C93.2846 118.633 93.6046 118.227 93.9113 117.8C94.2313 117.373 94.5313 116.96 94.8113 116.56C95.0913 116.16 95.3446 115.787 95.5713 115.44C95.8113 115.08 96.0246 114.78 96.2113 114.54C95.7046 113.967 95.2179 113.387 94.7513 112.8C94.2846 112.2 93.8379 111.6 93.4113 111C93.0646 110.92 92.7313 110.76 92.4113 110.52V110H95.8713V110.52C95.6179 110.707 95.2846 110.867 94.8713 111C95.2313 111.64 95.6179 112.247 96.0313 112.82C96.4579 113.38 96.9046 113.98 97.3713 114.62H98.4113V111C97.9713 110.907 97.5979 110.747 97.2913 110.52V110H101.171V110.52C101.038 110.627 100.885 110.72 100.711 110.8C100.551 110.88 100.351 110.947 100.111 111V114.74L101.211 114.54C101.678 113.9 102.098 113.313 102.471 112.78C102.858 112.233 103.238 111.64 103.611 111C103.425 110.933 103.251 110.867 103.091 110.8C102.931 110.733 102.771 110.64 102.611 110.52V110ZM115.15 118.6C115.044 118.827 114.877 119.04 114.65 119.24C114.424 119.44 114.164 119.613 113.87 119.76C113.577 119.907 113.257 120.02 112.91 120.1C112.564 120.193 112.21 120.24 111.85 120.24C111.064 120.24 110.37 120.12 109.77 119.88C109.17 119.627 108.67 119.273 108.27 118.82C107.87 118.353 107.564 117.8 107.35 117.16C107.15 116.52 107.05 115.8 107.05 115C107.05 113.293 107.444 111.993 108.23 111.1C109.017 110.207 110.13 109.76 111.57 109.76C112.037 109.76 112.497 109.827 112.95 109.96C113.404 110.08 113.804 110.287 114.15 110.58C114.51 110.873 114.797 111.267 115.01 111.76C115.237 112.24 115.35 112.84 115.35 113.56C115.35 113.787 115.337 114.02 115.31 114.26C115.297 114.487 115.264 114.733 115.21 115H108.97C108.97 115.56 109.037 116.087 109.17 116.58C109.317 117.06 109.53 117.48 109.81 117.84C110.09 118.2 110.444 118.487 110.87 118.7C111.297 118.9 111.797 119 112.37 119C112.837 119 113.31 118.933 113.79 118.8C114.27 118.667 114.63 118.493 114.87 118.28L115.15 118.6ZM111.49 110.64C110.73 110.64 110.15 110.9 109.75 111.42C109.35 111.927 109.11 112.827 109.03 114.12H113.43C113.444 114 113.45 113.887 113.45 113.78C113.464 113.66 113.47 113.547 113.47 113.44C113.47 112.587 113.31 111.907 112.99 111.4C112.67 110.893 112.17 110.64 111.49 110.64ZM121.369 120H117.069V119.5C117.256 119.393 117.462 119.307 117.689 119.24C117.916 119.16 118.149 119.087 118.389 119.02V111C118.149 110.933 117.916 110.867 117.689 110.8C117.462 110.72 117.256 110.627 117.069 110.52V110H121.369V110.52C121.062 110.707 120.669 110.867 120.189 111V114.5H124.629V111C124.162 110.92 123.762 110.76 123.429 110.52V110H127.749V110.52C127.389 110.747 126.949 110.907 126.429 111V119.02C126.669 119.073 126.902 119.133 127.129 119.2C127.356 119.267 127.562 119.367 127.749 119.5V120H123.429V119.5C123.762 119.26 124.162 119.1 124.629 119.02V115.38H120.189V119.02C120.456 119.073 120.682 119.14 120.869 119.22C121.056 119.3 121.222 119.393 121.369 119.5V120ZM137.455 118.6C137.348 118.827 137.182 119.04 136.955 119.24C136.728 119.44 136.468 119.613 136.175 119.76C135.882 119.907 135.562 120.02 135.215 120.1C134.868 120.193 134.515 120.24 134.155 120.24C133.368 120.24 132.675 120.12 132.075 119.88C131.475 119.627 130.975 119.273 130.575 118.82C130.175 118.353 129.868 117.8 129.655 117.16C129.455 116.52 129.355 115.8 129.355 115C129.355 113.293 129.748 111.993 130.535 111.1C131.322 110.207 132.435 109.76 133.875 109.76C134.342 109.76 134.802 109.827 135.255 109.96C135.708 110.08 136.108 110.287 136.455 110.58C136.815 110.873 137.102 111.267 137.315 111.76C137.542 112.24 137.655 112.84 137.655 113.56C137.655 113.787 137.642 114.02 137.615 114.26C137.602 114.487 137.568 114.733 137.515 115H131.275C131.275 115.56 131.342 116.087 131.475 116.58C131.622 117.06 131.835 117.48 132.115 117.84C132.395 118.2 132.748 118.487 133.175 118.7C133.602 118.9 134.102 119 134.675 119C135.142 119 135.615 118.933 136.095 118.8C136.575 118.667 136.935 118.493 137.175 118.28L137.455 118.6ZM133.795 110.64C133.035 110.64 132.455 110.9 132.055 111.42C131.655 111.927 131.415 112.827 131.335 114.12H135.735C135.748 114 135.755 113.887 135.755 113.78C135.768 113.66 135.775 113.547 135.775 113.44C135.775 112.587 135.615 111.907 135.295 111.4C134.975 110.893 134.475 110.64 133.795 110.64ZM143.654 124H139.214V123.5C139.667 123.287 140.107 123.127 140.534 123.02V111.16L139.214 111V110.48C139.64 110.293 140.074 110.147 140.514 110.04C140.967 109.92 141.407 109.827 141.834 109.76H142.334V112H142.354C142.62 111.32 142.994 110.78 143.474 110.38C143.954 109.967 144.58 109.76 145.354 109.76C146.54 109.76 147.46 110.153 148.114 110.94C148.767 111.727 149.094 113.007 149.094 114.78C149.094 115.62 148.98 116.38 148.754 117.06C148.54 117.74 148.227 118.313 147.814 118.78C147.414 119.247 146.92 119.607 146.334 119.86C145.76 120.113 145.12 120.24 144.414 120.24C143.92 120.24 143.534 120.207 143.254 120.14C142.974 120.087 142.667 119.987 142.334 119.84V123.02C142.547 123.047 142.76 123.093 142.974 123.16C143.187 123.24 143.414 123.353 143.654 123.5V124ZM144.714 111C144.06 111 143.54 111.207 143.154 111.62C142.767 112.033 142.494 112.6 142.334 113.32V118.92C142.574 119.067 142.84 119.18 143.134 119.26C143.44 119.327 143.834 119.36 144.314 119.36C144.754 119.36 145.147 119.247 145.494 119.02C145.854 118.793 146.154 118.473 146.394 118.06C146.647 117.647 146.84 117.167 146.974 116.62C147.107 116.06 147.174 115.447 147.174 114.78C147.174 114.233 147.127 113.733 147.034 113.28C146.954 112.813 146.814 112.413 146.614 112.08C146.427 111.733 146.174 111.467 145.854 111.28C145.547 111.093 145.167 111 144.714 111ZM155.002 120H150.702V119.5C150.889 119.393 151.095 119.307 151.322 119.24C151.549 119.16 151.782 119.087 152.022 119.02V111C151.782 110.933 151.549 110.867 151.322 110.8C151.095 110.72 150.889 110.627 150.702 110.52V110H155.002V110.52C154.695 110.707 154.302 110.867 153.822 111V114.5H158.262V111C157.795 110.92 157.395 110.76 157.062 110.52V110H161.382V110.52C161.022 110.747 160.582 110.907 160.062 111V119.02C160.302 119.073 160.535 119.133 160.762 119.2C160.989 119.267 161.195 119.367 161.382 119.5V120H157.062V119.5C157.395 119.26 157.795 119.1 158.262 119.02V115.38H153.822V119.02C154.089 119.073 154.315 119.14 154.502 119.22C154.689 119.3 154.855 119.393 155.002 119.5V120ZM162.988 115C162.988 114.16 163.095 113.42 163.308 112.78C163.535 112.127 163.855 111.58 164.268 111.14C164.681 110.687 165.175 110.347 165.748 110.12C166.335 109.88 166.981 109.76 167.688 109.76C168.515 109.76 169.228 109.887 169.828 110.14C170.428 110.393 170.915 110.753 171.288 111.22C171.675 111.673 171.955 112.22 172.128 112.86C172.315 113.5 172.408 114.213 172.408 115C172.408 116.68 171.981 117.973 171.128 118.88C170.275 119.787 169.128 120.24 167.688 120.24C166.888 120.24 166.195 120.12 165.608 119.88C165.021 119.627 164.535 119.273 164.148 118.82C163.761 118.353 163.468 117.8 163.268 117.16C163.081 116.507 162.988 115.787 162.988 115ZM164.908 115C164.908 115.6 164.961 116.167 165.068 116.7C165.188 117.233 165.368 117.7 165.608 118.1C165.861 118.487 166.188 118.793 166.588 119.02C166.988 119.247 167.468 119.36 168.028 119.36C168.748 119.36 169.335 119.007 169.788 118.3C170.255 117.593 170.488 116.493 170.488 115C170.488 114.387 170.428 113.82 170.308 113.3C170.201 112.767 170.028 112.307 169.788 111.92C169.548 111.52 169.241 111.207 168.868 110.98C168.495 110.753 168.048 110.64 167.528 110.64C166.741 110.64 166.108 110.993 165.628 111.7C165.148 112.407 164.908 113.507 164.908 115ZM178.705 113.74H184.345V115H178.705V113.74ZM72.18 147H67.74V146.5C68.1533 146.287 68.5933 146.127 69.06 146.02V137.88H67.2L66.32 140.28H65.8C65.7333 139.707 65.68 139.147 65.64 138.6C65.6 138.04 65.5733 137.507 65.56 137H74.36C74.3467 137.48 74.32 138.007 74.28 138.58C74.2533 139.14 74.2 139.707 74.12 140.28H73.6L72.72 137.88H70.86V146.02C71.4867 146.18 71.9267 146.34 72.18 146.5V147ZM83.8223 145.6C83.7157 145.827 83.549 146.04 83.3223 146.24C83.0957 146.44 82.8357 146.613 82.5423 146.76C82.249 146.907 81.929 147.02 81.5823 147.1C81.2357 147.193 80.8823 147.24 80.5223 147.24C79.7357 147.24 79.0423 147.12 78.4423 146.88C77.8423 146.627 77.3423 146.273 76.9423 145.82C76.5423 145.353 76.2357 144.8 76.0223 144.16C75.8223 143.52 75.7223 142.8 75.7223 142C75.7223 140.293 76.1157 138.993 76.9023 138.1C77.689 137.207 78.8023 136.76 80.2423 136.76C80.709 136.76 81.169 136.827 81.6223 136.96C82.0757 137.08 82.4757 137.287 82.8223 137.58C83.1823 137.873 83.469 138.267 83.6823 138.76C83.909 139.24 84.0223 139.84 84.0223 140.56C84.0223 140.787 84.009 141.02 83.9823 141.26C83.969 141.487 83.9357 141.733 83.8823 142H77.6423C77.6423 142.56 77.709 143.087 77.8423 143.58C77.989 144.06 78.2023 144.48 78.4823 144.84C78.7623 145.2 79.1157 145.487 79.5423 145.7C79.969 145.9 80.469 146 81.0423 146C81.509 146 81.9823 145.933 82.4623 145.8C82.9423 145.667 83.3023 145.493 83.5423 145.28L83.8223 145.6ZM80.1623 137.64C79.4023 137.64 78.8223 137.9 78.4223 138.42C78.0223 138.927 77.7823 139.827 77.7023 141.12H82.1023C82.1157 141 82.1223 140.887 82.1223 140.78C82.1357 140.66 82.1423 140.547 82.1423 140.44C82.1423 139.587 81.9823 138.907 81.6623 138.4C81.3423 137.893 80.8423 137.64 80.1623 137.64ZM90.5694 141.64L93.7294 146.02C93.916 146.087 94.096 146.16 94.2694 146.24C94.456 146.307 94.6294 146.393 94.7894 146.5V147H90.6894V146.52C90.876 146.413 91.0494 146.32 91.2094 146.24C91.3694 146.147 91.5294 146.073 91.6894 146.02L89.4694 142.74L87.2294 146.02C87.416 146.087 87.5894 146.16 87.7494 146.24C87.9094 146.32 88.0694 146.407 88.2294 146.5V147H84.8094V146.5C85.1827 146.273 85.556 146.113 85.9294 146.02L88.9094 142.04L85.9094 138C85.7227 137.933 85.5494 137.867 85.3894 137.8C85.2427 137.72 85.0894 137.627 84.9294 137.52V137H88.9494V137.5C88.7894 137.607 88.6294 137.707 88.4694 137.8C88.3227 137.88 88.156 137.947 87.9694 138L90.0494 141L92.0894 138C91.636 137.853 91.3027 137.693 91.0894 137.52V137H94.4294V137.52C94.176 137.693 93.8027 137.853 93.3094 138L90.5694 141.64ZM100.06 147H95.7605V146.5C95.9471 146.393 96.1538 146.307 96.3805 146.24C96.6071 146.16 96.8405 146.087 97.0805 146.02V138C96.8405 137.933 96.6071 137.867 96.3805 137.8C96.1538 137.72 95.9471 137.627 95.7605 137.52V137H100.06V137.52C99.7538 137.707 99.3605 137.867 98.8805 138V141.5H103.32V138C102.854 137.92 102.454 137.76 102.12 137.52V137H106.44V137.52C106.08 137.747 105.64 137.907 105.12 138V146.02C105.36 146.073 105.594 146.133 105.82 146.2C106.047 146.267 106.254 146.367 106.44 146.5V147H102.12V146.5C102.454 146.26 102.854 146.1 103.32 146.02V142.38H98.8805V146.02C99.1471 146.073 99.3738 146.14 99.5605 146.22C99.7471 146.3 99.9138 146.393 100.06 146.5V147ZM108.007 137H112.247V137.52C112.1 137.6 111.927 137.68 111.727 137.76C111.54 137.84 111.313 137.92 111.047 138V143.48L110.827 145.34H110.927L111.707 143.84L115.987 137H118.687V137.52C118.26 137.76 117.82 137.92 117.367 138V146.02C117.62 146.087 117.86 146.16 118.087 146.24C118.313 146.307 118.513 146.393 118.687 146.5V147H114.447V146.5C114.82 146.287 115.22 146.127 115.647 146.02V140.3L115.847 138.72H115.747L114.987 140.22L110.747 147H108.007V146.5C108.233 146.393 108.453 146.307 108.667 146.24C108.88 146.16 109.1 146.087 109.327 146.02V138C108.807 137.92 108.367 137.76 108.007 137.52V137ZM119.773 137H124.073V137.52C123.939 137.613 123.773 137.707 123.573 137.8C123.373 137.88 123.146 137.947 122.893 138V140.4C122.893 141.027 123.026 141.533 123.293 141.92C123.559 142.293 124.006 142.48 124.633 142.48C125.006 142.48 125.366 142.427 125.713 142.32C126.073 142.2 126.413 142.047 126.733 141.86V138C126.333 137.92 125.939 137.76 125.553 137.52V137H129.853V137.52C129.493 137.747 129.053 137.907 128.533 138V146.02C128.799 146.087 129.039 146.16 129.253 146.24C129.466 146.307 129.666 146.393 129.853 146.5V147H125.133V146.5C125.679 146.273 126.213 146.113 126.733 146.02V142.44C126.413 142.787 126.033 143.073 125.593 143.3C125.153 143.513 124.599 143.62 123.933 143.62C123.026 143.62 122.326 143.367 121.833 142.86C121.339 142.353 121.093 141.667 121.093 140.8V138C120.586 137.907 120.146 137.747 119.773 137.52V137ZM139.545 145.6C139.438 145.827 139.272 146.04 139.045 146.24C138.818 146.44 138.558 146.613 138.265 146.76C137.972 146.907 137.652 147.02 137.305 147.1C136.958 147.193 136.605 147.24 136.245 147.24C135.458 147.24 134.765 147.12 134.165 146.88C133.565 146.627 133.065 146.273 132.665 145.82C132.265 145.353 131.958 144.8 131.745 144.16C131.545 143.52 131.445 142.8 131.445 142C131.445 140.293 131.838 138.993 132.625 138.1C133.412 137.207 134.525 136.76 135.965 136.76C136.432 136.76 136.892 136.827 137.345 136.96C137.798 137.08 138.198 137.287 138.545 137.58C138.905 137.873 139.192 138.267 139.405 138.76C139.632 139.24 139.745 139.84 139.745 140.56C139.745 140.787 139.732 141.02 139.705 141.26C139.692 141.487 139.658 141.733 139.605 142H133.365C133.365 142.56 133.432 143.087 133.565 143.58C133.712 144.06 133.925 144.48 134.205 144.84C134.485 145.2 134.838 145.487 135.265 145.7C135.692 145.9 136.192 146 136.765 146C137.232 146 137.705 145.933 138.185 145.8C138.665 145.667 139.025 145.493 139.265 145.28L139.545 145.6ZM135.885 137.64C135.125 137.64 134.545 137.9 134.145 138.42C133.745 138.927 133.505 139.827 133.425 141.12H137.825C137.838 141 137.845 140.887 137.845 140.78C137.858 140.66 137.865 140.547 137.865 140.44C137.865 139.587 137.705 138.907 137.385 138.4C137.065 137.893 136.565 137.64 135.885 137.64ZM149.224 145.6C148.984 146.067 148.59 146.46 148.044 146.78C147.51 147.087 146.884 147.24 146.164 147.24C145.377 147.24 144.69 147.12 144.104 146.88C143.53 146.627 143.05 146.273 142.664 145.82C142.277 145.353 141.984 144.8 141.784 144.16C141.597 143.507 141.504 142.787 141.504 142C141.504 140.307 141.917 139.013 142.744 138.12C143.57 137.213 144.697 136.76 146.124 136.76C146.777 136.76 147.357 136.82 147.864 136.94C148.384 137.047 148.824 137.193 149.184 137.38C149.144 137.82 149.07 138.313 148.964 138.86C148.857 139.407 148.724 139.86 148.564 140.22H148.024L147.184 137.84C147.09 137.773 146.984 137.727 146.864 137.7C146.744 137.66 146.544 137.64 146.264 137.64C145.357 137.64 144.657 137.973 144.164 138.64C143.67 139.293 143.424 140.407 143.424 141.98C143.424 142.487 143.49 142.98 143.624 143.46C143.77 143.94 143.984 144.373 144.264 144.76C144.557 145.133 144.917 145.433 145.344 145.66C145.784 145.887 146.29 146 146.864 146C147.33 146 147.737 145.933 148.084 145.8C148.43 145.667 148.724 145.507 148.964 145.32L149.224 145.6ZM156.5 137H160.36V137.52C160.227 137.627 160.047 137.72 159.82 137.8C159.607 137.88 159.34 137.973 159.02 138.08C158.567 138.627 158.087 139.18 157.58 139.74C157.073 140.3 156.54 140.86 155.98 141.42C156.273 141.74 156.58 142.093 156.9 142.48C157.233 142.867 157.567 143.267 157.9 143.68C158.233 144.093 158.567 144.5 158.9 144.9C159.233 145.3 159.56 145.673 159.88 146.02L160.82 146.5V147H158.48L157.84 146.54C157.24 145.82 156.693 145.1 156.2 144.38C155.707 143.66 155.207 142.953 154.7 142.26H153.9V146.02C154.167 146.087 154.407 146.16 154.62 146.24C154.847 146.307 155.04 146.393 155.2 146.5V147H150.78V146.5C151.14 146.287 151.58 146.127 152.1 146.02V138C151.633 137.907 151.193 137.747 150.78 137.52V137H154.88V137.52C154.747 137.613 154.6 137.7 154.44 137.78C154.293 137.86 154.113 137.933 153.9 138V141.74L154.82 141.54C155.353 140.927 155.86 140.353 156.34 139.82C156.82 139.287 157.267 138.707 157.68 138.08C157.453 137.987 157.24 137.9 157.04 137.82C156.853 137.727 156.673 137.627 156.5 137.52V137ZM169.02 144.38C169.02 144.673 169.027 144.927 169.04 145.14C169.054 145.353 169.067 145.58 169.08 145.82L170.46 146.02V146.44C170.127 146.613 169.754 146.767 169.34 146.9C168.94 147.033 168.554 147.133 168.18 147.2H167.68C167.547 146.893 167.467 146.56 167.44 146.2C167.414 145.827 167.394 145.42 167.38 144.98H167.28C167.227 145.247 167.12 145.52 166.96 145.8C166.814 146.067 166.614 146.307 166.36 146.52C166.12 146.733 165.834 146.907 165.5 147.04C165.167 147.173 164.787 147.24 164.36 147.24C163.547 147.24 162.88 146.993 162.36 146.5C161.854 146.007 161.6 145.36 161.6 144.56C161.6 143.947 161.72 143.447 161.96 143.06C162.214 142.66 162.58 142.347 163.06 142.12C163.54 141.893 164.134 141.733 164.84 141.64C165.547 141.533 166.367 141.453 167.3 141.4C167.354 140.827 167.367 140.313 167.34 139.86C167.327 139.393 167.254 139 167.12 138.68C167 138.347 166.814 138.093 166.56 137.92C166.32 137.733 166 137.64 165.6 137.64C165.414 137.64 165.2 137.653 164.96 137.68C164.734 137.693 164.507 137.747 164.28 137.84L163.34 140.24H162.82C162.687 139.84 162.567 139.427 162.46 139C162.367 138.573 162.307 138.153 162.28 137.74C162.787 137.433 163.347 137.193 163.96 137.02C164.587 136.847 165.28 136.76 166.04 136.76C166.72 136.76 167.26 136.86 167.66 137.06C168.074 137.247 168.387 137.493 168.6 137.8C168.814 138.107 168.954 138.447 169.02 138.82C169.087 139.193 169.12 139.567 169.12 139.94C169.12 140.74 169.1 141.513 169.06 142.26C169.034 142.993 169.02 143.7 169.02 144.38ZM165.16 146C165.494 146 165.787 145.933 166.04 145.8C166.294 145.667 166.507 145.507 166.68 145.32C166.854 145.133 166.994 144.947 167.1 144.76C167.207 144.56 167.28 144.393 167.32 144.26V142.16C166.547 142.16 165.914 142.2 165.42 142.28C164.927 142.36 164.54 142.487 164.26 142.66C163.98 142.833 163.787 143.053 163.68 143.32C163.574 143.573 163.52 143.867 163.52 144.2C163.52 144.773 163.667 145.22 163.96 145.54C164.254 145.847 164.654 146 165.16 146ZM172.198 139.94C172.198 139.487 172.271 139.073 172.418 138.7C172.565 138.327 172.791 138.007 173.098 137.74C173.418 137.473 173.818 137.267 174.298 137.12C174.791 136.96 175.385 136.88 176.078 136.88C176.238 136.88 176.458 136.887 176.738 136.9C177.031 136.913 177.338 136.927 177.658 136.94C177.978 136.953 178.285 136.967 178.578 136.98C178.885 136.993 179.125 137 179.298 137H180.738V137.52C180.631 137.613 180.478 137.7 180.278 137.78C180.091 137.86 179.805 137.933 179.418 138V146.02C179.911 146.167 180.351 146.327 180.738 146.5V147H176.438V146.5C176.611 146.393 176.791 146.307 176.978 146.24C177.178 146.16 177.391 146.087 177.618 146.02V142.64L176.158 142.84C175.878 143.307 175.565 143.873 175.218 144.54C174.871 145.193 174.398 145.86 173.798 146.54L173.178 147H170.918V146.5L172.038 146.02C172.638 145.393 173.145 144.773 173.558 144.16C173.971 143.547 174.345 143.027 174.678 142.6C174.371 142.547 174.071 142.46 173.778 142.34C173.485 142.207 173.218 142.033 172.978 141.82C172.751 141.593 172.565 141.327 172.418 141.02C172.271 140.713 172.198 140.353 172.198 139.94ZM177.618 137.88C177.445 137.853 177.218 137.827 176.938 137.8C176.671 137.773 176.445 137.76 176.258 137.76C175.431 137.747 174.858 137.94 174.538 138.34C174.231 138.727 174.078 139.24 174.078 139.88C174.078 140.533 174.318 141.073 174.798 141.5C175.291 141.913 176.051 142.12 177.078 142.12H177.618V137.88Z" fill="#141423"/>
</svg>
