<svg width="254" height="254" viewBox="0 0 254 254" fill="none" xmlns="http://www.w3.org/2000/svg">
<rect width="254" height="254" rx="1" fill="#D3D3D8"/>
<path d="M47.44 134H43V133.42C43.48 133.207 43.96 133.047 44.44 132.94L49.5 119.76H50.08L55.14 132.94C55.4067 132.993 55.6667 133.053 55.92 133.12C56.1867 133.187 56.4333 133.287 56.66 133.42V134H51.54V133.42C51.8067 133.313 52.08 133.22 52.36 133.14C52.64 133.06 52.9133 132.993 53.18 132.94L51.82 129.28H47.04L45.72 132.94C46.28 133.02 46.8533 133.18 47.44 133.42V134ZM47.44 128.24H51.48L49.9 124L49.52 122.28H49.48L48.98 124.04L47.44 128.24ZM66.2723 131.08C66.2723 131.613 66.1523 132.073 65.9123 132.46C65.6723 132.833 65.3457 133.14 64.9323 133.38C64.5323 133.62 64.0657 133.8 63.5323 133.92C62.999 134.027 62.439 134.08 61.8523 134.08C61.4257 134.08 61.0857 134.073 60.8323 134.06C60.579 134.06 60.3657 134.053 60.1923 134.04C60.019 134.027 59.8723 134.013 59.7523 134C59.6323 134 59.499 134 59.3523 134H57.4323V133.5C57.8457 133.287 58.2857 133.127 58.7523 133.02V125C58.2457 124.907 57.8057 124.747 57.4323 124.52V124H59.2323C59.5523 124 59.8257 124 60.0523 124C60.279 123.987 60.4923 123.973 60.6923 123.96C60.8923 123.947 61.0923 123.94 61.2923 123.94C61.4923 123.927 61.7123 123.92 61.9523 123.92C63.1257 123.92 64.039 124.1 64.6923 124.46C65.3457 124.807 65.6723 125.42 65.6723 126.3C65.6723 126.62 65.6057 126.907 65.4723 127.16C65.339 127.413 65.1657 127.633 64.9523 127.82C64.739 128.007 64.499 128.167 64.2323 128.3C63.9657 128.42 63.7057 128.507 63.4523 128.56C63.8257 128.587 64.179 128.66 64.5123 128.78C64.859 128.9 65.159 129.067 65.4123 129.28C65.679 129.48 65.8857 129.733 66.0323 130.04C66.1923 130.333 66.2723 130.68 66.2723 131.08ZM60.5523 133.14C60.739 133.18 60.9723 133.2 61.2523 133.2C61.5457 133.2 61.7857 133.2 61.9723 133.2C62.759 133.2 63.3457 133.033 63.7323 132.7C64.119 132.353 64.3123 131.867 64.3123 131.24C64.3123 130.587 64.079 130.1 63.6123 129.78C63.1457 129.447 62.5457 129.28 61.8123 129.28H60.5523V133.14ZM60.5523 128.68L62.7723 128.48C63.0123 128.36 63.2523 128.14 63.4923 127.82C63.7457 127.487 63.8723 127.053 63.8723 126.52C63.8723 125.867 63.6723 125.42 63.2723 125.18C62.8857 124.927 62.3123 124.8 61.5523 124.8C61.4057 124.8 61.239 124.807 61.0523 124.82C60.8657 124.82 60.699 124.84 60.5523 124.88V128.68ZM74.3988 134H69.9588V133.5C70.3721 133.287 70.8121 133.127 71.2788 133.02V124.88H69.4188L68.5387 127.28H68.0188C67.9521 126.707 67.8988 126.147 67.8588 125.6C67.8188 125.04 67.7921 124.507 67.7788 124H76.5788C76.5654 124.48 76.5388 125.007 76.4988 125.58C76.4721 126.14 76.4188 126.707 76.3388 127.28H75.8188L74.9388 124.88H73.0788V133.02C73.7054 133.18 74.1454 133.34 74.3988 133.5V134ZM77.9411 129C77.9411 128.16 78.0478 127.42 78.2611 126.78C78.4878 126.127 78.8078 125.58 79.2211 125.14C79.6344 124.687 80.1278 124.347 80.7011 124.12C81.2878 123.88 81.9344 123.76 82.6411 123.76C83.4678 123.76 84.1811 123.887 84.7811 124.14C85.3811 124.393 85.8678 124.753 86.2411 125.22C86.6278 125.673 86.9078 126.22 87.0811 126.86C87.2678 127.5 87.3611 128.213 87.3611 129C87.3611 130.68 86.9344 131.973 86.0811 132.88C85.2278 133.787 84.0811 134.24 82.6411 134.24C81.8411 134.24 81.1478 134.12 80.5611 133.88C79.9744 133.627 79.4878 133.273 79.1011 132.82C78.7144 132.353 78.4211 131.8 78.2211 131.16C78.0344 130.507 77.9411 129.787 77.9411 129ZM79.8611 129C79.8611 129.6 79.9144 130.167 80.0211 130.7C80.1411 131.233 80.3211 131.7 80.5611 132.1C80.8144 132.487 81.1411 132.793 81.5411 133.02C81.9411 133.247 82.4211 133.36 82.9811 133.36C83.7011 133.36 84.2878 133.007 84.7411 132.3C85.2078 131.593 85.4411 130.493 85.4411 129C85.4411 128.387 85.3811 127.82 85.2611 127.3C85.1544 126.767 84.9811 126.307 84.7411 125.92C84.5011 125.52 84.1944 125.207 83.8211 124.98C83.4478 124.753 83.0011 124.64 82.4811 124.64C81.6944 124.64 81.0611 124.993 80.5811 125.7C80.1011 126.407 79.8611 127.507 79.8611 129ZM95.0238 134H90.5838V133.5C90.9971 133.287 91.4371 133.127 91.9038 133.02V124.88H90.0438L89.1637 127.28H88.6438C88.5771 126.707 88.5238 126.147 88.4838 125.6C88.4438 125.04 88.4171 124.507 88.4038 124H97.2038C97.1904 124.48 97.1638 125.007 97.1238 125.58C97.0971 126.14 97.0438 126.707 96.9638 127.28H96.4438L95.5638 124.88H93.7038V133.02C94.3304 133.18 94.7704 133.34 95.0238 133.5V134ZM106.666 132.6C106.559 132.827 106.393 133.04 106.166 133.24C105.939 133.44 105.679 133.613 105.386 133.76C105.093 133.907 104.773 134.02 104.426 134.1C104.079 134.193 103.726 134.24 103.366 134.24C102.579 134.24 101.886 134.12 101.286 133.88C100.686 133.627 100.186 133.273 99.7861 132.82C99.3861 132.353 99.0794 131.8 98.8661 131.16C98.6661 130.52 98.5661 129.8 98.5661 129C98.5661 127.293 98.9594 125.993 99.7461 125.1C100.533 124.207 101.646 123.76 103.086 123.76C103.553 123.76 104.013 123.827 104.466 123.96C104.919 124.08 105.319 124.287 105.666 124.58C106.026 124.873 106.313 125.267 106.526 125.76C106.753 126.24 106.866 126.84 106.866 127.56C106.866 127.787 106.853 128.02 106.826 128.26C106.813 128.487 106.779 128.733 106.726 129H100.486C100.486 129.56 100.553 130.087 100.686 130.58C100.833 131.06 101.046 131.48 101.326 131.84C101.606 132.2 101.959 132.487 102.386 132.7C102.813 132.9 103.313 133 103.886 133C104.353 133 104.826 132.933 105.306 132.8C105.786 132.667 106.146 132.493 106.386 132.28L106.666 132.6ZM103.006 124.64C102.246 124.64 101.666 124.9 101.266 125.42C100.866 125.927 100.626 126.827 100.546 128.12H104.946C104.959 128 104.966 127.887 104.966 127.78C104.979 127.66 104.986 127.547 104.986 127.44C104.986 126.587 104.826 125.907 104.506 125.4C104.186 124.893 103.686 124.64 103.006 124.64ZM113.413 128.64L116.573 133.02C116.76 133.087 116.94 133.16 117.113 133.24C117.3 133.307 117.473 133.393 117.633 133.5V134H113.533V133.52C113.72 133.413 113.893 133.32 114.053 133.24C114.213 133.147 114.373 133.073 114.533 133.02L112.313 129.74L110.073 133.02C110.26 133.087 110.433 133.16 110.593 133.24C110.753 133.32 110.913 133.407 111.073 133.5V134H107.653V133.5C108.026 133.273 108.4 133.113 108.773 133.02L111.753 129.04L108.753 125C108.566 124.933 108.393 124.867 108.233 124.8C108.086 124.72 107.933 124.627 107.773 124.52V124H111.793V124.5C111.633 124.607 111.473 124.707 111.313 124.8C111.166 124.88 111 124.947 110.813 125L112.893 128L114.933 125C114.48 124.853 114.146 124.693 113.933 124.52V124H117.273V124.52C117.02 124.693 116.646 124.853 116.153 125L113.413 128.64ZM122.904 134H118.604V133.5C118.791 133.393 118.998 133.307 119.224 133.24C119.451 133.16 119.684 133.087 119.924 133.02V125C119.684 124.933 119.451 124.867 119.224 124.8C118.998 124.72 118.791 124.627 118.604 124.52V124H122.904V124.52C122.598 124.707 122.204 124.867 121.724 125V128.5H126.164V125C125.698 124.92 125.298 124.76 124.964 124.52V124H129.284V124.52C128.924 124.747 128.484 124.907 127.964 125V133.02C128.204 133.073 128.438 133.133 128.664 133.2C128.891 133.267 129.098 133.367 129.284 133.5V134H124.964V133.5C125.298 133.26 125.698 133.1 126.164 133.02V129.38H121.724V133.02C121.991 133.073 122.218 133.14 122.404 133.22C122.591 133.3 122.758 133.393 122.904 133.5V134ZM130.85 124H135.09V124.52C134.944 124.6 134.77 124.68 134.57 124.76C134.384 124.84 134.157 124.92 133.89 125V130.48L133.67 132.34H133.77L134.55 130.84L138.83 124H141.53V124.52C141.104 124.76 140.664 124.92 140.21 125V133.02C140.464 133.087 140.704 133.16 140.93 133.24C141.157 133.307 141.357 133.393 141.53 133.5V134H137.29V133.5C137.664 133.287 138.064 133.127 138.49 133.02V127.3L138.69 125.72H138.59L137.83 127.22L133.59 134H130.85V133.5C131.077 133.393 131.297 133.307 131.51 133.24C131.724 133.16 131.944 133.087 132.17 133.02V125C131.65 124.92 131.21 124.76 130.85 124.52V124ZM142.616 124H146.916V124.52C146.783 124.613 146.616 124.707 146.416 124.8C146.216 124.88 145.99 124.947 145.736 125V127.4C145.736 128.027 145.87 128.533 146.136 128.92C146.403 129.293 146.85 129.48 147.476 129.48C147.85 129.48 148.21 129.427 148.556 129.32C148.916 129.2 149.256 129.047 149.576 128.86V125C149.176 124.92 148.783 124.76 148.396 124.52V124H152.696V124.52C152.336 124.747 151.896 124.907 151.376 125V133.02C151.643 133.087 151.883 133.16 152.096 133.24C152.31 133.307 152.51 133.393 152.696 133.5V134H147.976V133.5C148.523 133.273 149.056 133.113 149.576 133.02V129.44C149.256 129.787 148.876 130.073 148.436 130.3C147.996 130.513 147.443 130.62 146.776 130.62C145.87 130.62 145.17 130.367 144.676 129.86C144.183 129.353 143.936 128.667 143.936 127.8V125C143.43 124.907 142.99 124.747 142.616 124.52V124ZM162.389 132.6C162.282 132.827 162.115 133.04 161.889 133.24C161.662 133.44 161.402 133.613 161.109 133.76C160.815 133.907 160.495 134.02 160.149 134.1C159.802 134.193 159.449 134.24 159.089 134.24C158.302 134.24 157.609 134.12 157.009 133.88C156.409 133.627 155.909 133.273 155.509 132.82C155.109 132.353 154.802 131.8 154.589 131.16C154.389 130.52 154.289 129.8 154.289 129C154.289 127.293 154.682 125.993 155.469 125.1C156.255 124.207 157.369 123.76 158.809 123.76C159.275 123.76 159.735 123.827 160.189 123.96C160.642 124.08 161.042 124.287 161.389 124.58C161.749 124.873 162.035 125.267 162.249 125.76C162.475 126.24 162.589 126.84 162.589 127.56C162.589 127.787 162.575 128.02 162.549 128.26C162.535 128.487 162.502 128.733 162.449 129H156.209C156.209 129.56 156.275 130.087 156.409 130.58C156.555 131.06 156.769 131.48 157.049 131.84C157.329 132.2 157.682 132.487 158.109 132.7C158.535 132.9 159.035 133 159.609 133C160.075 133 160.549 132.933 161.029 132.8C161.509 132.667 161.869 132.493 162.109 132.28L162.389 132.6ZM158.729 124.64C157.969 124.64 157.389 124.9 156.989 125.42C156.589 125.927 156.349 126.827 156.269 128.12H160.669C160.682 128 160.689 127.887 160.689 127.78C160.702 127.66 160.709 127.547 160.709 127.44C160.709 126.587 160.549 125.907 160.229 125.4C159.909 124.893 159.409 124.64 158.729 124.64ZM172.067 132.6C171.827 133.067 171.434 133.46 170.887 133.78C170.354 134.087 169.727 134.24 169.007 134.24C168.221 134.24 167.534 134.12 166.947 133.88C166.374 133.627 165.894 133.273 165.507 132.82C165.121 132.353 164.827 131.8 164.627 131.16C164.441 130.507 164.347 129.787 164.347 129C164.347 127.307 164.761 126.013 165.587 125.12C166.414 124.213 167.541 123.76 168.967 123.76C169.621 123.76 170.201 123.82 170.707 123.94C171.227 124.047 171.667 124.193 172.027 124.38C171.987 124.82 171.914 125.313 171.807 125.86C171.701 126.407 171.567 126.86 171.407 127.22H170.867L170.027 124.84C169.934 124.773 169.827 124.727 169.707 124.7C169.587 124.66 169.387 124.64 169.107 124.64C168.201 124.64 167.501 124.973 167.007 125.64C166.514 126.293 166.267 127.407 166.267 128.98C166.267 129.487 166.334 129.98 166.467 130.46C166.614 130.94 166.827 131.373 167.107 131.76C167.401 132.133 167.761 132.433 168.187 132.66C168.627 132.887 169.134 133 169.707 133C170.174 133 170.581 132.933 170.927 132.8C171.274 132.667 171.567 132.507 171.807 132.32L172.067 132.6ZM179.344 124H183.204V124.52C183.07 124.627 182.89 124.72 182.664 124.8C182.45 124.88 182.184 124.973 181.864 125.08C181.41 125.627 180.93 126.18 180.424 126.74C179.917 127.3 179.384 127.86 178.824 128.42C179.117 128.74 179.424 129.093 179.744 129.48C180.077 129.867 180.41 130.267 180.744 130.68C181.077 131.093 181.41 131.5 181.744 131.9C182.077 132.3 182.404 132.673 182.724 133.02L183.664 133.5V134H181.324L180.684 133.54C180.084 132.82 179.537 132.1 179.044 131.38C178.55 130.66 178.05 129.953 177.544 129.26H176.744V133.02C177.01 133.087 177.25 133.16 177.464 133.24C177.69 133.307 177.884 133.393 178.044 133.5V134H173.624V133.5C173.984 133.287 174.424 133.127 174.944 133.02V125C174.477 124.907 174.037 124.747 173.624 124.52V124H177.724V124.52C177.59 124.613 177.444 124.7 177.284 124.78C177.137 124.86 176.957 124.933 176.744 125V128.74L177.664 128.54C178.197 127.927 178.704 127.353 179.184 126.82C179.664 126.287 180.11 125.707 180.524 125.08C180.297 124.987 180.084 124.9 179.884 124.82C179.697 124.727 179.517 124.627 179.344 124.52V124ZM191.864 131.38C191.864 131.673 191.871 131.927 191.884 132.14C191.897 132.353 191.911 132.58 191.924 132.82L193.304 133.02V133.44C192.971 133.613 192.597 133.767 192.184 133.9C191.784 134.033 191.397 134.133 191.024 134.2H190.524C190.391 133.893 190.311 133.56 190.284 133.2C190.257 132.827 190.237 132.42 190.224 131.98H190.124C190.071 132.247 189.964 132.52 189.804 132.8C189.657 133.067 189.457 133.307 189.204 133.52C188.964 133.733 188.677 133.907 188.344 134.04C188.011 134.173 187.631 134.24 187.204 134.24C186.391 134.24 185.724 133.993 185.204 133.5C184.697 133.007 184.444 132.36 184.444 131.56C184.444 130.947 184.564 130.447 184.804 130.06C185.057 129.66 185.424 129.347 185.904 129.12C186.384 128.893 186.977 128.733 187.684 128.64C188.391 128.533 189.211 128.453 190.144 128.4C190.197 127.827 190.211 127.313 190.184 126.86C190.171 126.393 190.097 126 189.964 125.68C189.844 125.347 189.657 125.093 189.404 124.92C189.164 124.733 188.844 124.64 188.444 124.64C188.257 124.64 188.044 124.653 187.804 124.68C187.577 124.693 187.351 124.747 187.124 124.84L186.184 127.24H185.664C185.531 126.84 185.411 126.427 185.304 126C185.211 125.573 185.151 125.153 185.124 124.74C185.631 124.433 186.191 124.193 186.804 124.02C187.431 123.847 188.124 123.76 188.884 123.76C189.564 123.76 190.104 123.86 190.504 124.06C190.917 124.247 191.231 124.493 191.444 124.8C191.657 125.107 191.797 125.447 191.864 125.82C191.931 126.193 191.964 126.567 191.964 126.94C191.964 127.74 191.944 128.513 191.904 129.26C191.877 129.993 191.864 130.7 191.864 131.38ZM188.004 133C188.337 133 188.631 132.933 188.884 132.8C189.137 132.667 189.351 132.507 189.524 132.32C189.697 132.133 189.837 131.947 189.944 131.76C190.051 131.56 190.124 131.393 190.164 131.26V129.16C189.391 129.16 188.757 129.2 188.264 129.28C187.771 129.36 187.384 129.487 187.104 129.66C186.824 129.833 186.631 130.053 186.524 130.32C186.417 130.573 186.364 130.867 186.364 131.2C186.364 131.773 186.511 132.22 186.804 132.54C187.097 132.847 187.497 133 188.004 133ZM195.042 126.94C195.042 126.487 195.115 126.073 195.262 125.7C195.408 125.327 195.635 125.007 195.942 124.74C196.262 124.473 196.662 124.267 197.142 124.12C197.635 123.96 198.228 123.88 198.922 123.88C199.082 123.88 199.302 123.887 199.582 123.9C199.875 123.913 200.182 123.927 200.502 123.94C200.822 123.953 201.128 123.967 201.422 123.98C201.728 123.993 201.968 124 202.142 124H203.582V124.52C203.475 124.613 203.322 124.7 203.122 124.78C202.935 124.86 202.648 124.933 202.262 125V133.02C202.755 133.167 203.195 133.327 203.582 133.5V134H199.282V133.5C199.455 133.393 199.635 133.307 199.822 133.24C200.022 133.16 200.235 133.087 200.462 133.02V129.64L199.002 129.84C198.722 130.307 198.408 130.873 198.062 131.54C197.715 132.193 197.242 132.86 196.642 133.54L196.022 134H193.762V133.5L194.882 133.02C195.482 132.393 195.988 131.773 196.402 131.16C196.815 130.547 197.188 130.027 197.522 129.6C197.215 129.547 196.915 129.46 196.622 129.34C196.328 129.207 196.062 129.033 195.822 128.82C195.595 128.593 195.408 128.327 195.262 128.02C195.115 127.713 195.042 127.353 195.042 126.94ZM200.462 124.88C200.288 124.853 200.062 124.827 199.782 124.8C199.515 124.773 199.288 124.76 199.102 124.76C198.275 124.747 197.702 124.94 197.382 125.34C197.075 125.727 196.922 126.24 196.922 126.88C196.922 127.533 197.162 128.073 197.642 128.5C198.135 128.913 198.895 129.12 199.922 129.12H200.462V124.88Z" fill="#141423"/>
</svg>
