<svg width="254" height="254" viewBox="0 0 254 254" fill="none" xmlns="http://www.w3.org/2000/svg">
<rect width="254" height="254" rx="1" fill="#A7A7B1" fill-opacity="0.7"/>
<path d="M68.94 116.36H69.46C69.5267 116.733 69.5867 117.207 69.64 117.78C69.6933 118.34 69.7067 118.887 69.68 119.42C69.48 119.58 69.24 119.713 68.96 119.82C68.68 119.913 68.38 119.993 68.06 120.06C67.7533 120.127 67.4333 120.173 67.1 120.2C66.78 120.227 66.4733 120.24 66.18 120.24C65.06 120.24 64.06 120.1 63.18 119.82C62.3 119.527 61.5533 119.087 60.94 118.5C60.34 117.913 59.8733 117.167 59.54 116.26C59.22 115.34 59.06 114.253 59.06 113C59.06 111.693 59.24 110.587 59.6 109.68C59.96 108.76 60.4467 108.013 61.06 107.44C61.6733 106.853 62.3867 106.427 63.2 106.16C64.0133 105.893 64.8667 105.76 65.76 105.76C66.64 105.76 67.38 105.82 67.98 105.94C68.58 106.047 69.1067 106.213 69.56 106.44C69.56 106.653 69.5533 106.907 69.54 107.2C69.5267 107.48 69.5067 107.78 69.48 108.1C69.4533 108.42 69.42 108.733 69.38 109.04C69.34 109.347 69.3 109.627 69.26 109.88H68.74L67.7 107C67.5533 106.92 67.3067 106.867 66.96 106.84C66.6267 106.813 66.2933 106.8 65.96 106.8C65.2933 106.8 64.66 106.927 64.06 107.18C63.4733 107.42 62.9533 107.8 62.5 108.32C62.06 108.827 61.7067 109.473 61.44 110.26C61.1733 111.033 61.04 111.947 61.04 113C61.04 113.947 61.16 114.807 61.4 115.58C61.64 116.34 61.9867 116.993 62.44 117.54C62.8933 118.073 63.4467 118.487 64.1 118.78C64.7533 119.06 65.4933 119.2 66.32 119.2C66.76 119.2 67.1267 119.167 67.42 119.1C67.7133 119.033 67.9067 118.947 68 118.84L68.94 116.36ZM77.4456 120H73.0056V119.5C73.419 119.287 73.859 119.127 74.3256 119.02V110.88H72.4656L71.5856 113.28H71.0656C70.999 112.707 70.9456 112.147 70.9056 111.6C70.8656 111.04 70.839 110.507 70.8256 110H79.6256C79.6123 110.48 79.5856 111.007 79.5456 111.58C79.519 112.14 79.4656 112.707 79.3856 113.28H78.8656L77.9856 110.88H76.1256V119.02C76.7523 119.18 77.1923 119.34 77.4456 119.5V120ZM85.2475 124H80.8075V123.5C81.2608 123.287 81.7008 123.127 82.1275 123.02V111.16L80.8075 111V110.48C81.2342 110.293 81.6675 110.147 82.1075 110.04C82.5608 109.92 83.0008 109.827 83.4275 109.76H83.9275V112H83.9475C84.2142 111.32 84.5875 110.78 85.0675 110.38C85.5475 109.967 86.1742 109.76 86.9475 109.76C88.1342 109.76 89.0542 110.153 89.7075 110.94C90.3608 111.727 90.6875 113.007 90.6875 114.78C90.6875 115.62 90.5742 116.38 90.3475 117.06C90.1342 117.74 89.8208 118.313 89.4075 118.78C89.0075 119.247 88.5142 119.607 87.9275 119.86C87.3542 120.113 86.7142 120.24 86.0075 120.24C85.5142 120.24 85.1275 120.207 84.8475 120.14C84.5675 120.087 84.2608 119.987 83.9275 119.84V123.02C84.1408 123.047 84.3542 123.093 84.5675 123.16C84.7808 123.24 85.0075 123.353 85.2475 123.5V124ZM86.3075 111C85.6542 111 85.1342 111.207 84.7475 111.62C84.3608 112.033 84.0875 112.6 83.9275 113.32V118.92C84.1675 119.067 84.4342 119.18 84.7275 119.26C85.0342 119.327 85.4275 119.36 85.9075 119.36C86.3475 119.36 86.7408 119.247 87.0875 119.02C87.4475 118.793 87.7475 118.473 87.9875 118.06C88.2408 117.647 88.4342 117.167 88.5675 116.62C88.7008 116.06 88.7675 115.447 88.7675 114.78C88.7675 114.233 88.7208 113.733 88.6275 113.28C88.5475 112.813 88.4075 112.413 88.2075 112.08C88.0208 111.733 87.7675 111.467 87.4475 111.28C87.1408 111.093 86.7608 111 86.3075 111ZM92.3356 115C92.3356 114.16 92.4423 113.42 92.6556 112.78C92.8823 112.127 93.2023 111.58 93.6156 111.14C94.029 110.687 94.5223 110.347 95.0956 110.12C95.6823 109.88 96.329 109.76 97.0356 109.76C97.8623 109.76 98.5756 109.887 99.1756 110.14C99.7756 110.393 100.262 110.753 100.636 111.22C101.022 111.673 101.302 112.22 101.476 112.86C101.662 113.5 101.756 114.213 101.756 115C101.756 116.68 101.329 117.973 100.476 118.88C99.6223 119.787 98.4756 120.24 97.0356 120.24C96.2356 120.24 95.5423 120.12 94.9556 119.88C94.369 119.627 93.8823 119.273 93.4956 118.82C93.109 118.353 92.8156 117.8 92.6156 117.16C92.429 116.507 92.3356 115.787 92.3356 115ZM94.2556 115C94.2556 115.6 94.309 116.167 94.4156 116.7C94.5356 117.233 94.7156 117.7 94.9556 118.1C95.209 118.487 95.5356 118.793 95.9356 119.02C96.3356 119.247 96.8156 119.36 97.3756 119.36C98.0956 119.36 98.6823 119.007 99.1356 118.3C99.6023 117.593 99.8356 116.493 99.8356 115C99.8356 114.387 99.7756 113.82 99.6556 113.3C99.549 112.767 99.3756 112.307 99.1356 111.92C98.8956 111.52 98.589 111.207 98.2156 110.98C97.8423 110.753 97.3956 110.64 96.8756 110.64C96.089 110.64 95.4556 110.993 94.9756 111.7C94.4956 112.407 94.2556 113.507 94.2556 115ZM103.35 110H107.59V110.52C107.444 110.6 107.27 110.68 107.07 110.76C106.884 110.84 106.657 110.92 106.39 111V116.48L106.17 118.34H106.27L107.05 116.84L111.33 110H114.03V110.52C113.604 110.76 113.164 110.92 112.71 111V119.02C112.964 119.087 113.204 119.16 113.43 119.24C113.657 119.307 113.857 119.393 114.03 119.5V120H109.79V119.5C110.164 119.287 110.564 119.127 110.99 119.02V113.3L111.19 111.72H111.09L110.33 113.22L106.09 120H103.35V119.5C103.577 119.393 103.797 119.307 104.01 119.24C104.224 119.16 104.444 119.087 104.67 119.02V111C104.15 110.92 103.71 110.76 103.35 110.52V110ZM121.996 120H117.556V119.5C117.97 119.287 118.41 119.127 118.876 119.02V110.88H117.016L116.136 113.28H115.616C115.55 112.707 115.496 112.147 115.456 111.6C115.416 111.04 115.39 110.507 115.376 110H124.176C124.163 110.48 124.136 111.007 124.096 111.58C124.07 112.14 124.016 112.707 123.936 113.28H123.416L122.536 110.88H120.676V119.02C121.303 119.18 121.743 119.34 121.996 119.5V120ZM133.639 118.6C133.532 118.827 133.365 119.04 133.139 119.24C132.912 119.44 132.652 119.613 132.359 119.76C132.065 119.907 131.745 120.02 131.399 120.1C131.052 120.193 130.699 120.24 130.339 120.24C129.552 120.24 128.859 120.12 128.259 119.88C127.659 119.627 127.159 119.273 126.759 118.82C126.359 118.353 126.052 117.8 125.839 117.16C125.639 116.52 125.539 115.8 125.539 115C125.539 113.293 125.932 111.993 126.719 111.1C127.505 110.207 128.619 109.76 130.059 109.76C130.525 109.76 130.985 109.827 131.439 109.96C131.892 110.08 132.292 110.287 132.639 110.58C132.999 110.873 133.285 111.267 133.499 111.76C133.725 112.24 133.839 112.84 133.839 113.56C133.839 113.787 133.825 114.02 133.799 114.26C133.785 114.487 133.752 114.733 133.699 115H127.459C127.459 115.56 127.525 116.087 127.659 116.58C127.805 117.06 128.019 117.48 128.299 117.84C128.579 118.2 128.932 118.487 129.359 118.7C129.785 118.9 130.285 119 130.859 119C131.325 119 131.799 118.933 132.279 118.8C132.759 118.667 133.119 118.493 133.359 118.28L133.639 118.6ZM129.979 110.64C129.219 110.64 128.639 110.9 128.239 111.42C127.839 111.927 127.599 112.827 127.519 114.12H131.919C131.932 114 131.939 113.887 131.939 113.78C131.952 113.66 131.959 113.547 131.959 113.44C131.959 112.587 131.799 111.907 131.479 111.4C131.159 110.893 130.659 110.64 129.979 110.64ZM136.486 118.28C136.672 117.96 136.839 117.533 136.986 117C137.132 116.467 137.252 115.88 137.346 115.24C137.452 114.6 137.532 113.933 137.586 113.24C137.639 112.533 137.666 111.853 137.666 111.2C137.399 111.12 137.152 111.02 136.926 110.9C136.712 110.78 136.512 110.653 136.326 110.52V110H144.506V110.52C144.079 110.76 143.639 110.92 143.186 111V119.02C143.466 119.087 143.712 119.16 143.926 119.24C144.139 119.32 144.332 119.407 144.506 119.5V120H140.206V119.5C140.526 119.273 140.919 119.113 141.386 119.02V110.88H138.746C138.732 111.587 138.692 112.34 138.626 113.14C138.559 113.927 138.459 114.707 138.326 115.48C138.192 116.24 138.019 116.96 137.806 117.64C137.592 118.307 137.332 118.867 137.026 119.32C136.772 119.707 136.499 119.973 136.206 120.12C135.912 120.28 135.639 120.333 135.386 120.28C135.186 120.053 134.992 119.76 134.806 119.4C134.632 119.027 134.532 118.687 134.506 118.38L134.786 117.88L136.486 118.28ZM149.185 114.08C149.412 114.053 149.665 114.02 149.945 113.98C150.225 113.94 150.632 113.92 151.165 113.92C152.258 113.92 153.118 114.153 153.745 114.62C154.372 115.087 154.685 115.82 154.685 116.82C154.685 117.353 154.578 117.827 154.365 118.24C154.165 118.64 153.885 118.98 153.525 119.26C153.165 119.527 152.732 119.733 152.225 119.88C151.718 120.013 151.165 120.08 150.565 120.08C150.205 120.08 149.798 120.067 149.345 120.04C148.905 120.013 148.432 120 147.925 120H146.065V119.5C146.265 119.393 146.478 119.307 146.705 119.24C146.932 119.16 147.158 119.087 147.385 119.02V111C147.132 110.947 146.898 110.88 146.685 110.8C146.472 110.72 146.265 110.627 146.065 110.52V110H150.385V110.52C150.065 110.707 149.665 110.867 149.185 111V114.08ZM149.185 119.14C149.358 119.153 149.532 119.167 149.705 119.18C149.878 119.193 150.058 119.2 150.245 119.2C151.018 119.2 151.618 119.007 152.045 118.62C152.485 118.233 152.705 117.627 152.705 116.8C152.705 116.427 152.645 116.113 152.525 115.86C152.405 115.593 152.245 115.387 152.045 115.24C151.845 115.08 151.605 114.967 151.325 114.9C151.058 114.833 150.772 114.8 150.465 114.8C150.252 114.8 150.032 114.807 149.805 114.82C149.592 114.82 149.385 114.84 149.185 114.88V119.14ZM160.521 120H156.221V119.5C156.408 119.393 156.615 119.307 156.841 119.24C157.068 119.16 157.301 119.087 157.541 119.02V111C157.301 110.933 157.068 110.867 156.841 110.8C156.615 110.72 156.408 110.627 156.221 110.52V110H160.521V110.52C160.215 110.707 159.821 110.867 159.341 111V114.5H163.781V111C163.315 110.92 162.915 110.76 162.581 110.52V110H166.901V110.52C166.541 110.747 166.101 110.907 165.581 111V119.02C165.821 119.073 166.055 119.133 166.281 119.2C166.508 119.267 166.715 119.367 166.901 119.5V120H162.581V119.5C162.915 119.26 163.315 119.1 163.781 119.02V115.38H159.341V119.02C159.608 119.073 159.835 119.14 160.021 119.22C160.208 119.3 160.375 119.393 160.521 119.5V120ZM168.508 115C168.508 114.16 168.614 113.42 168.828 112.78C169.054 112.127 169.374 111.58 169.788 111.14C170.201 110.687 170.694 110.347 171.268 110.12C171.854 109.88 172.501 109.76 173.208 109.76C174.034 109.76 174.748 109.887 175.348 110.14C175.948 110.393 176.434 110.753 176.808 111.22C177.194 111.673 177.474 112.22 177.648 112.86C177.834 113.5 177.928 114.213 177.928 115C177.928 116.68 177.501 117.973 176.648 118.88C175.794 119.787 174.648 120.24 173.208 120.24C172.408 120.24 171.714 120.12 171.128 119.88C170.541 119.627 170.054 119.273 169.668 118.82C169.281 118.353 168.988 117.8 168.788 117.16C168.601 116.507 168.508 115.787 168.508 115ZM170.428 115C170.428 115.6 170.481 116.167 170.588 116.7C170.708 117.233 170.888 117.7 171.128 118.1C171.381 118.487 171.708 118.793 172.108 119.02C172.508 119.247 172.988 119.36 173.548 119.36C174.268 119.36 174.854 119.007 175.308 118.3C175.774 117.593 176.008 116.493 176.008 115C176.008 114.387 175.948 113.82 175.828 113.3C175.721 112.767 175.548 112.307 175.308 111.92C175.068 111.52 174.761 111.207 174.388 110.98C174.014 110.753 173.568 110.64 173.048 110.64C172.261 110.64 171.628 110.993 171.148 111.7C170.668 112.407 170.428 113.507 170.428 115ZM184.225 113.74H189.865V115H184.225V113.74ZM65.18 147H60.74V146.5C61.1533 146.287 61.5933 146.127 62.06 146.02V137.88H60.2L59.32 140.28H58.8C58.7333 139.707 58.68 139.147 58.64 138.6C58.6 138.04 58.5733 137.507 58.56 137H67.36C67.3467 137.48 67.32 138.007 67.28 138.58C67.2533 139.14 67.2 139.707 67.12 140.28H66.6L65.72 137.88H63.86V146.02C64.4867 146.18 64.9267 146.34 65.18 146.5V147ZM76.8223 145.6C76.7157 145.827 76.549 146.04 76.3223 146.24C76.0957 146.44 75.8357 146.613 75.5423 146.76C75.249 146.907 74.929 147.02 74.5823 147.1C74.2357 147.193 73.8823 147.24 73.5223 147.24C72.7357 147.24 72.0423 147.12 71.4423 146.88C70.8423 146.627 70.3423 146.273 69.9423 145.82C69.5423 145.353 69.2357 144.8 69.0223 144.16C68.8223 143.52 68.7223 142.8 68.7223 142C68.7223 140.293 69.1157 138.993 69.9023 138.1C70.689 137.207 71.8023 136.76 73.2423 136.76C73.709 136.76 74.169 136.827 74.6223 136.96C75.0757 137.08 75.4757 137.287 75.8223 137.58C76.1823 137.873 76.469 138.267 76.6823 138.76C76.909 139.24 77.0223 139.84 77.0223 140.56C77.0223 140.787 77.009 141.02 76.9823 141.26C76.969 141.487 76.9357 141.733 76.8823 142H70.6423C70.6423 142.56 70.709 143.087 70.8423 143.58C70.989 144.06 71.2023 144.48 71.4823 144.84C71.7623 145.2 72.1157 145.487 72.5423 145.7C72.969 145.9 73.469 146 74.0423 146C74.509 146 74.9823 145.933 75.4623 145.8C75.9423 145.667 76.3023 145.493 76.5423 145.28L76.8223 145.6ZM73.1623 137.64C72.4023 137.64 71.8223 137.9 71.4223 138.42C71.0223 138.927 70.7823 139.827 70.7023 141.12H75.1023C75.1157 141 75.1223 140.887 75.1223 140.78C75.1357 140.66 75.1423 140.547 75.1423 140.44C75.1423 139.587 74.9823 138.907 74.6623 138.4C74.3423 137.893 73.8423 137.64 73.1623 137.64ZM83.5694 141.64L86.7294 146.02C86.916 146.087 87.096 146.16 87.2694 146.24C87.456 146.307 87.6294 146.393 87.7894 146.5V147H83.6894V146.52C83.876 146.413 84.0494 146.32 84.2094 146.24C84.3694 146.147 84.5294 146.073 84.6894 146.02L82.4694 142.74L80.2294 146.02C80.416 146.087 80.5894 146.16 80.7494 146.24C80.9094 146.32 81.0694 146.407 81.2294 146.5V147H77.8094V146.5C78.1827 146.273 78.556 146.113 78.9294 146.02L81.9094 142.04L78.9094 138C78.7227 137.933 78.5494 137.867 78.3894 137.8C78.2427 137.72 78.0894 137.627 77.9294 137.52V137H81.9494V137.5C81.7894 137.607 81.6294 137.707 81.4694 137.8C81.3227 137.88 81.156 137.947 80.9694 138L83.0494 141L85.0894 138C84.636 137.853 84.3027 137.693 84.0894 137.52V137H87.4294V137.52C87.176 137.693 86.8027 137.853 86.3094 138L83.5694 141.64ZM93.0605 147H88.7605V146.5C88.9471 146.393 89.1538 146.307 89.3805 146.24C89.6071 146.16 89.8405 146.087 90.0805 146.02V138C89.8405 137.933 89.6071 137.867 89.3805 137.8C89.1538 137.72 88.9471 137.627 88.7605 137.52V137H93.0605V137.52C92.7538 137.707 92.3605 137.867 91.8805 138V141.5H96.3205V138C95.8538 137.92 95.4538 137.76 95.1205 137.52V137H99.4405V137.52C99.0805 137.747 98.6405 137.907 98.1205 138V146.02C98.3605 146.073 98.5938 146.133 98.8205 146.2C99.0471 146.267 99.2538 146.367 99.4405 146.5V147H95.1205V146.5C95.4538 146.26 95.8538 146.1 96.3205 146.02V142.38H91.8805V146.02C92.1471 146.073 92.3738 146.14 92.5605 146.22C92.7471 146.3 92.9138 146.393 93.0605 146.5V147ZM101.007 137H105.247V137.52C105.1 137.6 104.927 137.68 104.727 137.76C104.54 137.84 104.313 137.92 104.047 138V143.48L103.827 145.34H103.927L104.707 143.84L108.987 137H111.687V137.52C111.26 137.76 110.82 137.92 110.367 138V146.02C110.62 146.087 110.86 146.16 111.087 146.24C111.313 146.307 111.513 146.393 111.687 146.5V147H107.447V146.5C107.82 146.287 108.22 146.127 108.647 146.02V140.3L108.847 138.72H108.747L107.987 140.22L103.747 147H101.007V146.5C101.233 146.393 101.453 146.307 101.667 146.24C101.88 146.16 102.1 146.087 102.327 146.02V138C101.807 137.92 101.367 137.76 101.007 137.52V137ZM112.773 137H117.073V137.52C116.939 137.613 116.773 137.707 116.573 137.8C116.373 137.88 116.146 137.947 115.893 138V140.4C115.893 141.027 116.026 141.533 116.293 141.92C116.559 142.293 117.006 142.48 117.633 142.48C118.006 142.48 118.366 142.427 118.713 142.32C119.073 142.2 119.413 142.047 119.733 141.86V138C119.333 137.92 118.939 137.76 118.553 137.52V137H122.853V137.52C122.493 137.747 122.053 137.907 121.533 138V146.02C121.799 146.087 122.039 146.16 122.253 146.24C122.466 146.307 122.666 146.393 122.853 146.5V147H118.133V146.5C118.679 146.273 119.213 146.113 119.733 146.02V142.44C119.413 142.787 119.033 143.073 118.593 143.3C118.153 143.513 117.599 143.62 116.933 143.62C116.026 143.62 115.326 143.367 114.833 142.86C114.339 142.353 114.093 141.667 114.093 140.8V138C113.586 137.907 113.146 137.747 112.773 137.52V137ZM132.545 145.6C132.438 145.827 132.272 146.04 132.045 146.24C131.818 146.44 131.558 146.613 131.265 146.76C130.972 146.907 130.652 147.02 130.305 147.1C129.958 147.193 129.605 147.24 129.245 147.24C128.458 147.24 127.765 147.12 127.165 146.88C126.565 146.627 126.065 146.273 125.665 145.82C125.265 145.353 124.958 144.8 124.745 144.16C124.545 143.52 124.445 142.8 124.445 142C124.445 140.293 124.838 138.993 125.625 138.1C126.412 137.207 127.525 136.76 128.965 136.76C129.432 136.76 129.892 136.827 130.345 136.96C130.798 137.08 131.198 137.287 131.545 137.58C131.905 137.873 132.192 138.267 132.405 138.76C132.632 139.24 132.745 139.84 132.745 140.56C132.745 140.787 132.732 141.02 132.705 141.26C132.692 141.487 132.658 141.733 132.605 142H126.365C126.365 142.56 126.432 143.087 126.565 143.58C126.712 144.06 126.925 144.48 127.205 144.84C127.485 145.2 127.838 145.487 128.265 145.7C128.692 145.9 129.192 146 129.765 146C130.232 146 130.705 145.933 131.185 145.8C131.665 145.667 132.025 145.493 132.265 145.28L132.545 145.6ZM128.885 137.64C128.125 137.64 127.545 137.9 127.145 138.42C126.745 138.927 126.505 139.827 126.425 141.12H130.825C130.838 141 130.845 140.887 130.845 140.78C130.858 140.66 130.865 140.547 130.865 140.44C130.865 139.587 130.705 138.907 130.385 138.4C130.065 137.893 129.565 137.64 128.885 137.64ZM142.224 145.6C141.984 146.067 141.59 146.46 141.044 146.78C140.51 147.087 139.884 147.24 139.164 147.24C138.377 147.24 137.69 147.12 137.104 146.88C136.53 146.627 136.05 146.273 135.664 145.82C135.277 145.353 134.984 144.8 134.784 144.16C134.597 143.507 134.504 142.787 134.504 142C134.504 140.307 134.917 139.013 135.744 138.12C136.57 137.213 137.697 136.76 139.124 136.76C139.777 136.76 140.357 136.82 140.864 136.94C141.384 137.047 141.824 137.193 142.184 137.38C142.144 137.82 142.07 138.313 141.964 138.86C141.857 139.407 141.724 139.86 141.564 140.22H141.024L140.184 137.84C140.09 137.773 139.984 137.727 139.864 137.7C139.744 137.66 139.544 137.64 139.264 137.64C138.357 137.64 137.657 137.973 137.164 138.64C136.67 139.293 136.424 140.407 136.424 141.98C136.424 142.487 136.49 142.98 136.624 143.46C136.77 143.94 136.984 144.373 137.264 144.76C137.557 145.133 137.917 145.433 138.344 145.66C138.784 145.887 139.29 146 139.864 146C140.33 146 140.737 145.933 141.084 145.8C141.43 145.667 141.724 145.507 141.964 145.32L142.224 145.6ZM149.5 137H153.36V137.52C153.227 137.627 153.047 137.72 152.82 137.8C152.607 137.88 152.34 137.973 152.02 138.08C151.567 138.627 151.087 139.18 150.58 139.74C150.073 140.3 149.54 140.86 148.98 141.42C149.273 141.74 149.58 142.093 149.9 142.48C150.233 142.867 150.567 143.267 150.9 143.68C151.233 144.093 151.567 144.5 151.9 144.9C152.233 145.3 152.56 145.673 152.88 146.02L153.82 146.5V147H151.48L150.84 146.54C150.24 145.82 149.693 145.1 149.2 144.38C148.707 143.66 148.207 142.953 147.7 142.26H146.9V146.02C147.167 146.087 147.407 146.16 147.62 146.24C147.847 146.307 148.04 146.393 148.2 146.5V147H143.78V146.5C144.14 146.287 144.58 146.127 145.1 146.02V138C144.633 137.907 144.193 137.747 143.78 137.52V137H147.88V137.52C147.747 137.613 147.6 137.7 147.44 137.78C147.293 137.86 147.113 137.933 146.9 138V141.74L147.82 141.54C148.353 140.927 148.86 140.353 149.34 139.82C149.82 139.287 150.267 138.707 150.68 138.08C150.453 137.987 150.24 137.9 150.04 137.82C149.853 137.727 149.673 137.627 149.5 137.52V137ZM162.02 144.38C162.02 144.673 162.027 144.927 162.04 145.14C162.054 145.353 162.067 145.58 162.08 145.82L163.46 146.02V146.44C163.127 146.613 162.754 146.767 162.34 146.9C161.94 147.033 161.554 147.133 161.18 147.2H160.68C160.547 146.893 160.467 146.56 160.44 146.2C160.414 145.827 160.394 145.42 160.38 144.98H160.28C160.227 145.247 160.12 145.52 159.96 145.8C159.814 146.067 159.614 146.307 159.36 146.52C159.12 146.733 158.834 146.907 158.5 147.04C158.167 147.173 157.787 147.24 157.36 147.24C156.547 147.24 155.88 146.993 155.36 146.5C154.854 146.007 154.6 145.36 154.6 144.56C154.6 143.947 154.72 143.447 154.96 143.06C155.214 142.66 155.58 142.347 156.06 142.12C156.54 141.893 157.134 141.733 157.84 141.64C158.547 141.533 159.367 141.453 160.3 141.4C160.354 140.827 160.367 140.313 160.34 139.86C160.327 139.393 160.254 139 160.12 138.68C160 138.347 159.814 138.093 159.56 137.92C159.32 137.733 159 137.64 158.6 137.64C158.414 137.64 158.2 137.653 157.96 137.68C157.734 137.693 157.507 137.747 157.28 137.84L156.34 140.24H155.82C155.687 139.84 155.567 139.427 155.46 139C155.367 138.573 155.307 138.153 155.28 137.74C155.787 137.433 156.347 137.193 156.96 137.02C157.587 136.847 158.28 136.76 159.04 136.76C159.72 136.76 160.26 136.86 160.66 137.06C161.074 137.247 161.387 137.493 161.6 137.8C161.814 138.107 161.954 138.447 162.02 138.82C162.087 139.193 162.12 139.567 162.12 139.94C162.12 140.74 162.1 141.513 162.06 142.26C162.034 142.993 162.02 143.7 162.02 144.38ZM158.16 146C158.494 146 158.787 145.933 159.04 145.8C159.294 145.667 159.507 145.507 159.68 145.32C159.854 145.133 159.994 144.947 160.1 144.76C160.207 144.56 160.28 144.393 160.32 144.26V142.16C159.547 142.16 158.914 142.2 158.42 142.28C157.927 142.36 157.54 142.487 157.26 142.66C156.98 142.833 156.787 143.053 156.68 143.32C156.574 143.573 156.52 143.867 156.52 144.2C156.52 144.773 156.667 145.22 156.96 145.54C157.254 145.847 157.654 146 158.16 146ZM165.198 139.94C165.198 139.487 165.271 139.073 165.418 138.7C165.565 138.327 165.791 138.007 166.098 137.74C166.418 137.473 166.818 137.267 167.298 137.12C167.791 136.96 168.385 136.88 169.078 136.88C169.238 136.88 169.458 136.887 169.738 136.9C170.031 136.913 170.338 136.927 170.658 136.94C170.978 136.953 171.285 136.967 171.578 136.98C171.885 136.993 172.125 137 172.298 137H173.738V137.52C173.631 137.613 173.478 137.7 173.278 137.78C173.091 137.86 172.805 137.933 172.418 138V146.02C172.911 146.167 173.351 146.327 173.738 146.5V147H169.438V146.5C169.611 146.393 169.791 146.307 169.978 146.24C170.178 146.16 170.391 146.087 170.618 146.02V142.64L169.158 142.84C168.878 143.307 168.565 143.873 168.218 144.54C167.871 145.193 167.398 145.86 166.798 146.54L166.178 147H163.918V146.5L165.038 146.02C165.638 145.393 166.145 144.773 166.558 144.16C166.971 143.547 167.345 143.027 167.678 142.6C167.371 142.547 167.071 142.46 166.778 142.34C166.485 142.207 166.218 142.033 165.978 141.82C165.751 141.593 165.565 141.327 165.418 141.02C165.271 140.713 165.198 140.353 165.198 139.94ZM170.618 137.88C170.445 137.853 170.218 137.827 169.938 137.8C169.671 137.773 169.445 137.76 169.258 137.76C168.431 137.747 167.858 137.94 167.538 138.34C167.231 138.727 167.078 139.24 167.078 139.88C167.078 140.533 167.318 141.073 167.798 141.5C168.291 141.913 169.051 142.12 170.078 142.12H170.618V137.88Z" fill="#141423"/>
</svg>
