<svg width="255" height="255" viewBox="0 0 255 255" fill="none" xmlns="http://www.w3.org/2000/svg">
<rect width="255" height="255" rx="1" fill="#D3D3D8" fill-opacity="0.5"/>
<path d="M50.04 122.18C49.2133 122.047 48.5333 121.847 48 121.58V121H58.52V121.58C58.0533 121.82 57.5067 121.987 56.88 122.08V133.94C57.5067 134.047 58.0533 134.207 58.52 134.42V135H53.44V134.42C53.68 134.313 53.9267 134.227 54.18 134.16C54.4333 134.08 54.6933 134.007 54.96 133.94V122.04H51.22C51.1667 124.133 51.0667 125.873 50.92 127.26C50.7867 128.633 50.6133 129.773 50.4 130.68C50.1867 131.573 49.94 132.287 49.66 132.82C49.3933 133.353 49.1 133.827 48.78 134.24C48.5133 134.587 48.1867 134.84 47.8 135C47.4133 135.16 47.04 135.24 46.68 135.24C46.5867 135.133 46.4867 134.987 46.38 134.8C46.2867 134.6 46.1933 134.393 46.1 134.18C46.02 133.953 45.9533 133.733 45.9 133.52C45.8467 133.293 45.8133 133.093 45.8 132.92L46.1 132.42L48.4 132.84C48.6 132.507 48.7933 132.067 48.98 131.52C49.18 130.973 49.3533 130.28 49.5 129.44C49.66 128.587 49.7867 127.567 49.88 126.38C49.9867 125.193 50.04 123.793 50.04 122.18ZM59.8855 125H64.1255V125.52C63.9788 125.6 63.8055 125.68 63.6055 125.76C63.4188 125.84 63.1921 125.92 62.9255 126V131.48L62.7055 133.34H62.8055L63.5855 131.84L67.8655 125H70.5655V125.52C70.1388 125.76 69.6988 125.92 69.2455 126V134.02C69.4988 134.087 69.7388 134.16 69.9655 134.24C70.1921 134.307 70.3921 134.393 70.5655 134.5V135H66.3255V134.5C66.6988 134.287 67.0988 134.127 67.5255 134.02V128.3L67.7255 126.72H67.6255L66.8655 128.22L62.6255 135H59.8855V134.5C60.1121 134.393 60.3321 134.307 60.5455 134.24C60.7588 134.16 60.9788 134.087 61.2055 134.02V126C60.6855 125.92 60.2455 125.76 59.8855 125.52V125ZM76.4316 135H72.1316V134.5C72.3182 134.393 72.5249 134.307 72.7516 134.24C72.9782 134.16 73.2116 134.087 73.4516 134.02V126C73.2116 125.933 72.9782 125.867 72.7516 125.8C72.5249 125.72 72.3182 125.627 72.1316 125.52V125H76.4316V125.52C76.1249 125.707 75.7316 125.867 75.2516 126V129.5H79.6916V126C79.2249 125.92 78.8249 125.76 78.4916 125.52V125H82.8116V125.52C82.4516 125.747 82.0116 125.907 81.4916 126V134.02C81.7316 134.073 81.9649 134.133 82.1916 134.2C82.4182 134.267 82.6249 134.367 82.8116 134.5V135H78.4916V134.5C78.8249 134.26 79.2249 134.1 79.6916 134.02V130.38H75.2516V134.02C75.5182 134.073 75.7449 134.14 75.9316 134.22C76.1182 134.3 76.2849 134.393 76.4316 134.5V135ZM91.8377 125C91.8243 125.52 91.7977 126.06 91.7577 126.62C91.731 127.18 91.6777 127.733 91.5977 128.28H91.0777L90.1977 125.88H87.4977V134.02C88.2577 134.167 88.8577 134.327 89.2977 134.5V135H84.3777V134.5C84.6043 134.367 84.8243 134.267 85.0377 134.2C85.251 134.133 85.471 134.073 85.6977 134.02V125.98C85.2043 125.9 84.7643 125.747 84.3777 125.52V125H91.8377ZM101.831 132.08C101.831 132.613 101.711 133.073 101.471 133.46C101.231 133.833 100.904 134.14 100.491 134.38C100.091 134.62 99.6243 134.8 99.0909 134.92C98.5576 135.027 97.9976 135.08 97.4109 135.08C96.9843 135.08 96.6443 135.073 96.3909 135.06C96.1376 135.06 95.9243 135.053 95.7509 135.04C95.5776 135.027 95.4309 135.013 95.3109 135C95.1909 135 95.0576 135 94.9109 135H92.9909V134.5C93.4043 134.287 93.8443 134.127 94.3109 134.02V126C93.8043 125.907 93.3643 125.747 92.9909 125.52V125H94.7909C95.1109 125 95.3843 125 95.6109 125C95.8376 124.987 96.0509 124.973 96.2509 124.96C96.4509 124.947 96.6509 124.94 96.8509 124.94C97.0509 124.927 97.2709 124.92 97.5109 124.92C98.6843 124.92 99.5976 125.1 100.251 125.46C100.904 125.807 101.231 126.42 101.231 127.3C101.231 127.62 101.164 127.907 101.031 128.16C100.898 128.413 100.724 128.633 100.511 128.82C100.298 129.007 100.058 129.167 99.7909 129.3C99.5243 129.42 99.2643 129.507 99.0109 129.56C99.3843 129.587 99.7376 129.66 100.071 129.78C100.418 129.9 100.718 130.067 100.971 130.28C101.238 130.48 101.444 130.733 101.591 131.04C101.751 131.333 101.831 131.68 101.831 132.08ZM96.1109 134.14C96.2976 134.18 96.5309 134.2 96.8109 134.2C97.1043 134.2 97.3443 134.2 97.5309 134.2C98.3176 134.2 98.9043 134.033 99.2909 133.7C99.6776 133.353 99.8709 132.867 99.8709 132.24C99.8709 131.587 99.6376 131.1 99.1709 130.78C98.7043 130.447 98.1043 130.28 97.3709 130.28H96.1109V134.14ZM96.1109 129.68L98.3309 129.48C98.5709 129.36 98.8109 129.14 99.0509 128.82C99.3043 128.487 99.4309 128.053 99.4309 127.52C99.4309 126.867 99.2309 126.42 98.8309 126.18C98.4443 125.927 97.8709 125.8 97.1109 125.8C96.9643 125.8 96.7976 125.807 96.6109 125.82C96.4243 125.82 96.2576 125.84 96.1109 125.88V129.68ZM103.557 125H107.797V125.52C107.651 125.6 107.477 125.68 107.277 125.76C107.091 125.84 106.864 125.92 106.597 126V131.48L106.377 133.34H106.477L107.257 131.84L111.537 125H114.237V125.52C113.811 125.76 113.371 125.92 112.917 126V134.02C113.171 134.087 113.411 134.16 113.637 134.24C113.864 134.307 114.064 134.393 114.237 134.5V135H109.997V134.5C110.371 134.287 110.771 134.127 111.197 134.02V128.3L111.397 126.72H111.297L110.537 128.22L106.297 135H103.557V134.5C103.784 134.393 104.004 134.307 104.217 134.24C104.431 134.16 104.651 134.087 104.877 134.02V126C104.357 125.92 103.917 125.76 103.557 125.52V125ZM123.563 133.6C123.323 134.067 122.93 134.46 122.383 134.78C121.85 135.087 121.223 135.24 120.503 135.24C119.717 135.24 119.03 135.12 118.443 134.88C117.87 134.627 117.39 134.273 117.003 133.82C116.617 133.353 116.323 132.8 116.123 132.16C115.937 131.507 115.843 130.787 115.843 130C115.843 128.307 116.257 127.013 117.083 126.12C117.91 125.213 119.037 124.76 120.463 124.76C121.117 124.76 121.697 124.82 122.203 124.94C122.723 125.047 123.163 125.193 123.523 125.38C123.483 125.82 123.41 126.313 123.303 126.86C123.197 127.407 123.063 127.86 122.903 128.22H122.363L121.523 125.84C121.43 125.773 121.323 125.727 121.203 125.7C121.083 125.66 120.883 125.64 120.603 125.64C119.697 125.64 118.997 125.973 118.503 126.64C118.01 127.293 117.763 128.407 117.763 129.98C117.763 130.487 117.83 130.98 117.963 131.46C118.11 131.94 118.323 132.373 118.603 132.76C118.897 133.133 119.257 133.433 119.683 133.66C120.123 133.887 120.63 134 121.203 134C121.67 134 122.077 133.933 122.423 133.8C122.77 133.667 123.063 133.507 123.303 133.32L123.563 133.6ZM131.207 135H126.767V134.5C127.181 134.287 127.621 134.127 128.087 134.02V125.88H126.227L125.347 128.28H124.827C124.761 127.707 124.707 127.147 124.667 126.6C124.627 126.04 124.601 125.507 124.587 125H133.387C133.374 125.48 133.347 126.007 133.307 126.58C133.281 127.14 133.227 127.707 133.147 128.28H132.627L131.747 125.88H129.887V134.02C130.514 134.18 130.954 134.34 131.207 134.5V135ZM134.729 125H138.969V125.52C138.823 125.6 138.649 125.68 138.449 125.76C138.263 125.84 138.036 125.92 137.769 126V131.48L137.549 133.34H137.649L138.429 131.84L142.709 125H145.409V125.52C144.983 125.76 144.543 125.92 144.089 126V134.02C144.343 134.087 144.583 134.16 144.809 134.24C145.036 134.307 145.236 134.393 145.409 134.5V135H141.169V134.5C141.543 134.287 141.943 134.127 142.369 134.02V128.3L142.569 126.72H142.469L141.709 128.22L137.469 135H134.729V134.5C134.956 134.393 135.176 134.307 135.389 134.24C135.603 134.16 135.823 134.087 136.049 134.02V126C135.529 125.92 135.089 125.76 134.729 125.52V125ZM146.495 125H150.795V125.52C150.662 125.613 150.495 125.707 150.295 125.8C150.095 125.88 149.869 125.947 149.615 126V128.4C149.615 129.027 149.749 129.533 150.015 129.92C150.282 130.293 150.729 130.48 151.355 130.48C151.729 130.48 152.089 130.427 152.435 130.32C152.795 130.2 153.135 130.047 153.455 129.86V126C153.055 125.92 152.662 125.76 152.275 125.52V125H156.575V125.52C156.215 125.747 155.775 125.907 155.255 126V134.02C155.522 134.087 155.762 134.16 155.975 134.24C156.189 134.307 156.389 134.393 156.575 134.5V135H151.855V134.5C152.402 134.273 152.935 134.113 153.455 134.02V130.44C153.135 130.787 152.755 131.073 152.315 131.3C151.875 131.513 151.322 131.62 150.655 131.62C149.749 131.62 149.049 131.367 148.555 130.86C148.062 130.353 147.815 129.667 147.815 128.8V126C147.309 125.907 146.869 125.747 146.495 125.52V125ZM166.268 133.6C166.161 133.827 165.994 134.04 165.768 134.24C165.541 134.44 165.281 134.613 164.988 134.76C164.694 134.907 164.374 135.02 164.028 135.1C163.681 135.193 163.328 135.24 162.968 135.24C162.181 135.24 161.488 135.12 160.888 134.88C160.288 134.627 159.788 134.273 159.388 133.82C158.988 133.353 158.681 132.8 158.468 132.16C158.268 131.52 158.168 130.8 158.168 130C158.168 128.293 158.561 126.993 159.348 126.1C160.134 125.207 161.248 124.76 162.688 124.76C163.154 124.76 163.614 124.827 164.068 124.96C164.521 125.08 164.921 125.287 165.268 125.58C165.628 125.873 165.914 126.267 166.128 126.76C166.354 127.24 166.468 127.84 166.468 128.56C166.468 128.787 166.454 129.02 166.428 129.26C166.414 129.487 166.381 129.733 166.328 130H160.088C160.088 130.56 160.154 131.087 160.288 131.58C160.434 132.06 160.648 132.48 160.928 132.84C161.208 133.2 161.561 133.487 161.988 133.7C162.414 133.9 162.914 134 163.488 134C163.954 134 164.428 133.933 164.908 133.8C165.388 133.667 165.748 133.493 165.988 133.28L166.268 133.6ZM162.608 125.64C161.848 125.64 161.268 125.9 160.868 126.42C160.468 126.927 160.228 127.827 160.148 129.12H164.548C164.561 129 164.568 128.887 164.568 128.78C164.581 128.66 164.588 128.547 164.588 128.44C164.588 127.587 164.428 126.907 164.108 126.4C163.788 125.893 163.288 125.64 162.608 125.64ZM175.946 133.6C175.706 134.067 175.313 134.46 174.766 134.78C174.233 135.087 173.606 135.24 172.886 135.24C172.1 135.24 171.413 135.12 170.826 134.88C170.253 134.627 169.773 134.273 169.386 133.82C169 133.353 168.706 132.8 168.506 132.16C168.32 131.507 168.226 130.787 168.226 130C168.226 128.307 168.64 127.013 169.466 126.12C170.293 125.213 171.42 124.76 172.846 124.76C173.5 124.76 174.08 124.82 174.586 124.94C175.106 125.047 175.546 125.193 175.906 125.38C175.866 125.82 175.793 126.313 175.686 126.86C175.58 127.407 175.446 127.86 175.286 128.22H174.746L173.906 125.84C173.813 125.773 173.706 125.727 173.586 125.7C173.466 125.66 173.266 125.64 172.986 125.64C172.08 125.64 171.38 125.973 170.886 126.64C170.393 127.293 170.146 128.407 170.146 129.98C170.146 130.487 170.213 130.98 170.346 131.46C170.493 131.94 170.706 132.373 170.986 132.76C171.28 133.133 171.64 133.433 172.066 133.66C172.506 133.887 173.013 134 173.586 134C174.053 134 174.46 133.933 174.806 133.8C175.153 133.667 175.446 133.507 175.686 133.32L175.946 133.6ZM183.223 125H187.083V125.52C186.949 125.627 186.769 125.72 186.543 125.8C186.329 125.88 186.063 125.973 185.743 126.08C185.289 126.627 184.809 127.18 184.303 127.74C183.796 128.3 183.263 128.86 182.703 129.42C182.996 129.74 183.303 130.093 183.623 130.48C183.956 130.867 184.289 131.267 184.623 131.68C184.956 132.093 185.289 132.5 185.623 132.9C185.956 133.3 186.283 133.673 186.603 134.02L187.543 134.5V135H185.203L184.563 134.54C183.963 133.82 183.416 133.1 182.923 132.38C182.429 131.66 181.929 130.953 181.423 130.26H180.623V134.02C180.889 134.087 181.129 134.16 181.343 134.24C181.569 134.307 181.763 134.393 181.923 134.5V135H177.503V134.5C177.863 134.287 178.303 134.127 178.823 134.02V126C178.356 125.907 177.916 125.747 177.503 125.52V125H181.603V125.52C181.469 125.613 181.323 125.7 181.163 125.78C181.016 125.86 180.836 125.933 180.623 126V129.74L181.543 129.54C182.076 128.927 182.583 128.353 183.063 127.82C183.543 127.287 183.989 126.707 184.403 126.08C184.176 125.987 183.963 125.9 183.763 125.82C183.576 125.727 183.396 125.627 183.223 125.52V125ZM195.743 132.38C195.743 132.673 195.75 132.927 195.763 133.14C195.776 133.353 195.79 133.58 195.803 133.82L197.183 134.02V134.44C196.85 134.613 196.476 134.767 196.063 134.9C195.663 135.033 195.276 135.133 194.903 135.2H194.403C194.27 134.893 194.19 134.56 194.163 134.2C194.136 133.827 194.116 133.42 194.103 132.98H194.003C193.95 133.247 193.843 133.52 193.683 133.8C193.536 134.067 193.336 134.307 193.083 134.52C192.843 134.733 192.556 134.907 192.223 135.04C191.89 135.173 191.51 135.24 191.083 135.24C190.27 135.24 189.603 134.993 189.083 134.5C188.576 134.007 188.323 133.36 188.323 132.56C188.323 131.947 188.443 131.447 188.683 131.06C188.936 130.66 189.303 130.347 189.783 130.12C190.263 129.893 190.856 129.733 191.563 129.64C192.27 129.533 193.09 129.453 194.023 129.4C194.076 128.827 194.09 128.313 194.063 127.86C194.05 127.393 193.976 127 193.843 126.68C193.723 126.347 193.536 126.093 193.283 125.92C193.043 125.733 192.723 125.64 192.323 125.64C192.136 125.64 191.923 125.653 191.683 125.68C191.456 125.693 191.23 125.747 191.003 125.84L190.063 128.24H189.543C189.41 127.84 189.29 127.427 189.183 127C189.09 126.573 189.03 126.153 189.003 125.74C189.51 125.433 190.07 125.193 190.683 125.02C191.31 124.847 192.003 124.76 192.763 124.76C193.443 124.76 193.983 124.86 194.383 125.06C194.796 125.247 195.11 125.493 195.323 125.8C195.536 126.107 195.676 126.447 195.743 126.82C195.81 127.193 195.843 127.567 195.843 127.94C195.843 128.74 195.823 129.513 195.783 130.26C195.756 130.993 195.743 131.7 195.743 132.38ZM191.883 134C192.216 134 192.51 133.933 192.763 133.8C193.016 133.667 193.23 133.507 193.403 133.32C193.576 133.133 193.716 132.947 193.823 132.76C193.93 132.56 194.003 132.393 194.043 132.26V130.16C193.27 130.16 192.636 130.2 192.143 130.28C191.65 130.36 191.263 130.487 190.983 130.66C190.703 130.833 190.51 131.053 190.403 131.32C190.296 131.573 190.243 131.867 190.243 132.2C190.243 132.773 190.39 133.22 190.683 133.54C190.976 133.847 191.376 134 191.883 134ZM198.921 127.94C198.921 127.487 198.994 127.073 199.141 126.7C199.287 126.327 199.514 126.007 199.821 125.74C200.141 125.473 200.541 125.267 201.021 125.12C201.514 124.96 202.107 124.88 202.801 124.88C202.961 124.88 203.181 124.887 203.461 124.9C203.754 124.913 204.061 124.927 204.381 124.94C204.701 124.953 205.007 124.967 205.301 124.98C205.607 124.993 205.847 125 206.021 125H207.461V125.52C207.354 125.613 207.201 125.7 207.001 125.78C206.814 125.86 206.527 125.933 206.141 126V134.02C206.634 134.167 207.074 134.327 207.461 134.5V135H203.161V134.5C203.334 134.393 203.514 134.307 203.701 134.24C203.901 134.16 204.114 134.087 204.341 134.02V130.64L202.881 130.84C202.601 131.307 202.287 131.873 201.941 132.54C201.594 133.193 201.121 133.86 200.521 134.54L199.901 135H197.641V134.5L198.761 134.02C199.361 133.393 199.867 132.773 200.281 132.16C200.694 131.547 201.067 131.027 201.401 130.6C201.094 130.547 200.794 130.46 200.501 130.34C200.207 130.207 199.941 130.033 199.701 129.82C199.474 129.593 199.287 129.327 199.141 129.02C198.994 128.713 198.921 128.353 198.921 127.94ZM204.341 125.88C204.167 125.853 203.941 125.827 203.661 125.8C203.394 125.773 203.167 125.76 202.981 125.76C202.154 125.747 201.581 125.94 201.261 126.34C200.954 126.727 200.801 127.24 200.801 127.88C200.801 128.533 201.041 129.073 201.521 129.5C202.014 129.913 202.774 130.12 203.801 130.12H204.341V125.88Z" fill="#141423"/>
</svg>
