<svg width="225" height="127" viewBox="0 0 225 127" fill="none" xmlns="http://www.w3.org/2000/svg">
<path d="M125.76 50.0741C122.273 46.5903 118.133 43.8266 113.577 41.9412C109.021 40.0557 104.138 39.0853 99.2064 39.0853C94.2748 39.0853 89.3917 40.0557 84.8355 41.9412C80.2795 43.8266 76.1396 46.5903 72.6525 50.0741L99.2064 76.6032L125.76 50.0741Z" fill="#FFD200"/>
<path d="M99.2397 76.6413C102.727 80.1252 106.867 82.8887 111.423 84.7742C115.979 86.6596 120.862 87.63 125.794 87.63C130.725 87.63 135.609 86.6596 140.165 84.7742C144.721 82.8887 148.861 80.1252 152.348 76.6413L125.794 50.1122L99.2397 76.6413Z" fill="#06E07F"/>
<path d="M99.1742 76.6355C95.687 80.1193 91.5472 82.8829 86.9911 84.7683C82.4349 86.6537 77.5518 87.6241 72.6202 87.6241C67.6887 87.6241 62.8055 86.6537 58.2493 84.7683C53.6933 82.8829 49.5534 80.1193 46.0663 76.6355L72.6202 50.1063L99.1742 76.6355Z" fill="#E3073C"/>
<path d="M125.826 50.0799C129.313 46.596 133.453 43.8325 138.009 41.947C142.565 40.0616 147.449 39.0912 152.38 39.0912C157.312 39.0912 162.194 40.0616 166.75 41.947C171.306 43.8325 175.447 46.596 178.933 50.0799L152.38 76.609L125.826 50.0799Z" fill="#1F84EF"/>
</svg>
