<svg width="134" height="45" viewBox="0 0 134 45" fill="none" xmlns="http://www.w3.org/2000/svg">
<path d="M22.5 5.625V39.375" stroke="#141423" stroke-width="2" stroke-linecap="round" stroke-linejoin="round"/>
<path d="M16.875 39.375H28.125" stroke="#141423" stroke-width="2" stroke-linecap="round" stroke-linejoin="round"/>
<path d="M15.1948 42.0779H30.3896" stroke="#141423" stroke-width="2" stroke-linecap="round" stroke-linejoin="round"/>
<path d="M6.25713 12.9032L12.1798 13.1829L21.9917 6.5232L33.8371 7.08262L38.743 3.75279" stroke="#141423" stroke-width="2" stroke-linecap="round" stroke-linejoin="round"/>
<path d="M11.25 13.125L5.625 30C7.24778 31.2171 9.22153 31.875 11.25 31.875C13.2785 31.875 15.2522 31.2171 16.875 30L11.25 13.125Z" stroke="#141423" stroke-width="2" stroke-linecap="round" stroke-linejoin="round"/>
<path d="M33.75 7.28101L28.125 24.156C29.7478 25.3731 31.7215 26.031 33.75 26.031C35.7785 26.031 37.7522 25.3731 39.375 24.156L33.75 7.28101Z" stroke="#141423" stroke-width="2" stroke-linecap="round" stroke-linejoin="round"/>
<path d="M58.34 34.12C57.7 34.12 57.0733 34.0467 56.46 33.9C55.8467 33.7533 55.2733 33.54 54.74 33.26C54.2067 32.98 53.7333 32.64 53.32 32.24C52.92 31.8267 52.6067 31.3533 52.38 30.82L54.64 29.52C54.8133 29.9067 55.0333 30.24 55.3 30.52C55.58 30.7867 55.88 31.0067 56.2 31.18C56.5333 31.3533 56.8733 31.48 57.22 31.56C57.58 31.64 57.9267 31.68 58.26 31.68C58.8333 31.68 59.3533 31.58 59.82 31.38C60.3 31.18 60.7133 30.9067 61.06 30.56C61.42 30.2133 61.7133 29.8067 61.94 29.34C62.18 28.8733 62.34 28.38 62.42 27.86H56.66V25.64H62.36C62.2667 25.1867 62.1133 24.7533 61.9 24.34C61.6867 23.9133 61.4133 23.54 61.08 23.22C60.7467 22.9 60.3467 22.6467 59.88 22.46C59.4267 22.26 58.9 22.16 58.3 22.16C57.98 22.16 57.6467 22.2 57.3 22.28C56.9533 22.3467 56.62 22.46 56.3 22.62C55.98 22.78 55.68 23 55.4 23.28C55.12 23.5467 54.8933 23.88 54.72 24.28L52.6 22.82C53.0667 21.9 53.7667 21.1533 54.7 20.58C55.6467 20.0067 56.82 19.72 58.22 19.72C59.3667 19.72 60.38 19.9267 61.26 20.34C62.14 20.7533 62.88 21.2933 63.48 21.96C64.08 22.6267 64.5333 23.3867 64.84 24.24C65.16 25.08 65.32 25.9333 65.32 26.8C65.32 27.7067 65.1533 28.6 64.82 29.48C64.4867 30.3467 64.0133 31.1267 63.4 31.82C62.7867 32.5 62.0533 33.0533 61.2 33.48C60.3467 33.9067 59.3933 34.12 58.34 34.12ZM73.6448 23.52H76.5248L72.4448 28.6L76.8448 34H73.8048L70.5648 29.96H69.8648V34H67.2248V23.52H69.8648V27.68H70.4648L73.6448 23.52ZM76.9155 28.76C76.9155 28.0267 77.0421 27.3333 77.2955 26.68C77.5488 26.0267 77.9155 25.4533 78.3955 24.96C78.8755 24.4667 79.4555 24.0733 80.1355 23.78C80.8155 23.4867 81.5821 23.34 82.4355 23.34C83.5821 23.34 84.5555 23.5867 85.3555 24.08C86.1688 24.5733 86.7755 25.22 87.1755 26.02L84.5555 26.82C84.3288 26.4333 84.0288 26.14 83.6555 25.94C83.2821 25.7267 82.8688 25.62 82.4155 25.62C82.0288 25.62 81.6688 25.7 81.3355 25.86C81.0021 26.0067 80.7088 26.22 80.4555 26.5C80.2155 26.7667 80.0221 27.0933 79.8755 27.48C79.7421 27.8667 79.6755 28.2933 79.6755 28.76C79.6755 29.2267 79.7488 29.6533 79.8955 30.04C80.0421 30.4267 80.2355 30.76 80.4755 31.04C80.7288 31.32 81.0221 31.54 81.3555 31.7C81.6888 31.8467 82.0421 31.92 82.4155 31.92C82.8955 31.92 83.3355 31.8 83.7355 31.56C84.1488 31.32 84.4355 31.0267 84.5955 30.68L87.2155 31.48C86.8555 32.28 86.2621 32.9333 85.4355 33.44C84.6088 33.9467 83.6155 34.2 82.4555 34.2C81.6021 34.2 80.8355 34.0533 80.1555 33.76C79.4755 33.4667 78.8955 33.0733 78.4155 32.58C77.9355 32.0733 77.5621 31.4933 77.2955 30.84C77.0421 30.1733 76.9155 29.48 76.9155 28.76ZM98.0845 34H95.4245V25.84H91.5645V34H88.9045V23.52H98.0845V34ZM105.404 34.2C104.564 34.2 103.804 34.06 103.124 33.78C102.444 33.4867 101.864 33.0933 101.384 32.6C100.904 32.1067 100.531 31.5333 100.264 30.88C100.011 30.2267 99.8842 29.54 99.8842 28.82C99.8842 28.0733 100.011 27.3733 100.264 26.72C100.518 26.0533 100.884 25.4733 101.364 24.98C101.844 24.4733 102.424 24.0733 103.104 23.78C103.798 23.4867 104.571 23.34 105.424 23.34C106.278 23.34 107.038 23.4867 107.704 23.78C108.384 24.0733 108.958 24.4667 109.424 24.96C109.904 25.4533 110.264 26.0267 110.504 26.68C110.758 27.3333 110.884 28.0133 110.884 28.72C110.884 28.8933 110.878 29.06 110.864 29.22C110.864 29.38 110.851 29.5133 110.824 29.62H102.724C102.764 30.0333 102.864 30.4 103.024 30.72C103.184 31.04 103.391 31.3133 103.644 31.54C103.898 31.7667 104.184 31.94 104.504 32.06C104.824 32.18 105.158 32.24 105.504 32.24C106.038 32.24 106.538 32.1133 107.004 31.86C107.484 31.5933 107.811 31.2467 107.984 30.82L110.284 31.46C109.898 32.26 109.278 32.92 108.424 33.44C107.584 33.9467 106.578 34.2 105.404 34.2ZM108.124 27.88C108.058 27.0933 107.764 26.4667 107.244 26C106.738 25.52 106.118 25.28 105.384 25.28C105.024 25.28 104.684 25.3467 104.364 25.48C104.058 25.6 103.784 25.7733 103.544 26C103.304 26.2267 103.104 26.5 102.944 26.82C102.798 27.14 102.711 27.4933 102.684 27.88H108.124ZM118.837 34.2C118.01 34.2 117.29 34.02 116.677 33.66C116.064 33.2867 115.584 32.7867 115.237 32.16V38.26H112.557V23.52H114.897V25.32C115.284 24.7067 115.784 24.2267 116.397 23.88C117.01 23.52 117.717 23.34 118.517 23.34C119.224 23.34 119.877 23.4867 120.477 23.78C121.077 24.06 121.59 24.4467 122.017 24.94C122.457 25.42 122.797 25.9933 123.037 26.66C123.29 27.3133 123.417 28.0067 123.417 28.74C123.417 29.5 123.304 30.2133 123.077 30.88C122.85 31.5467 122.53 32.1267 122.117 32.62C121.717 33.1133 121.237 33.5 120.677 33.78C120.117 34.06 119.504 34.2 118.837 34.2ZM117.937 31.92C118.337 31.92 118.704 31.8333 119.037 31.66C119.384 31.4867 119.677 31.2533 119.917 30.96C120.157 30.6667 120.344 30.3267 120.477 29.94C120.61 29.5533 120.677 29.1533 120.677 28.74C120.677 28.3 120.604 27.8933 120.457 27.52C120.31 27.1333 120.104 26.8 119.837 26.52C119.584 26.24 119.277 26.02 118.917 25.86C118.57 25.7 118.19 25.62 117.777 25.62C117.524 25.62 117.264 25.6667 116.997 25.76C116.73 25.84 116.484 25.96 116.257 26.12C116.03 26.28 115.824 26.4667 115.637 26.68C115.464 26.8933 115.33 27.1267 115.237 27.38V29.84C115.477 30.44 115.844 30.94 116.337 31.34C116.83 31.7267 117.364 31.92 117.937 31.92ZM129.764 34H127.104V25.84H123.824V23.52H133.024V25.84H129.764V34Z" fill="#141423"/>
</svg>
