<svg width="228" height="128" viewBox="0 0 228 128" fill="none" xmlns="http://www.w3.org/2000/svg">
<path d="M13.3726 38.4602V83.84H216.749V38.4602H13.3726ZM214.184 81.28H110.301V41.0202H214.184V81.28Z" fill="#141423"/>
<path d="M24.1829 68.7527V53.6653H29.4001V64.7347H38.6033V68.7527H24.1829Z" fill="white"/>
<path d="M59.172 61.1034C59.172 65.9072 56.1684 68.9831 49.0236 68.9831C42.5342 68.9831 38.856 66.3309 38.856 61.1034C38.856 56.4711 42.3623 53.3197 49.0236 53.3197C55.7888 53.3197 59.172 56.2215 59.172 61.1034ZM53.9343 61.161C53.9343 58.985 53.0288 57.2403 49.0044 57.2403C45.3262 57.2403 44.1309 58.7968 44.1309 61.161C44.1309 63.5635 45.2274 65.12 49.021 65.12C52.839 65.12 53.9343 63.4675 53.9343 61.161Z" fill="white"/>
<path d="M75.311 68.7526L75.1763 67.2909C73.4311 68.5341 71.3067 69.1323 69.1678 68.983C65.9526 68.983 63.2747 68.0218 61.7729 66.0813C60.7824 64.6646 60.2821 62.964 60.3481 61.2378C60.2918 59.5477 60.8093 57.8883 61.8165 56.5286C63.3363 54.6458 66.0911 53.3965 70.1925 53.3965C74.9108 53.3965 77.6836 54.8378 78.8763 57.2595C79.1324 57.8298 79.2827 58.4418 79.3201 59.0656H74.3286C74.2028 58.6865 73.9688 58.3524 73.6553 58.1043C72.661 57.4465 71.4737 57.1421 70.2849 57.2403C69.5876 57.156 68.8802 57.2203 68.2097 57.429C67.5392 57.6377 66.9206 57.9862 66.395 58.4512C65.7982 59.2666 65.518 60.2703 65.6063 61.2762C65.5371 62.2358 65.7947 63.1907 66.3373 63.9859C66.8678 64.4791 67.4982 64.8527 68.1859 65.0815C68.8736 65.3102 69.6025 65.3889 70.3233 65.312C71.7551 65.4282 73.1764 64.9875 74.2901 64.0819C74.5294 63.7834 74.6942 63.4325 74.771 63.0579H69.3999V59.8157H79.4509V68.7526H75.311Z" fill="white"/>
<path d="M101.23 61.1034C101.23 65.9072 98.2252 68.9831 91.0817 68.9831C84.5923 68.9831 80.9141 66.3309 80.9141 61.1034C80.9141 56.4711 84.4204 53.3197 91.0817 53.3197C97.8418 53.3197 101.23 56.2215 101.23 61.1034ZM95.9924 61.161C95.9924 58.985 95.0869 57.2403 91.0625 57.2403C87.3843 57.2403 86.189 58.7968 86.189 61.161C86.189 63.5635 87.2868 65.12 91.0791 65.12C94.8959 65.12 95.9924 63.4675 95.9924 61.161Z" fill="white"/>
<path d="M119.089 68.695V53.6077H122.808V68.695H119.089Z" fill="#141423"/>
<path d="M141.907 62.3911C140.965 63.6212 139.342 64.1831 137.055 64.1972C136.573 64.1972 130.18 64.178 130.18 64.178V68.6951H126.54V53.6077H137.057C137.9 53.5188 138.752 53.608 139.558 53.8695C140.364 54.1311 141.106 54.5592 141.735 55.1258C142.566 56.2064 142.97 57.5537 142.872 58.9121C142.956 60.1475 142.616 61.3749 141.907 62.3911ZM138.923 57.4721C138.538 56.8961 137.708 56.5761 136.304 56.5761H130.161V61.1687H136.264C137.766 61.1687 138.557 60.8615 138.923 60.265C139.14 59.8448 139.234 59.3716 139.192 58.9005C139.225 58.4093 139.132 57.9179 138.923 57.4721Z" fill="#141423"/>
<path d="M153.597 68.9254C146.741 68.9254 144.643 66.3654 144.643 63.8322H148.533C148.533 65.0815 150.246 66.0236 153.77 66.0236C157.274 66.0236 158.199 65.4079 158.199 64.4082C158.199 63.2934 157.506 62.9478 154.251 62.583C153.61 62.5254 151.865 62.3142 151.209 62.2182C146.592 61.6985 144.815 60.334 144.815 57.893C144.815 55.3177 147.416 53.3772 153.057 53.3772C159.181 53.3772 161.531 55.7798 161.531 58.2783H157.683C157.683 57.0098 156.239 56.279 152.83 56.279C149.325 56.279 148.575 56.759 148.575 57.701C148.575 58.6815 149.344 58.9887 153.064 59.4303C153.911 59.5468 155.798 59.758 156.317 59.8143C160.247 60.2175 162.018 61.6396 162.018 64.1574C162.012 67.1564 159.316 68.9254 153.597 68.9254Z" fill="#141423"/>
<path d="M172.971 68.9062C167.946 68.9062 164.672 66.9261 164.672 62.7622V53.6077H168.349V62.8134C168.349 64.7168 169.909 65.984 173.125 65.984C176.032 65.984 177.766 64.7936 177.766 62.8134V53.6077H181.406V63.104C181.406 66.8889 178.362 68.9062 172.971 68.9062Z" fill="#141423"/>
<path d="M201.336 68.695V58.624L196.617 68.695H193.037L188.453 58.624V68.695H184.99V53.6077H189.682L194.881 65.1008L200.196 53.6077H204.813V68.695H201.336Z" fill="#141423"/>
</svg>
