<svg width="228" height="128" viewBox="0 0 228 128" fill="none" xmlns="http://www.w3.org/2000/svg">
<path d="M87.055 73.4592C86.2922 73.5005 85.5377 73.2841 84.9133 72.8448C84.6523 72.6518 84.4424 72.3982 84.3017 72.1061C84.1609 71.814 84.0935 71.492 84.1053 71.168V59.3024C84.0991 59.2522 84.1044 59.2012 84.1209 59.1533C84.1374 59.1055 84.1646 59.062 84.2004 59.0262C84.2363 58.9904 84.2799 58.9632 84.3278 58.9468C84.3758 58.9303 84.4269 58.925 84.4772 58.9312H86.6318C86.8755 58.9312 86.9909 59.0592 86.9909 59.3024V70.2464C86.9909 70.7328 87.2089 70.976 87.6578 70.976C87.8481 70.9839 88.0384 70.9623 88.2221 70.912C88.4786 70.912 88.6197 70.9888 88.6325 71.2192L88.8249 72.8192C88.8341 72.8659 88.8332 72.914 88.8223 72.9602C88.8113 73.0065 88.7906 73.0499 88.7614 73.0875C88.7322 73.1251 88.6953 73.1561 88.6532 73.1782C88.611 73.2004 88.5646 73.2133 88.5171 73.216C88.0451 73.3716 87.552 73.4536 87.055 73.4592Z" fill="#141423"/>
<path d="M99.1744 72.0896C98.0918 72.9824 96.7313 73.4707 95.327 73.4707C93.9226 73.4707 92.5622 72.9824 91.4795 72.0896C90.528 71.1309 89.9941 69.8359 89.9941 68.4864C89.9941 67.1369 90.528 65.842 91.4795 64.8832C92.5643 63.9951 93.9239 63.5096 95.327 63.5096C96.73 63.5096 98.0897 63.9951 99.1744 64.8832C100.104 65.8508 100.623 67.1395 100.623 68.48C100.623 69.8206 100.104 71.1092 99.1744 72.0768V72.0896ZM93.5059 70.4C94.0083 70.8542 94.6619 71.1058 95.3398 71.1058C96.0177 71.1058 96.6714 70.8542 97.1738 70.4C97.6285 69.8782 97.8789 69.21 97.8789 68.5184C97.8789 67.8269 97.6285 67.1586 97.1738 66.6368C96.6714 66.1826 96.0177 65.931 95.3398 65.931C94.6619 65.931 94.0083 66.1826 93.5059 66.6368C93.0511 67.1586 92.8007 67.8269 92.8007 68.5184C92.8007 69.21 93.0511 69.8782 93.5059 70.4Z" fill="#141423"/>
<path d="M112.487 63.8336C112.73 63.8336 112.846 63.9616 112.846 64.2048V73.3824C112.868 74.0018 112.752 74.6184 112.506 75.1875C112.26 75.7565 111.889 76.2636 111.422 76.672C110.385 77.5545 109.052 78.0119 107.69 77.952C106.461 77.9951 105.247 77.66 104.215 76.992C103.774 76.703 103.397 76.3266 103.108 75.8862C102.819 75.4459 102.624 74.9509 102.535 74.432C102.535 74.176 102.535 74.0608 102.881 74.0608H105.036C105.127 74.0639 105.216 74.0933 105.291 74.1456C105.366 74.1978 105.424 74.2706 105.459 74.3552C105.599 74.7439 105.877 75.0676 106.241 75.264C106.685 75.4924 107.178 75.6068 107.677 75.5968C107.979 75.6133 108.28 75.5697 108.564 75.4686C108.848 75.3675 109.109 75.2109 109.332 75.008C109.535 74.7957 109.694 74.5445 109.797 74.2695C109.901 73.9946 109.948 73.7015 109.935 73.408V72.6016C109.163 73.1679 108.224 73.4607 107.267 73.4336C106.597 73.4579 105.929 73.3469 105.303 73.1071C104.677 72.8673 104.106 72.5038 103.625 72.0384C102.7 71.0837 102.183 69.8078 102.183 68.48C102.183 67.1522 102.7 65.8763 103.625 64.9216C104.109 64.4603 104.68 64.1003 105.306 63.8628C105.931 63.6254 106.598 63.5154 107.267 63.5392C108.252 63.5132 109.216 63.825 109.999 64.4224V64.2176C109.993 64.1685 109.998 64.1188 110.014 64.072C110.03 64.0251 110.056 63.9824 110.09 63.9469C110.124 63.9113 110.166 63.8839 110.213 63.8665C110.259 63.8491 110.309 63.8422 110.358 63.8464L112.487 63.8336ZM107.511 71.1552C107.841 71.1654 108.17 71.1031 108.473 70.9726C108.777 70.8421 109.048 70.6466 109.268 70.4C109.694 69.8504 109.925 69.1751 109.925 68.48C109.925 67.7849 109.694 67.1096 109.268 66.56C109.049 66.3167 108.779 66.1242 108.478 65.9959C108.177 65.8677 107.851 65.8068 107.524 65.8176C107.189 65.8071 106.857 65.8692 106.549 65.9996C106.241 66.13 105.966 66.3256 105.741 66.5728C105.269 67.0985 105.02 67.7872 105.048 68.4928C105.025 69.1914 105.268 69.8729 105.728 70.4C105.953 70.6465 106.229 70.8417 106.537 70.972C106.844 71.1023 107.177 71.1648 107.511 71.1552Z" fill="#141423"/>
<path d="M123.914 72.0897C122.829 72.9778 121.469 73.4632 120.066 73.4632C118.663 73.4632 117.303 72.9778 116.219 72.0897C115.288 71.1199 114.769 69.8291 114.769 68.4865C114.769 67.1438 115.288 65.853 116.219 64.8833C117.304 63.9974 118.664 63.5134 120.066 63.5134C121.469 63.5134 122.828 63.9974 123.914 64.8833C124.843 65.8508 125.362 67.1395 125.362 68.4801C125.362 69.8206 124.843 71.1093 123.914 72.0769V72.0897ZM118.232 70.4001C118.478 70.6335 118.768 70.8159 119.085 70.9368C119.402 71.0576 119.74 71.1145 120.079 71.104C120.416 71.1128 120.751 71.0551 121.066 70.9343C121.381 70.8135 121.669 70.6319 121.913 70.4001C122.36 69.8747 122.606 69.2078 122.606 68.5185C122.606 67.8291 122.36 67.1622 121.913 66.6369C121.669 66.405 121.381 66.2234 121.066 66.1026C120.751 65.9818 120.416 65.9241 120.079 65.9329C119.74 65.9224 119.402 65.9793 119.085 66.1001C118.768 66.221 118.478 66.4034 118.232 66.6369C117.785 67.1622 117.539 67.8291 117.539 68.5185C117.539 69.2078 117.785 69.8747 118.232 70.4001Z" fill="#141423"/>
<path d="M129.993 61.6576C129.654 61.9538 129.218 62.117 128.768 62.117C128.317 62.117 127.882 61.9538 127.543 61.6576C127.389 61.5128 127.267 61.3382 127.183 61.1446C127.1 60.9509 127.056 60.7421 127.056 60.5312C127.056 60.3203 127.1 60.1116 127.183 59.9179C127.267 59.7242 127.389 59.5496 127.543 59.4048C127.886 59.1161 128.32 58.9576 128.768 58.9576C129.216 58.9576 129.65 59.1161 129.993 59.4048C130.146 59.5496 130.269 59.7242 130.353 59.9179C130.436 60.1116 130.479 60.3203 130.479 60.5312C130.479 60.7421 130.436 60.9509 130.353 61.1446C130.269 61.3382 130.146 61.5128 129.993 61.6576ZM130.262 73.4592C129.5 73.4965 128.746 73.2804 128.12 72.8448C127.863 72.6489 127.657 72.3945 127.519 72.1028C127.38 71.8111 127.314 71.4905 127.325 71.168V64.2048C127.319 64.1546 127.324 64.1036 127.341 64.0557C127.357 64.0078 127.384 63.9643 127.42 63.9286C127.456 63.8928 127.5 63.8656 127.548 63.8492C127.596 63.8327 127.647 63.8274 127.697 63.8336H129.852C130.095 63.8336 130.211 63.9616 130.211 64.2048V70.2464C130.211 70.7328 130.429 70.976 130.865 70.976C131.059 70.983 131.254 70.9614 131.442 70.912C131.698 70.912 131.839 70.9888 131.852 71.2192L132.045 72.8192C132.054 72.8659 132.053 72.9139 132.042 72.9602C132.031 73.0065 132.01 73.0499 131.981 73.0875C131.952 73.1251 131.915 73.156 131.873 73.1782C131.831 73.2004 131.784 73.2133 131.737 73.216C131.261 73.3725 130.763 73.4545 130.262 73.4592Z" fill="#141423"/>
<path d="M139.97 63.5264C140.643 63.4999 141.315 63.6086 141.945 63.8461C142.575 64.0835 143.151 64.4449 143.638 64.9088C144.545 65.8803 145.049 67.1587 145.049 68.4864C145.049 69.8142 144.545 71.0926 143.638 72.064C143.153 72.532 142.578 72.897 141.948 73.1368C141.317 73.3766 140.645 73.4863 139.97 73.4592C139.01 73.4806 138.069 73.1884 137.29 72.6272V77.248C137.29 77.4912 137.162 77.6064 136.918 77.6064H134.764C134.714 77.6156 134.664 77.6127 134.616 77.5979C134.568 77.5831 134.525 77.557 134.489 77.5217C134.454 77.4864 134.428 77.443 134.413 77.3953C134.398 77.3477 134.395 77.2971 134.404 77.248V66.752C134.42 66.6494 134.41 66.5446 134.378 66.4461C134.345 66.3476 134.29 66.2581 134.216 66.1847C134.143 66.1114 134.053 66.0562 133.954 66.0235C133.856 65.9909 133.751 65.9818 133.648 65.9968H133.225C132.942 65.9968 132.801 65.8944 132.801 65.6896V64.1792C132.795 64.0858 132.82 63.9929 132.874 63.916C132.928 63.8391 133.006 63.783 133.096 63.7568C133.54 63.5959 134.009 63.5178 134.481 63.5264C134.952 63.4849 135.424 63.5845 135.838 63.8125C136.252 64.0406 136.587 64.3866 136.803 64.8064C137.216 64.3894 137.71 64.0608 138.254 63.8407C138.799 63.6206 139.383 63.5137 139.97 63.5264ZM137.97 70.4C138.198 70.6386 138.473 70.8284 138.777 70.9581C139.081 71.0877 139.409 71.1546 139.74 71.1546C140.07 71.1546 140.398 71.0877 140.702 70.9581C141.006 70.8284 141.281 70.6386 141.509 70.4C141.991 69.8638 142.244 69.1612 142.215 68.4416C142.248 67.7214 141.995 67.0173 141.509 66.4832C141.281 66.2447 141.006 66.0549 140.702 65.9252C140.398 65.7955 140.07 65.7287 139.74 65.7287C139.409 65.7287 139.081 65.7955 138.777 65.9252C138.473 66.0549 138.198 66.2447 137.97 66.4832C137.503 67.0267 137.26 67.7265 137.29 68.4416C137.264 69.1562 137.506 69.8547 137.97 70.4Z" fill="#141423"/>
<path d="M151.102 73.4591C149.951 73.5064 148.809 73.2315 147.806 72.6655C147.404 72.4236 147.061 72.0943 146.804 71.7021C146.546 71.3099 146.38 70.8648 146.319 70.3999C146.319 70.1439 146.408 70.0159 146.691 70.0159H148.576C148.665 70.0194 148.752 70.0476 148.827 70.0973C148.902 70.1469 148.961 70.2162 148.999 70.2975C149.268 70.9887 149.974 71.3343 151.102 71.3343C151.496 71.3523 151.888 71.2732 152.244 71.1039C152.366 71.0486 152.472 70.961 152.549 70.8506C152.625 70.7401 152.671 70.6109 152.68 70.4767C152.68 70.1439 152.475 69.9135 152.064 69.7599C151.577 69.5982 151.074 69.4909 150.564 69.4399C149.959 69.3716 149.359 69.2647 148.768 69.1199C148.193 68.9901 147.671 68.6914 147.268 68.2623C147.03 67.9707 146.856 67.6335 146.754 67.2716C146.653 66.9097 146.628 66.5309 146.679 66.1587C146.731 65.7865 146.859 65.429 147.055 65.1082C147.251 64.7875 147.511 64.5104 147.819 64.2943C148.743 63.7066 149.828 63.4203 150.923 63.4751C151.983 63.4394 153.031 63.701 153.949 64.2303C154.319 64.4395 154.638 64.7285 154.882 65.0761C155.126 65.4238 155.289 65.8213 155.36 66.2399C155.36 66.4959 155.245 66.6239 155.014 66.6239H153.116C153.036 66.6287 152.956 66.6092 152.888 66.5681C152.819 66.527 152.764 66.4661 152.731 66.3935C152.604 66.0904 152.365 65.8475 152.064 65.7151C151.724 65.5376 151.345 65.4495 150.961 65.4591C150.585 65.4387 150.21 65.5136 149.871 65.6767C149.752 65.7227 149.649 65.8034 149.575 65.9084C149.502 66.0133 149.462 66.1377 149.461 66.2655C149.469 66.4406 149.533 66.6084 149.644 66.7443C149.755 66.8802 149.906 66.9771 150.076 67.0207C150.569 67.206 151.081 67.3348 151.602 67.4047C152.202 67.4835 152.797 67.5946 153.385 67.7375C153.96 67.8674 154.482 68.1661 154.886 68.5951C155.101 68.8315 155.268 69.1082 155.376 69.4092C155.484 69.7102 155.531 70.0295 155.514 70.3487C155.525 70.7912 155.421 71.229 155.212 71.6193C155.003 72.0097 154.696 72.3393 154.321 72.5759C153.363 73.1899 152.24 73.4979 151.102 73.4591Z" fill="#141423"/>
<path d="M169.07 72.8192C169.077 72.8647 169.075 72.9111 169.064 72.9558C169.053 73.0005 169.033 73.0426 169.006 73.0795C168.979 73.1165 168.944 73.1476 168.904 73.1711C168.865 73.1945 168.821 73.2098 168.775 73.216C168.307 73.3686 167.818 73.4506 167.326 73.4592C166.838 73.5096 166.346 73.4336 165.897 73.2385C165.447 73.0434 165.056 72.7359 164.761 72.3456C163.855 73.123 162.683 73.5218 161.49 73.4592C160.936 73.4847 160.383 73.3942 159.866 73.1936C159.35 72.993 158.881 72.6867 158.489 72.2944C158.101 71.8834 157.8 71.3983 157.603 70.8682C157.407 70.3381 157.32 69.774 157.348 69.2096V64.2048C157.348 63.9616 157.463 63.8336 157.707 63.8336H159.862C160.105 63.8336 160.221 63.9616 160.221 64.2048V68.8256C160.197 69.4013 160.395 69.9643 160.772 70.4C160.961 70.5996 161.19 70.7566 161.444 70.8604C161.699 70.9642 161.972 71.0123 162.247 71.0016C162.528 71.0139 162.809 70.9704 163.073 70.8738C163.337 70.7771 163.58 70.6291 163.786 70.4384C163.982 70.2374 164.134 69.9985 164.233 69.7365C164.332 69.4745 164.376 69.195 164.363 68.9152V64.2048C164.363 63.9616 164.479 63.8336 164.722 63.8336H166.902C167.146 63.8336 167.262 63.9616 167.262 64.2048V70.2336C167.262 70.7328 167.48 70.976 167.903 70.976C168.102 70.9837 168.3 70.9621 168.493 70.912C168.541 70.8985 168.592 70.896 168.642 70.9049C168.691 70.9138 168.738 70.9338 168.779 70.9633C168.82 70.9929 168.853 71.0313 168.877 71.0756C168.901 71.1199 168.914 71.169 168.916 71.2192L169.07 72.8192Z" fill="#141423"/>
<path d="M189.449 72.8191C189.46 72.865 189.461 72.9128 189.452 72.9591C189.443 73.0054 189.423 73.0491 189.395 73.087C189.367 73.1249 189.33 73.1562 189.289 73.1785C189.247 73.2007 189.201 73.2135 189.154 73.2159C188.677 73.3707 188.18 73.4526 187.679 73.4591C186.916 73.4984 186.162 73.2821 185.537 72.8447C185.267 72.6573 185.047 72.4063 184.897 72.1138C184.747 71.8213 184.672 71.4964 184.678 71.1679V68.1599C184.705 67.5859 184.512 67.0232 184.139 66.5855C183.959 66.3855 183.737 66.2277 183.489 66.1237C183.24 66.0197 182.972 65.9719 182.703 65.9839C182.46 65.9748 182.219 66.0207 181.997 66.1183C181.774 66.2158 181.577 66.3625 181.42 66.5471C181.082 66.976 180.909 67.512 180.933 68.0575V72.7807C180.933 73.0239 180.817 73.1519 180.574 73.1519H178.406C178.356 73.1582 178.305 73.1528 178.257 73.1364C178.209 73.1199 178.165 73.0928 178.13 73.057C178.094 73.0212 178.067 72.9777 178.05 72.9298C178.034 72.882 178.028 72.831 178.034 72.7807V68.1599C178.062 67.5922 177.885 67.0334 177.534 66.5855C177.378 66.3974 177.182 66.2459 176.96 66.142C176.739 66.038 176.497 65.984 176.252 65.9839C175.99 65.9734 175.729 66.0181 175.486 66.1152C175.243 66.2122 175.023 66.3594 174.841 66.5471C174.474 66.9624 174.285 67.5047 174.315 68.0575V72.7807C174.321 72.831 174.316 72.882 174.3 72.9298C174.283 72.9777 174.256 73.0212 174.22 73.057C174.184 73.0928 174.141 73.1199 174.093 73.1364C174.045 73.1528 173.994 73.1582 173.943 73.1519H171.853C171.609 73.1519 171.494 73.0239 171.494 72.7807V66.7519C171.509 66.6493 171.5 66.5445 171.467 66.446C171.434 66.3475 171.379 66.258 171.306 66.1846C171.232 66.1112 171.142 66.056 171.044 66.0234C170.945 65.9908 170.84 65.9817 170.737 65.9967H170.314C170.032 65.9967 169.891 65.8943 169.891 65.6895V64.1791C169.884 64.0857 169.91 63.9928 169.963 63.9159C170.017 63.839 170.095 63.7828 170.186 63.7567C170.629 63.5958 171.099 63.5177 171.571 63.5263C172.024 63.4878 172.479 63.5779 172.882 63.7863C173.286 63.9947 173.623 64.3128 173.854 64.7039C174.286 64.2946 174.799 63.9788 175.359 63.7762C175.92 63.5736 176.516 63.4885 177.111 63.5263C177.689 63.4982 178.265 63.6064 178.793 63.8421C179.321 64.0778 179.786 64.4345 180.151 64.8831C180.575 64.4227 181.097 64.0622 181.678 63.8275C182.259 63.5929 182.885 63.49 183.511 63.5263C184.07 63.5002 184.63 63.5902 185.153 63.7907C185.676 63.9912 186.152 64.2978 186.55 64.6911C186.94 65.1013 187.242 65.5863 187.438 66.1166C187.634 66.6469 187.721 67.2114 187.692 67.7759V70.2463C187.692 70.7327 187.91 70.9759 188.32 70.9759C188.519 70.9852 188.718 70.9636 188.91 70.9119C189.175 70.9119 189.316 71.0143 189.333 71.2191L189.449 72.8191Z" fill="#141423"/>
<path d="M39.0644 62.1696C40.0106 58.374 42.2019 55.0034 45.2894 52.5946C48.377 50.1858 52.1833 48.8772 56.1022 48.8772C60.0211 48.8772 63.8274 50.1858 66.9149 52.5946C70.0025 55.0034 72.1938 58.374 73.14 62.1696H71.601C69.0049 62.1315 66.4619 62.9059 64.3293 64.384C64.2063 64.473 64.0778 64.5542 63.9446 64.6272H63.765C63.6319 64.5542 63.5034 64.473 63.3803 64.384C61.2288 62.9401 58.6949 62.1689 56.1022 62.1689C53.5095 62.1689 50.9756 62.9401 48.8241 64.384C48.701 64.473 48.5725 64.5542 48.4394 64.6272H48.2598C48.1266 64.5542 47.9981 64.473 47.8751 64.384C45.7425 62.9059 43.1995 62.1315 40.6034 62.1696H39.0644ZM68.8308 70.1952C69.6209 69.5812 70.6 69.2599 71.601 69.2864H73.6658V65.1776H71.601C69.8379 65.1563 68.1151 65.7041 66.6891 66.7392C65.8867 67.3297 64.9159 67.6482 63.9189 67.6482C62.922 67.6482 61.9512 67.3297 61.1488 66.7392C59.6866 65.7234 57.9478 65.1788 56.1663 65.1788C54.3848 65.1788 52.646 65.7234 51.1839 66.7392C50.3814 67.3297 49.4107 67.6482 48.4137 67.6482C47.4168 67.6482 46.446 67.3297 45.6435 66.7392C44.2 65.6908 42.4525 65.1424 40.6675 65.1776H38.5386V69.2864H40.6034C41.6044 69.2599 42.5835 69.5812 43.3735 70.1952C44.833 71.2117 46.5699 71.7568 48.3496 71.7568C50.1293 71.7568 51.8661 71.2117 53.3256 70.1952C54.1167 69.5831 55.0951 69.2621 56.0958 69.2864C57.0971 69.2578 58.077 69.5793 58.866 70.1952C60.3281 71.2111 62.0669 71.7556 63.8484 71.7556C65.6299 71.7556 67.3687 71.2111 68.8308 70.1952ZM68.8308 77.5424C69.6209 76.9284 70.6 76.6071 71.601 76.6336H73.6658V72.5248H71.601C69.8379 72.5035 68.1151 73.0513 66.6891 74.0864C65.8867 74.6769 64.9159 74.9954 63.9189 74.9954C62.922 74.9954 61.9512 74.6769 61.1488 74.0864C59.6866 73.0706 57.9478 72.526 56.1663 72.526C54.3848 72.526 52.646 73.0706 51.1839 74.0864C50.3814 74.6769 49.4107 74.9954 48.4137 74.9954C47.4168 74.9954 46.446 74.6769 45.6435 74.0864C44.2 73.038 42.4525 72.4896 40.6675 72.5248H38.5386V76.6336H40.6034C41.6044 76.6071 42.5835 76.9284 43.3735 77.5424C44.833 78.5589 46.5699 79.104 48.3496 79.104C50.1293 79.104 51.8661 78.5589 53.3256 77.5424C54.1167 76.9303 55.0951 76.6093 56.0958 76.6336C57.0971 76.605 58.077 76.9265 58.866 77.5424C60.3281 78.5583 62.0669 79.1028 63.8484 79.1028C65.6299 79.1028 67.3687 78.5583 68.8308 77.5424Z" fill="#FF5C00"/>
</svg>
