<svg width="228" height="128" viewBox="0 0 228 128" fill="none" xmlns="http://www.w3.org/2000/svg">
<path d="M49.7476 70.1311H53.595V88.9599H49.7476V70.1311Z" fill="#219653"/>
<path d="M55.8265 82.5089C55.8239 81.1565 56.2234 79.8337 56.9744 78.708C57.7254 77.5823 58.7941 76.7042 60.0453 76.1849C61.2964 75.6656 62.6738 75.5284 64.0031 75.7907C65.3325 76.053 66.5539 76.7029 67.513 77.6583C68.472 78.6138 69.1256 79.8316 69.3909 81.1579C69.6562 82.4841 69.5213 83.8591 69.0033 85.1088C68.4854 86.3586 67.6076 87.4268 66.4811 88.1785C65.3546 88.9301 64.03 89.3313 62.6749 89.3313C61.7738 89.3416 60.8797 89.1722 60.045 88.8331C59.2103 88.4941 58.4518 87.9921 57.814 87.3567C57.1762 86.7213 56.6718 85.9652 56.3305 85.1328C55.9893 84.3004 55.8179 83.4083 55.8265 82.5089ZM65.6503 82.5089C65.6352 81.9251 65.4479 81.3587 65.1119 80.8805C64.7759 80.4024 64.3061 80.0337 63.7613 79.8207C63.2164 79.6077 62.6207 79.5597 62.0487 79.6828C61.4767 79.8059 60.9538 80.0946 60.5454 80.5128C60.1369 80.931 59.8611 81.4602 59.7524 82.034C59.6437 82.6079 59.7069 83.201 59.9342 83.7391C60.1615 84.2773 60.5427 84.7366 61.0302 85.0597C61.5177 85.3827 62.0898 85.5551 62.6749 85.5553C63.0753 85.5665 63.4736 85.4947 63.8448 85.3446C64.216 85.1944 64.552 84.9691 64.8315 84.6829C65.1111 84.3966 65.3282 84.0557 65.4691 83.6815C65.61 83.3073 65.6717 82.9081 65.6503 82.5089Z" fill="#219653"/>
<path d="M84.9903 76.0575V88.3199C84.9903 92.6591 81.5917 94.4895 78.1546 94.4895C76.946 94.5792 75.7359 94.3353 74.6569 93.7844C73.5779 93.2336 72.6716 92.397 72.0372 91.3663L75.346 89.4591C75.6086 89.9873 76.024 90.4247 76.5385 90.7145C77.053 91.0044 77.6428 91.1333 78.2316 91.0847C78.619 91.1492 79.0162 91.1239 79.3923 91.011C79.7684 90.898 80.1136 90.7004 80.4011 90.4332C80.6885 90.1661 80.9107 89.8366 81.0504 89.4702C81.1902 89.1038 81.2437 88.7102 81.2069 88.3199V87.1295C80.7546 87.6849 80.1775 88.1262 79.5224 88.4175C78.8673 88.7088 78.1527 88.842 77.4364 88.8063C75.6949 88.8063 74.0248 88.1159 72.7934 86.8868C71.5619 85.6578 70.8701 83.9909 70.8701 82.2527C70.8701 80.5146 71.5619 78.8477 72.7934 77.6186C74.0248 76.3896 75.6949 75.6991 77.4364 75.6991C78.1523 75.6665 78.8659 75.8011 79.5205 76.0922C80.1751 76.3833 80.7526 76.8228 81.2069 77.3759V76.0959L84.9903 76.0575ZM81.2069 82.2527C81.2325 81.6302 81.071 81.0143 80.743 80.4841C80.4151 79.9539 79.9358 79.5338 79.3667 79.2776C78.7977 79.0215 78.1648 78.9411 77.5496 79.0468C76.9344 79.1524 76.3649 79.4393 75.9144 79.8706C75.4638 80.3018 75.1528 80.8577 75.0213 81.4668C74.8898 82.0759 74.9438 82.7103 75.1764 83.2885C75.409 83.8666 75.8096 84.3622 76.3266 84.7114C76.8436 85.0605 77.4534 85.2474 78.0777 85.2479C78.4851 85.2767 78.8941 85.22 79.2783 85.0813C79.6624 84.9427 80.0132 84.7253 80.308 84.4431C80.6028 84.161 80.8352 83.8202 80.99 83.443C81.1448 83.0657 81.2187 82.6603 81.2069 82.2527Z" fill="#219653"/>
<path d="M87.2088 82.5089C87.2063 81.1565 87.6058 79.8337 88.3567 78.708C89.1077 77.5823 90.1764 76.7042 91.4276 76.1849C92.6788 75.6656 94.0561 75.5284 95.3855 75.7907C96.7148 76.053 97.9363 76.7029 98.8953 77.6583C99.8544 78.6138 100.508 79.8316 100.773 81.1579C101.038 82.4841 100.904 83.8591 100.386 85.1088C99.8677 86.3586 98.9899 87.4268 97.8634 88.1785C96.7369 88.9301 95.4123 89.3313 94.0573 89.3313C93.1561 89.3416 92.262 89.1722 91.4273 88.8331C90.5926 88.4941 89.8341 87.9921 89.1963 87.3567C88.5585 86.7213 88.0542 85.9652 87.7129 85.1328C87.3716 84.3004 87.2002 83.4083 87.2088 82.5089ZM97.0326 82.5089C97.0175 81.9251 96.8302 81.3587 96.4942 80.8805C96.1582 80.4024 95.6884 80.0337 95.1436 79.8207C94.5988 79.6077 94.0031 79.5597 93.4311 79.6828C92.8591 79.8059 92.3361 80.0946 91.9277 80.5128C91.5192 80.931 91.2434 81.4602 91.1347 82.034C91.026 82.6079 91.0892 83.201 91.3165 83.7391C91.5438 84.2773 91.925 84.7366 92.4125 85.0597C92.9 85.3827 93.4721 85.5551 94.0573 85.5553C94.4555 85.5629 94.851 85.4885 95.2191 85.3367C95.5873 85.185 95.9201 84.9591 96.1969 84.6733C96.4737 84.3874 96.6885 84.0477 96.8278 83.6753C96.9672 83.3029 97.0282 82.9058 97.007 82.5089H97.0326Z" fill="#219653"/>
<path d="M102.688 72.6016C102.688 72.1408 102.825 71.6904 103.082 71.3073C103.338 70.9242 103.703 70.6256 104.129 70.4493C104.556 70.273 105.025 70.2268 105.478 70.3167C105.931 70.4066 106.347 70.6285 106.673 70.9543C107 71.2801 107.222 71.6952 107.312 72.1471C107.402 72.599 107.356 73.0674 107.179 73.4931C107.002 73.9188 106.703 74.2826 106.319 74.5386C105.936 74.7945 105.484 74.9312 105.023 74.9312C104.405 74.9278 103.813 74.6813 103.376 74.2451C102.939 73.809 102.692 73.2184 102.688 72.6016ZM103.086 76.0576H106.933V88.96H103.086V76.0576Z" fill="#219653"/>
<path d="M123.708 82.5088C123.755 83.3617 123.632 84.2154 123.347 85.0207C123.062 85.826 122.62 86.567 122.046 87.2011C121.473 87.8352 120.78 88.3499 120.006 88.7155C119.233 89.081 118.394 89.2903 117.54 89.3312C116.822 89.3656 116.106 89.2425 115.441 88.9704C114.776 88.6984 114.179 88.2841 113.692 87.7568V94.1568H109.845V76.0576H113.692V77.2736C114.179 76.7463 114.776 76.3321 115.441 76.06C116.106 75.788 116.822 75.6649 117.54 75.6992C118.393 75.7402 119.23 75.9491 120.003 76.3139C120.776 76.6786 121.468 77.1921 122.042 77.8249C122.615 78.4576 123.057 79.1971 123.343 80.0009C123.629 80.8047 123.753 81.657 123.708 82.5088ZM119.861 82.5088C119.846 81.9081 119.654 81.325 119.31 80.8317C118.966 80.3385 118.485 79.9567 117.926 79.7338C117.367 79.5109 116.754 79.4565 116.164 79.5775C115.575 79.6985 115.033 79.9895 114.608 80.4144C114.182 80.8393 113.89 81.3796 113.769 81.9682C113.648 82.5569 113.702 83.1681 113.926 83.7262C114.149 84.2843 114.531 84.7647 115.026 85.108C115.52 85.4513 116.104 85.6424 116.706 85.6576C117.126 85.6843 117.547 85.6209 117.941 85.4717C118.334 85.3226 118.691 85.0911 118.987 84.7928C119.284 84.4945 119.513 84.1364 119.659 83.7424C119.805 83.3485 119.865 82.9279 119.835 82.5088H119.861Z" fill="#219653"/>
<path d="M135.687 85.0945C135.687 88.0641 133.122 89.3313 130.3 89.3313C129.173 89.4309 128.042 89.1915 127.053 88.644C126.063 88.0966 125.26 87.266 124.747 86.2593L128.107 84.3521C128.244 84.8177 128.536 85.2227 128.935 85.4998C129.334 85.7769 129.816 85.9094 130.3 85.8753C131.237 85.8753 131.698 85.5809 131.698 85.0689C131.698 83.6481 125.286 84.4033 125.286 79.9489C125.286 77.1329 127.671 75.7121 130.416 75.7121C131.429 75.6814 132.431 75.9215 133.32 76.4077C134.208 76.8938 134.95 77.6082 135.469 78.4769L132.096 80.2433C131.947 79.9052 131.703 79.6176 131.393 79.4154C131.084 79.2132 130.722 79.105 130.352 79.1041C129.685 79.1041 129.274 79.3601 129.274 79.8337C129.326 81.3057 135.687 80.3201 135.687 85.0945Z" fill="#219653"/>
<path d="M149.845 76.0576V88.96H145.998V87.7568C145.55 88.2914 144.982 88.7128 144.341 88.9864C143.699 89.26 143.001 89.3782 142.304 89.3312C139.739 89.3312 137.469 87.4752 137.469 83.9808V76.0576H141.317V83.4176C141.283 83.7313 141.32 84.0485 141.424 84.3463C141.528 84.6441 141.698 84.915 141.92 85.1392C142.142 85.3635 142.412 85.5356 142.709 85.643C143.006 85.7504 143.324 85.7903 143.638 85.76C145.049 85.76 146.036 84.9408 146.036 83.1104V76.0576H149.845Z" fill="#219653"/>
<path d="M172.084 81.0495V88.9599H168.236V81.3823C168.236 80.1023 167.608 79.2575 166.377 79.2575C165.145 79.2575 164.35 80.1663 164.35 81.6895V88.9599H160.503V81.3823C160.503 80.1023 159.887 79.2575 158.643 79.2575C157.399 79.2575 156.63 80.1663 156.63 81.6895V88.9599H152.782V76.0575H156.63V77.2479C157.032 76.7222 157.559 76.3051 158.164 76.0346C158.769 75.7641 159.432 75.6488 160.092 75.6991C160.756 75.667 161.417 75.8069 162.01 76.1052C162.603 76.4035 163.109 76.8501 163.478 77.4015C163.907 76.825 164.476 76.3665 165.131 76.0688C165.786 75.7711 166.506 75.6439 167.223 75.6991C170.147 75.6991 172.084 77.8239 172.084 81.0495Z" fill="#219653"/>
<path d="M175.367 75.9807C176.954 75.9807 178.24 74.697 178.24 73.1135C178.24 71.53 176.954 70.2463 175.367 70.2463C173.78 70.2463 172.494 71.53 172.494 73.1135C172.494 74.697 173.78 75.9807 175.367 75.9807Z" fill="#219653"/>
<path d="M93.288 60.3649C100.718 60.3649 106.741 54.3533 106.741 46.9377C106.741 39.5221 100.718 33.5105 93.288 33.5105C85.8579 33.5105 79.8347 39.5221 79.8347 46.9377C79.8347 54.3533 85.8579 60.3649 93.288 60.3649Z" fill="#219653"/>
<path d="M123.362 60.3649C130.792 60.3649 136.815 54.3533 136.815 46.9377C136.815 39.5221 130.792 33.5105 123.362 33.5105C115.932 33.5105 109.909 39.5221 109.909 46.9377C109.909 54.3533 115.932 60.3649 123.362 60.3649Z" fill="#219653"/>
<path d="M76.6669 33.5105H49.7732V60.3521H76.6669V33.5105Z" fill="#219653"/>
</svg>
