<svg width="228" height="128" viewBox="0 0 228 128" fill="none" xmlns="http://www.w3.org/2000/svg">
<path d="M52.5697 75.2116L29.5616 59.3716C27.2301 57.7665 28.0226 54.4244 30.9301 53.6385L55.3835 47.0145C55.9015 46.8279 56.4566 46.7674 57.0027 46.8378C57.5489 46.9083 58.0703 47.1078 58.5237 47.4196C58.9772 47.7315 59.3495 48.1468 59.6099 48.6311C59.8703 49.1154 60.0112 49.6547 60.021 50.2042L58.5717 72.667C58.3999 75.3332 54.9012 76.8167 52.5697 75.2116Z" fill="#E9327C"/>
<path d="M45.2721 79.122L31.7174 52.6656C31.4075 52.0604 31.2712 51.3815 31.3234 50.7038C31.3756 50.0262 31.6143 49.376 32.0131 48.8252C32.412 48.2743 32.9556 47.844 33.5839 47.5819C34.2122 47.3198 34.9008 47.2359 35.5739 47.3396L60.6941 51.209C61.2725 51.2981 61.8214 51.5229 62.2957 51.865C62.77 52.2071 63.1562 52.6567 63.4225 53.1767C63.6888 53.6968 63.8276 54.2725 63.8276 54.8566C63.8275 55.4407 63.6885 56.0164 63.422 56.5364L51.85 79.1232C51.5393 79.7267 51.0679 80.2331 50.4876 80.5865C49.9072 80.94 49.2405 81.1269 48.5607 81.1268C47.8808 81.1267 47.2142 80.9395 46.634 80.5858C46.0538 80.2321 45.5826 79.7256 45.2721 79.122Z" fill="#1DACE3"/>
<path d="M59.9594 51.095L47.4371 49.166L32.0625 53.3324L38.1993 65.3145L52.5697 75.2114C52.8867 75.4273 53.2354 75.5927 53.6033 75.7017L59.0617 65.0483L59.9594 51.095Z" fill="#001A49"/>
<path d="M123.388 54.1874C123.388 53.7229 123.526 53.2688 123.785 52.8825C124.043 52.4962 124.411 52.1952 124.841 52.0174C125.271 51.8396 125.744 51.7931 126.2 51.8838C126.657 51.9744 127.076 52.1981 127.405 52.5266C127.735 52.8551 127.959 53.2736 128.049 53.7292C128.14 54.1848 128.094 54.6571 127.916 55.0863C127.737 55.5155 127.436 55.8823 127.049 56.1404C126.662 56.3985 126.207 56.5362 125.741 56.5362C125.119 56.5299 124.524 56.2804 124.084 55.8413C123.644 55.4022 123.394 54.8084 123.388 54.1874ZM123.78 57.6844H127.704V70.7327H123.78V57.6844Z" fill="#001A49"/>
<path d="M144.645 64.2088C144.691 65.0712 144.565 65.9342 144.275 66.748C143.986 67.5618 143.538 68.3104 142.957 68.9508C142.376 69.5911 141.674 70.1105 140.892 70.4792C140.109 70.8479 139.261 71.0585 138.397 71.099C137.67 71.1385 136.943 71.0161 136.269 70.7407C135.595 70.4653 134.991 70.0438 134.501 69.5067V75.9528H130.579V57.6846H134.501V58.9108C134.991 58.374 135.596 57.9527 136.269 57.6775C136.943 57.4023 137.67 57.2801 138.397 57.3198C139.261 57.3601 140.109 57.5706 140.892 57.9391C141.674 58.3077 142.376 58.827 142.957 59.4673C143.537 60.1075 143.986 60.856 144.275 61.6697C144.565 62.4835 144.691 63.3464 144.645 64.2088ZM140.723 64.2088C140.708 63.5979 140.512 63.005 140.161 62.5045C139.81 62.004 139.318 61.618 138.748 61.3948C138.178 61.1717 137.555 61.1213 136.957 61.2499C136.358 61.3785 135.811 61.6805 135.383 62.1181C134.956 62.5556 134.667 63.1092 134.553 63.7097C134.44 64.3102 134.506 64.9308 134.744 65.4939C134.982 66.057 135.381 66.5375 135.891 66.8754C136.401 67.2133 137 67.3935 137.612 67.3934C138.033 67.4123 138.452 67.3422 138.844 67.1878C139.235 67.0334 139.589 66.798 139.883 66.4973C140.177 66.1965 140.404 65.8371 140.549 65.4427C140.693 65.0483 140.753 64.6278 140.723 64.2088Z" fill="#001A49"/>
<path d="M156.751 66.8161C156.751 69.8177 154.136 71.0964 151.312 71.0964C150.171 71.1994 149.025 70.9584 148.023 70.4046C147.021 69.8508 146.208 69.0096 145.69 67.9898L149.089 66.0596C149.227 66.531 149.523 66.9407 149.928 67.2203C150.332 67.4999 150.821 67.6324 151.312 67.5956C152.253 67.5956 152.722 67.3076 152.722 66.7866C152.722 65.3505 146.291 66.1082 146.291 61.5924C146.291 58.7482 148.695 57.3134 151.421 57.3134C152.443 57.2813 153.455 57.5234 154.352 58.0144C155.248 58.5054 155.996 59.2273 156.519 60.105L153.173 61.906C153.026 61.5635 152.782 61.2716 152.47 61.0667C152.159 60.8618 151.794 60.7531 151.421 60.754C150.741 60.754 150.323 61.01 150.323 61.4849C150.319 62.9825 156.751 61.9905 156.751 66.8161Z" fill="#001A49"/>
<path d="M171.085 57.6846V70.7329H167.163V69.5041C166.71 70.0454 166.135 70.4719 165.485 70.7487C164.835 71.0254 164.129 71.1446 163.424 71.0964C160.783 71.0964 158.535 69.2174 158.535 65.6935V57.6846H162.457V65.1226C162.424 65.4336 162.459 65.7481 162.56 66.0441C162.661 66.3401 162.826 66.6105 163.042 66.8365C163.259 67.0625 163.522 67.2387 163.814 67.3528C164.106 67.4669 164.419 67.5161 164.732 67.497C166.169 67.497 167.168 66.6625 167.168 64.809V57.6846H171.085Z" fill="#001A49"/>
<path d="M193.565 62.72V70.7328H189.643V63.0604C189.643 61.7561 189.014 60.9203 187.76 60.9203C186.452 60.9203 185.721 61.8342 185.721 63.3741V70.7328H181.798V63.0604C181.798 61.7561 181.171 60.9203 179.915 60.9203C178.608 60.9203 177.876 61.8342 177.876 63.3741V70.7328H173.954V57.6845H177.882V58.88C178.289 58.3476 178.823 57.9254 179.435 57.652C180.047 57.3785 180.718 57.2625 181.386 57.3145C182.058 57.2818 182.726 57.4231 183.326 57.7248C183.927 58.0265 184.438 58.4783 184.812 59.0361C185.246 58.4525 185.822 57.9884 186.486 57.6873C187.149 57.3863 187.878 57.258 188.604 57.3145C191.605 57.3197 193.565 59.4585 193.565 62.72Z" fill="#001A49"/>
<path d="M196.888 57.6039C198.496 57.6039 199.799 56.303 199.799 54.6983C199.799 53.0936 198.496 51.7927 196.888 51.7927C195.28 51.7927 193.977 53.0936 193.977 54.6983C193.977 56.303 195.28 57.6039 196.888 57.6039Z" fill="#001A49"/>
<path d="M69.8411 51.6826H73.7642V70.7329H69.8411V51.6826ZM75.9855 64.2087C75.9812 62.8407 76.3837 61.5022 77.1421 60.3627C77.9004 59.2232 78.9805 58.3338 80.2456 57.8073C81.5107 57.2809 82.9038 57.1409 84.2487 57.4051C85.5935 57.6693 86.8296 58.3259 87.8003 59.2917C88.771 60.2575 89.4328 61.4891 89.7018 62.8304C89.9708 64.1718 89.8349 65.5627 89.3114 66.827C88.7879 68.0913 87.9002 69.1721 86.7609 69.9325C85.6215 70.693 84.2817 71.0989 82.911 71.0989C82.0007 71.1087 81.0975 70.9372 80.2543 70.5947C79.4111 70.2521 78.6447 69.7453 78 69.1038C77.3552 68.4624 76.845 67.6991 76.4991 66.8586C76.1532 66.0181 75.9786 65.1173 75.9855 64.2087ZM85.9223 64.2087C85.9069 63.6186 85.7176 63.0461 85.3779 62.5629C85.0382 62.0797 84.5633 61.7071 84.0126 61.4919C83.4619 61.2766 82.8598 61.2282 82.2816 61.3527C81.7035 61.4772 81.175 61.769 80.7622 62.1918C80.3493 62.6145 80.0706 63.1493 79.9607 63.7293C79.8509 64.3093 79.9148 64.9088 80.1446 65.4527C80.3743 65.9967 80.7597 66.4609 81.2524 66.7874C81.7452 67.1139 82.3234 67.2882 82.9149 67.2884C83.3199 67.2999 83.7229 67.2275 84.0985 67.0759C84.474 66.9242 84.8141 66.6965 85.0971 66.4072C85.3802 66.1179 85.6001 65.7731 85.743 65.3947C85.8859 65.0164 85.9487 64.6125 85.9274 64.2087H85.9223ZM105.479 57.6807V70.0775C105.479 74.4615 102.054 76.3137 98.5767 76.3137C97.3529 76.4059 96.1272 76.16 95.0341 75.603C93.941 75.046 93.0226 74.1993 92.3797 73.1559L95.7257 71.2244C95.9958 71.769 96.426 72.2183 96.9589 72.5122C97.4918 72.8061 98.1018 72.9307 98.7075 72.8692C99.0941 72.9219 99.4876 72.8872 99.859 72.7679C100.23 72.6485 100.57 72.4474 100.853 72.1795C101.136 71.9115 101.356 71.5835 101.495 71.2197C101.634 70.8559 101.689 70.4656 101.657 70.0775V68.8769C101.198 69.4376 100.613 69.8831 99.9502 70.1776C99.2872 70.4721 98.5642 70.6075 97.8393 70.5729C96.1136 70.5193 94.4765 69.7975 93.2748 68.5603C92.0731 67.323 91.4011 65.6675 91.4011 63.9444C91.4011 62.2212 92.0731 60.5657 93.2748 59.3285C94.4765 58.0912 96.1136 57.3694 97.8393 57.3159C98.5642 57.2813 99.2872 57.4167 99.9502 57.7112C100.613 58.0057 101.198 58.4512 101.657 59.0119V57.6807H105.479ZM101.662 63.9437C101.688 63.3135 101.525 62.69 101.193 62.1533C100.861 61.6166 100.375 61.1913 99.7991 60.9321C99.2229 60.6729 98.5822 60.5917 97.9594 60.6988C97.3366 60.8059 96.7601 61.0964 96.3041 61.5331C95.8481 61.9698 95.5334 62.5327 95.4004 63.1493C95.2675 63.766 95.3224 64.4082 95.558 64.9935C95.7937 65.5787 96.1994 66.0802 96.7229 66.4335C97.2465 66.7869 97.8639 66.9758 98.4959 66.9761C98.908 67.005 99.3216 66.9475 99.71 66.8073C100.099 66.6671 100.453 66.4473 100.752 66.1621C101.05 65.8768 101.285 65.5324 101.442 65.151C101.599 64.7696 101.674 64.3597 101.662 63.9476V63.9437ZM107.7 64.1997C107.696 62.8318 108.099 61.4933 108.857 60.3537C109.615 59.2142 110.695 58.3249 111.961 57.7984C113.226 57.2719 114.619 57.1319 115.964 57.3961C117.308 57.6604 118.544 58.317 119.515 59.2828C120.486 60.2485 121.148 61.4801 121.417 62.8215C121.686 64.1629 121.55 65.5538 121.026 66.818C120.503 68.0823 119.615 69.1631 118.476 69.9236C117.336 70.684 115.997 71.09 114.626 71.09C113.716 71.0997 112.814 70.9285 111.971 70.5865C111.129 70.2446 110.363 69.7385 109.718 69.098C109.073 68.4575 108.563 67.6953 108.217 66.8559C107.87 66.0164 107.695 65.1165 107.7 64.2087V64.1997ZM117.637 64.1997C117.622 63.6093 117.433 63.0364 117.093 62.5527C116.753 62.0691 116.278 61.6962 115.727 61.4807C115.176 61.2652 114.574 61.2166 113.995 61.3411C113.417 61.4656 112.888 61.7576 112.475 62.1806C112.062 62.6036 111.783 63.1388 111.673 63.7192C111.563 64.2996 111.627 64.8994 111.857 65.4436C112.087 65.9878 112.473 66.4523 112.966 66.7788C113.459 67.1053 114.038 67.2795 114.63 67.2794C115.034 67.2901 115.435 67.2175 115.81 67.0661C116.184 66.9146 116.523 66.6876 116.805 66.3994C117.088 66.1111 117.307 65.7677 117.45 65.3907C117.594 65.0138 117.657 64.6113 117.637 64.2087V64.1997Z" fill="#001A49"/>
</svg>
