<svg width="228" height="128" viewBox="0 0 228 128" fill="none" xmlns="http://www.w3.org/2000/svg">
<path d="M40.9644 80.416H73.8604V47.584H40.9644V80.416ZM67.5287 60.8409H60.5776V53.9033H67.5287V60.8409ZM47.2948 53.9033H54.2498V67.159H67.5287V74.0966H47.2948V53.9033ZM95.282 47.584C92.0289 47.584 88.8488 48.5468 86.144 50.3506C83.4391 52.1544 81.3309 54.7182 80.086 57.7179C78.8411 60.7175 78.5154 64.0182 79.15 67.2026C79.7847 70.387 81.3512 73.312 83.6515 75.6079C85.9518 77.9037 88.8825 79.4671 92.0732 80.1006C95.2638 80.734 98.5709 80.4089 101.576 79.1664C104.582 77.9239 107.151 75.8198 108.958 73.1202C110.765 70.4206 111.73 67.2468 111.73 64C111.725 59.6478 109.99 55.4752 106.907 52.3977C103.823 49.3202 99.6427 47.5891 95.282 47.584ZM95.282 74.0966C93.2812 74.0966 91.3253 73.5045 89.6617 72.395C87.998 71.2856 86.7014 69.7087 85.9357 67.8638C85.17 66.0189 84.9697 63.9888 85.36 62.0302C85.7504 60.0717 86.7139 58.2726 88.1287 56.8606C89.5435 55.4485 91.346 54.4869 93.3084 54.0973C95.2708 53.7078 97.3048 53.9077 99.1534 54.6719C101.002 55.4361 102.582 56.7302 103.693 58.3906C104.805 60.051 105.398 62.0031 105.398 64C105.394 66.6765 104.327 69.2423 102.431 71.1349C100.535 73.0275 97.9638 74.0926 95.282 74.0966ZM170.589 47.584C167.336 47.5837 164.156 48.5463 161.451 50.35C158.746 52.1536 156.637 54.7174 155.392 57.717C154.147 60.7166 153.821 64.0173 154.456 67.2018C155.09 70.3863 156.657 73.3115 158.957 75.6074C161.257 77.9033 164.188 79.4669 167.378 80.1005C170.569 80.734 173.876 80.409 176.882 79.1665C179.887 77.9241 182.456 75.82 184.264 73.1204C186.071 70.4207 187.036 67.2468 187.036 64C187.031 59.648 185.296 55.4756 182.213 52.3982C179.13 49.3207 174.95 47.5894 170.589 47.584ZM170.589 74.0966C168.588 74.0969 166.632 73.5049 164.968 72.3957C163.305 71.2864 162.008 69.7096 161.242 67.8647C160.476 66.0198 160.275 63.9897 160.666 62.031C161.056 60.0724 162.019 58.2732 163.434 56.861C164.849 55.4489 166.651 54.4871 168.614 54.0974C170.576 53.7078 172.61 53.9076 174.459 54.6718C176.307 55.4359 177.887 56.73 178.999 58.3905C180.111 60.0509 180.704 62.003 180.704 64C180.7 66.6763 179.633 69.2419 177.737 71.1344C175.841 73.027 173.271 74.0922 170.589 74.0966ZM132.935 47.584C129.682 47.584 126.502 48.5468 123.797 50.3506C121.092 52.1544 118.984 54.7182 117.739 57.7179C116.494 60.7175 116.168 64.0182 116.803 67.2026C117.438 70.387 119.004 73.312 121.304 75.6079C123.605 77.9037 126.535 79.4671 129.726 80.1006C132.917 80.734 136.224 80.4089 139.229 79.1664C142.235 77.9239 144.804 75.8198 146.611 73.1202C148.418 70.4206 149.383 67.2468 149.383 64C149.378 59.6478 147.643 55.4752 144.56 52.3977C141.476 49.3202 137.296 47.5891 132.935 47.584ZM132.935 74.0966C131.071 74.0976 129.243 73.5844 127.652 72.6138C126.062 71.6432 124.771 70.2529 123.922 68.5963C123.074 66.9397 122.7 65.0814 122.843 63.2263C122.986 61.3713 123.64 59.5917 124.732 58.084C125.824 56.5763 127.313 55.3992 129.033 54.6825C130.753 53.9658 132.638 53.7375 134.481 54.0227C136.323 54.3079 138.05 55.0956 139.472 56.2988C140.894 57.5019 141.955 59.0738 142.538 60.8409H132.935V67.159H142.538C141.87 69.1754 140.583 70.9307 138.859 72.176C137.136 73.4212 135.063 74.0932 132.935 74.0966Z" fill="#141423"/>
</svg>
