<svg width="228" height="128" viewBox="0 0 228 128" fill="none" xmlns="http://www.w3.org/2000/svg">
<path d="M59.2893 52.9791H61.8543V70.7967H69.5492V73.3567H59.2893V52.9791ZM77.5391 52.9791C79.061 52.9791 80.5487 53.4296 81.8141 54.2735C83.0795 55.1174 84.0658 56.3168 84.6482 57.7201C85.2306 59.1235 85.383 60.6677 85.0861 62.1574C84.7892 63.6472 84.0563 65.0157 82.9802 66.0897C81.904 67.1638 80.5329 67.8952 79.0403 68.1916C77.5476 68.4879 76.0004 68.3358 74.5943 67.7545C73.1883 67.1733 71.9865 66.1889 71.141 64.9259C70.2954 63.663 69.8441 62.1781 69.8441 60.6591C69.8441 59.6506 70.0432 58.6519 70.4299 57.7201C70.8166 56.7884 71.3834 55.9417 72.0979 55.2286C72.8125 54.5154 73.6608 53.9497 74.5943 53.5637C75.5279 53.1778 76.5285 52.9791 77.5391 52.9791ZM77.5391 65.7791C78.5537 65.7791 79.5455 65.4789 80.3891 64.9163C81.2327 64.3537 81.8902 63.554 82.2785 62.6185C82.6668 61.6829 82.7684 60.6535 82.5704 59.6603C82.3725 58.6671 81.8839 57.7548 81.1665 57.0388C80.449 56.3227 79.535 55.8351 78.5399 55.6375C77.5447 55.44 76.5133 55.5414 75.5759 55.9289C74.6385 56.3164 73.8374 56.9726 73.2737 57.8146C72.71 58.6566 72.4091 59.6465 72.4091 60.6591C72.4159 62.0126 72.9594 63.3083 73.9207 64.263C74.882 65.2176 76.1829 65.7536 77.5391 65.7535V65.7791ZM72.4091 70.8223H82.669V73.3823H72.4091V70.8223ZM105.241 73.3823H102.676V71.5519C101.022 72.7076 99.0519 73.3286 97.0328 73.3311C95.3111 73.3426 93.6141 72.9215 92.0983 72.1065C90.5825 71.2915 89.2965 70.1089 88.3589 68.6676C87.4213 67.2263 86.8622 65.5727 86.7332 63.8591C86.6041 62.1455 86.9091 60.427 87.6203 58.862C88.3314 57.297 89.4257 55.9358 90.8024 54.9037C92.1791 53.8717 93.7939 53.202 95.498 52.9565C97.2021 52.7109 98.9407 52.8973 100.554 53.4985C102.167 54.0997 103.602 55.0964 104.728 56.3967L102.842 58.0735C101.986 57.1182 100.904 56.3919 99.6948 55.9609C98.4854 55.5298 97.1871 55.4078 95.9183 55.6058C94.6495 55.8038 93.4505 56.3156 92.4307 57.0945C91.4108 57.8734 90.6025 58.8947 90.0794 60.0653C89.5563 61.2359 89.3351 62.5185 89.4359 63.7963C89.5366 65.0741 89.9563 66.3064 90.6564 67.3808C91.3566 68.4553 92.3151 69.3378 93.4445 69.9478C94.5739 70.5579 95.8384 70.8761 97.1226 70.8735C98.1884 70.8757 99.2421 70.6481 100.212 70.2063C101.181 69.7645 102.043 69.1188 102.74 68.3135H95.8144V65.7535H105.266L105.241 73.3823ZM114.68 53.0303C116.202 53.0303 117.689 53.4808 118.955 54.3247C120.22 55.1685 121.207 56.368 121.789 57.7713C122.371 59.1747 122.524 60.7189 122.227 62.2086C121.93 63.6984 121.197 65.0669 120.121 66.1409C119.045 67.215 117.674 67.9464 116.181 68.2428C114.688 68.5391 113.141 68.387 111.735 67.8057C110.329 67.2245 109.127 66.2401 108.282 64.9771C107.436 63.7142 106.985 62.2293 106.985 60.7103C106.978 59.6953 107.173 58.6891 107.558 57.7497C107.944 56.8103 108.512 55.9565 109.229 55.2375C109.947 54.5186 110.801 53.9489 111.741 53.5612C112.681 53.1736 113.688 52.9757 114.705 52.9791L114.68 53.0303ZM114.68 65.8303C115.694 65.8303 116.686 65.5301 117.53 64.9675C118.373 64.4049 119.031 63.6052 119.419 62.6697C119.807 61.7341 119.909 60.7047 119.711 59.7115C119.513 58.7183 119.025 57.806 118.307 57.09C117.59 56.3739 116.676 55.8863 115.681 55.6887C114.685 55.4912 113.654 55.5926 112.717 55.9801C111.779 56.3676 110.978 57.0238 110.414 57.8658C109.851 58.7078 109.55 59.6977 109.55 60.7103C109.57 62.0593 110.123 63.3458 111.088 64.2902C112.054 65.2346 113.354 65.7604 114.705 65.7535L114.68 65.8303ZM109.55 70.8735H119.81V73.4335H109.55V70.8735ZM125.106 52.9791H127.671V73.3311H125.106V52.9791ZM131.224 52.9791H133.789C133.921 52.9652 134.054 52.9652 134.186 52.9791C135.261 52.8628 136.347 52.9736 137.376 53.3043C138.404 53.635 139.351 54.1781 140.156 54.8984C140.96 55.6187 141.603 56.4999 142.043 57.4847C142.484 58.4696 142.711 59.5359 142.711 60.6143C142.711 61.6928 142.484 62.7591 142.043 63.7439C141.603 64.7288 140.96 65.61 140.156 66.3303C139.351 67.0506 138.404 67.5937 137.376 67.9244C136.347 68.2551 135.261 68.3659 134.186 68.2495H133.789V73.3695H131.224V52.9791ZM133.789 55.5391V65.6639H134.186C134.911 65.7602 135.648 65.7009 136.347 65.4899C137.047 65.279 137.693 64.9212 138.243 64.4407C138.793 63.9601 139.234 63.3679 139.535 62.7035C139.837 62.0392 139.993 61.3182 139.993 60.5887C139.993 59.8593 139.837 59.1383 139.535 58.474C139.234 57.8096 138.793 57.2174 138.243 56.7368C137.693 56.2563 137.047 55.8985 136.347 55.6876C135.648 55.4766 134.911 55.4173 134.186 55.5135C134.047 55.5281 133.909 55.5581 133.776 55.6031L133.789 55.5391ZM152.269 54.4511L150.371 55.9487C150.044 55.6072 149.626 55.3661 149.165 55.2537C148.705 55.1413 148.223 55.1623 147.774 55.3142C147.326 55.4661 146.93 55.7426 146.634 56.1112C146.337 56.4798 146.152 56.9253 146.101 57.3951V57.5999C146.101 58.7263 146.883 59.4815 148.409 59.5839C154.283 59.9423 156.976 62.6943 156.976 66.3295V66.5599C156.824 67.9987 156.262 69.3637 155.355 70.4926C154.449 71.6215 153.237 72.4668 151.863 72.9279C150.489 73.3891 149.011 73.4466 147.605 73.0938C146.2 72.7409 144.925 71.9925 143.933 70.9375L145.895 69.4271C146.352 69.9157 146.91 70.2992 147.53 70.5512C148.15 70.8032 148.818 70.9175 149.486 70.8863C150.722 70.9513 151.934 70.5375 152.871 69.7313C153.808 68.9252 154.396 67.7889 154.514 66.5599V66.3807C154.514 62.9631 151.154 62.3359 148.242 62.0543C145.549 61.7983 143.613 60.1215 143.613 57.7023V57.5999C143.708 56.3405 144.283 55.1654 145.221 54.3175C146.159 53.4695 147.388 53.0133 148.653 53.0431C149.323 53.0234 149.99 53.1442 150.611 53.3977C151.232 53.6513 151.792 54.0319 152.257 54.5151L152.269 54.4511ZM167.018 70.7327C170.211 70.7327 172.738 67.2895 172.738 63.0527V52.8127H175.303V63.0527C175.303 68.6847 171.609 73.2287 167.069 73.2287C162.529 73.2287 158.836 68.6847 158.836 63.0527V52.8127H161.401V63.0527C161.298 67.3535 163.825 70.7967 167.005 70.7967L167.018 70.7327ZM194.989 73.2927H192.424V60.6207L186.512 68.3007L180.599 60.6207V73.3311H178.035V52.9791L186.499 64.1023L194.963 52.9791L194.989 73.2927Z" fill="#141423"/>
<path d="M46.9774 49.92C46.9774 48.0732 46.2423 46.3021 44.9339 44.9963C43.6255 43.6904 41.851 42.9568 40.0006 42.9568C38.1503 42.9568 36.3757 43.6904 35.0674 44.9963C33.759 46.3021 33.0239 48.0732 33.0239 49.92V70.976L38.7695 75.0848V85.0944H41.2318V75.0848L46.9774 70.976V49.92ZM44.515 61.696L41.2318 64.9728V61.9008L44.515 58.624V61.696ZM35.5376 58.624L38.8208 61.9008V64.9728L35.5376 61.696V58.624ZM44.515 55.1424L40.0006 59.648L35.4863 55.04V51.968L40.0006 56.4736L44.515 51.968V55.1424ZM40.0006 45.4144C40.9935 45.4188 41.9575 45.7479 42.745 46.3513C43.5326 46.9546 44.1003 47.7991 44.3611 48.7552L40.0006 53.0944L35.6402 48.7552C35.8915 47.7896 36.455 46.9337 37.2435 46.3204C38.0319 45.7071 39.0011 45.3706 40.0006 45.3632V45.4144ZM35.4863 69.7344V65.1264L38.7695 68.4032V72.064L35.4863 69.7344ZM41.2318 72.0768V68.4032L44.515 65.1264V69.7216L41.2318 72.0768Z" fill="#141423"/>
</svg>
