<svg width="228" height="128" viewBox="0 0 228 128" fill="none" xmlns="http://www.w3.org/2000/svg">
<path d="M70.947 54.0801H74.7945V72.5761H70.947V54.0801Z" fill="#0500FF"/>
<path d="M76.9491 66.2399C76.9491 64.9092 77.345 63.6084 78.0865 62.5025C78.8281 61.3966 79.8819 60.5353 81.1145 60.0279C82.347 59.5204 83.7028 59.3896 85.0099 59.652C86.317 59.9144 87.5167 60.5582 88.4567 61.5019C89.3968 62.4456 90.035 63.6465 90.2905 64.9526C90.5459 66.2587 90.4071 67.611 89.8915 68.8383C89.376 70.0655 88.5071 71.1123 87.3948 71.8461C86.2825 72.5799 84.9769 72.9675 83.6437 72.9599C82.7593 72.9668 81.8825 72.7974 81.0647 72.4617C80.2468 72.1259 79.5043 71.6306 78.8808 71.0047C78.2573 70.3788 77.7652 69.6349 77.4335 68.8167C77.1018 67.9985 76.9371 67.1225 76.9491 66.2399ZM86.5934 66.2399C86.5782 65.6662 86.394 65.1097 86.0636 64.64C85.7333 64.1703 85.2715 63.8082 84.736 63.599C84.2006 63.3899 83.6152 63.3429 83.0531 63.4641C82.4911 63.5852 81.9773 63.869 81.576 64.2801C81.1747 64.6911 80.9038 65.2111 80.7971 65.775C80.6903 66.3389 80.7526 66.9217 80.976 67.4506C81.1994 67.9794 81.574 68.4307 82.0531 68.7481C82.5321 69.0655 83.0943 69.2349 83.6693 69.2351C84.0608 69.2427 84.4497 69.1697 84.8116 69.0205C85.1735 68.8713 85.5007 68.6492 85.7727 68.3681C86.0447 68.087 86.2557 67.7529 86.3925 67.3867C86.5293 67.0206 86.589 66.6301 86.5677 66.2399H86.5934Z" fill="#0500FF"/>
<path d="M105.561 59.9041V71.9489C105.561 76.1985 102.227 78.0033 98.8539 78.0033C97.6642 78.1007 96.4708 77.8648 95.4082 77.3221C94.3455 76.7793 93.4557 75.9513 92.839 74.9313L96.0837 73.0625C96.3466 73.5916 96.7649 74.0281 97.2827 74.314C97.8005 74.5998 98.3933 74.7214 98.9821 74.6625C99.3572 74.7086 99.7379 74.6714 100.097 74.5536C100.456 74.4358 100.784 74.2403 101.059 73.981C101.333 73.7217 101.547 73.4051 101.685 73.0538C101.822 72.7025 101.88 72.3252 101.855 71.9489V70.7841C101.407 71.3259 100.839 71.756 100.196 72.0404C99.5523 72.3248 98.8514 72.4556 98.1485 72.4225C96.4478 72.4225 94.8168 71.7482 93.6142 70.548C92.4117 69.3477 91.7361 67.7199 91.7361 66.0225C91.7361 64.3251 92.4117 62.6972 93.6142 61.497C94.8168 60.2968 96.4478 59.6225 98.1485 59.6225C98.8514 59.5893 99.5523 59.7201 100.196 60.0045C100.839 60.2889 101.407 60.7191 101.855 61.2609V59.9809L105.561 59.9041ZM101.855 65.9841C101.88 65.3717 101.722 64.7657 101.4 64.2439C101.077 63.7222 100.606 63.3086 100.046 63.0563C99.4867 62.8041 98.8642 62.7247 98.2589 62.8283C97.6537 62.932 97.0933 63.214 96.6499 63.6381C96.2066 64.0622 95.9004 64.609 95.7709 65.2081C95.6414 65.8072 95.6943 66.4314 95.9231 67.0002C96.1518 67.569 96.5458 68.0566 97.0543 68.4001C97.5629 68.7437 98.1628 68.9275 98.7769 68.9281C99.1776 68.9569 99.58 68.9015 99.9579 68.7655C100.336 68.6294 100.681 68.4158 100.971 68.1384C101.261 67.8609 101.49 67.5259 101.642 67.1548C101.794 66.7837 101.867 66.3849 101.855 65.9841Z" fill="#0500FF"/>
<path d="M107.729 66.24C107.729 64.9104 108.124 63.6106 108.864 62.5053C109.605 61.3999 110.657 60.5386 111.888 60.0303C113.119 59.5221 114.473 59.3898 115.78 59.6501C117.086 59.9104 118.286 60.5517 119.227 61.4928C120.168 62.4339 120.809 63.6325 121.067 64.9369C121.325 66.2413 121.19 67.5928 120.678 68.8205C120.167 70.0482 119.302 71.0969 118.193 71.8337C117.084 72.5706 115.781 72.9625 114.449 72.96C113.563 72.9686 112.684 72.8005 111.864 72.4657C111.044 72.1309 110.299 71.636 109.673 71.0101C109.047 70.3842 108.553 69.6399 108.219 68.8208C107.885 68.0017 107.718 67.1243 107.729 66.24ZM117.373 66.24C117.358 65.6658 117.173 65.1088 116.842 64.6388C116.511 64.1688 116.049 63.8068 115.513 63.598C114.976 63.3892 114.39 63.343 113.828 63.4652C113.266 63.5874 112.752 63.8725 112.351 64.2848C111.95 64.6971 111.68 65.2183 111.575 65.783C111.47 66.3478 111.534 66.931 111.759 67.4595C111.985 67.9881 112.361 68.4385 112.842 68.7544C113.323 69.0703 113.886 69.2375 114.462 69.2352C114.853 69.2428 115.242 69.1698 115.604 69.0206C115.966 68.8714 116.293 68.6493 116.565 68.3682C116.837 68.0871 117.048 67.753 117.185 67.3868C117.322 67.0207 117.381 66.6302 117.36 66.24H117.373Z" fill="#0500FF"/>
<path d="M122.952 56.512C122.952 56.0614 123.086 55.6209 123.337 55.2462C123.587 54.8716 123.944 54.5795 124.361 54.4071C124.778 54.2346 125.237 54.1895 125.68 54.2774C126.123 54.3653 126.53 54.5823 126.849 54.901C127.168 55.2196 127.385 55.6256 127.474 56.0675C127.562 56.5095 127.516 56.9676 127.344 57.384C127.171 57.8003 126.878 58.1561 126.503 58.4065C126.127 58.6568 125.686 58.7904 125.235 58.7904C124.631 58.7838 124.054 58.5416 123.628 58.1158C123.201 57.6899 122.958 57.1143 122.952 56.512ZM123.324 59.904H127.171V72.576H123.324V59.904Z" fill="#0500FF"/>
<path d="M143.638 66.2401C143.681 67.0829 143.557 67.9258 143.272 68.7205C142.988 69.5151 142.549 70.2457 141.98 70.8703C141.412 71.4948 140.725 72.001 139.96 72.3597C139.194 72.7183 138.365 72.9224 137.521 72.9601C136.804 73.0077 136.086 72.8931 135.419 72.625C134.753 72.3568 134.156 71.9419 133.673 71.4113V77.6705H129.826V59.9041H133.673V61.0945C134.157 60.5655 134.754 60.1525 135.421 59.8865C136.087 59.6205 136.805 59.5084 137.521 59.5585C138.362 59.5963 139.188 59.7991 139.95 60.1554C140.713 60.5116 141.398 61.0143 141.966 61.6348C142.534 62.2552 142.974 62.9813 143.261 63.7715C143.548 64.5616 143.676 65.4005 143.638 66.2401ZM139.791 66.2401C139.776 65.6456 139.585 65.0688 139.243 64.582C138.9 64.0952 138.422 63.72 137.867 63.5035C137.312 63.287 136.705 63.2387 136.123 63.3649C135.541 63.491 135.009 63.7859 134.594 64.2125C134.179 64.6391 133.899 65.1786 133.79 65.7632C133.68 66.3478 133.747 66.9516 133.98 67.4988C134.213 68.0461 134.603 68.5126 135.1 68.8397C135.598 69.1668 136.181 69.34 136.777 69.3377C137.185 69.355 137.592 69.286 137.972 69.1352C138.351 68.9844 138.695 68.7553 138.979 68.4628C139.264 68.1703 139.483 67.8211 139.623 67.438C139.763 67.055 139.82 66.6468 139.791 66.2401Z" fill="#0500FF"/>
<path d="M155.347 68.7743C155.347 71.6927 152.782 72.9343 150.063 72.9343C148.955 73.0339 147.841 72.7993 146.867 72.2608C145.893 71.7223 145.104 70.9046 144.6 69.9135L147.909 68.0447C148.04 68.5014 148.324 68.8994 148.714 69.172C149.104 69.4446 149.576 69.5753 150.051 69.5423C150.961 69.5423 151.423 69.2607 151.423 68.7487C151.423 67.3535 145.177 68.0959 145.177 63.7055C145.177 60.9407 147.511 59.5583 150.153 59.5583C151.157 59.5134 152.155 59.7408 153.04 60.2163C153.925 60.6919 154.665 61.3978 155.181 62.2591L151.872 63.9999C151.726 63.6697 151.487 63.3888 151.184 63.1912C150.881 62.9935 150.528 62.8877 150.166 62.8863C149.499 62.8863 149.102 63.1423 149.102 63.5903C149.102 65.0495 155.347 64.0895 155.347 68.7743Z" fill="#0500FF"/>
<path d="M169.288 59.9041V72.5761H165.44V71.3857C165.003 71.9126 164.448 72.3296 163.82 72.6031C163.192 72.8765 162.508 72.9988 161.824 72.9601C159.259 72.9601 157.066 71.1297 157.066 67.7121V59.9041H160.913V67.1361C160.883 67.4384 160.919 67.7437 161.018 68.0309C161.118 68.318 161.279 68.5802 161.49 68.7993C161.701 69.0183 161.957 69.1891 162.24 69.2997C162.524 69.4103 162.828 69.4582 163.132 69.4401C164.517 69.4401 165.492 68.6209 165.492 66.8801V59.9041H169.288Z" fill="#0500FF"/>
<path d="M191.09 64.7936V72.576H187.243V65.1264C187.243 63.8464 186.64 63.0528 185.422 63.0528C184.203 63.0528 183.434 63.936 183.434 65.4336V72.576H179.586V65.1264C179.586 63.8464 178.983 63.0528 177.765 63.0528C176.547 63.0528 175.777 63.936 175.777 65.4336V72.576H171.93V59.904H175.777V61.0688C176.176 60.5542 176.696 60.1467 177.292 59.883C177.887 59.6193 178.539 59.5078 179.189 59.5584C179.839 59.5246 180.488 59.6602 181.07 59.9519C181.652 60.2436 182.149 60.6815 182.51 61.2224C182.933 60.6572 183.492 60.2082 184.136 59.9172C184.78 59.6262 185.487 59.5028 186.191 59.5584C189.192 59.5584 191.09 61.632 191.09 64.7936Z" fill="#0500FF"/>
<path d="M48.029 50.752V45.312H30.8438V82.688H48.029V77.248C44.5086 77.248 41.1324 75.8522 38.6431 73.3678C36.1538 70.8833 34.7553 67.5136 34.7553 64C34.7553 60.4864 36.1538 57.1167 38.6431 54.6323C41.1324 52.1478 44.5086 50.752 48.029 50.752Z" fill="#0500FF"/>
<path d="M48.0291 50.752V77.2479C51.5495 77.2479 54.9257 75.8522 57.415 73.3677C59.9043 70.8832 61.3028 67.5135 61.3028 64C61.3028 60.4864 59.9043 57.1167 57.415 54.6322C54.9257 52.1477 51.5495 50.752 48.0291 50.752Z" fill="#0500FF"/>
<path d="M194.322 59.8273C195.88 59.8273 197.143 58.5665 197.143 57.0113C197.143 55.4561 195.88 54.1953 194.322 54.1953C192.764 54.1953 191.5 55.4561 191.5 57.0113C191.5 58.5665 192.764 59.8273 194.322 59.8273Z" fill="#0500FF"/>
</svg>
