<svg width="482" height="364" viewBox="0 0 482 364" fill="none" xmlns="http://www.w3.org/2000/svg">
<path d="M67.3604 73.1201C61.9079 79.8468 58.4504 88.3988 50.4872 92.8269C44.9586 95.9029 39.1087 98.4972 33.1913 100.762C20.6716 105.562 13.782 114.866 10.9839 127.542C9.31855 135.088 6.85012 142.685 6.73177 150.291C6.49508 165.688 2.70789 180.561 1.34687 195.78C0.332451 207.087 1.9048 218.225 1.51594 229.43C1.39759 232.98 3.51943 235.734 4.63529 238.785C8.22804 248.638 10.4175 258.974 14.9148 268.506C16.9352 272.773 18.3638 277.286 20.7731 281.41C22.7681 284.824 23.8924 288.593 23.9093 292.742C23.9262 296.519 26.5299 299.722 27.0709 303.584C27.2907 305.181 26.9526 307.674 28.7701 309.06" stroke="#141423" stroke-width="2" stroke-miterlimit="10" stroke-linecap="round" stroke-linejoin="round"/>
<path d="M358.331 211.135C353.056 235.701 347.519 260.224 342.591 284.858C339.547 300.06 345.854 312.728 357.858 320.916C359.717 322.184 361.873 322.919 364.265 322.961C378.188 323.223 392.01 322.032 405.84 320.544C414.699 319.589 423.651 318.981 432.553 319.099C443.28 319.235 453.974 318.246 464.727 318.685C469.901 318.896 475.674 317.933 481 315.195C477.34 300.111 474.161 285.187 470.027 270.534C467.026 259.878 463.839 249.323 462.14 238.363C461.878 236.681 461.709 235.016 461.811 233.402C462.166 227.749 461.278 222.433 459.41 217.033C457.102 210.357 458.877 203.453 460.34 196.811C462.893 185.217 465.708 173.665 468.717 162.181C473.493 143.987 469.664 127.128 460.669 111.274C454.896 101.1 448.183 91.4578 441.979 81.5284C439.552 77.6412 437.355 73.6187 434.844 69.292C421.487 79.1031 406.136 86.1086 395.417 99.3338C392.069 103.466 395.763 106.373 396.921 109.736" stroke="#141423" stroke-width="2" stroke-miterlimit="10" stroke-linecap="round" stroke-linejoin="round"/>
<path d="M134.659 125.057C138.97 134.488 142.783 144.105 145.023 154.246C147.66 166.212 145.598 178.042 143.577 189.856C142.681 195.121 141.836 200.394 141.109 205.684C139.731 215.664 141.582 225.569 142.766 235.337C146.359 264.914 150.797 294.39 154.981 323.899C155.404 326.899 155.827 329.84 154.947 332.806" stroke="#141423" stroke-width="2" stroke-miterlimit="10" stroke-linecap="round" stroke-linejoin="round"/>
<path d="M133.67 275.934C130.509 296.731 125.766 317.046 117 336.355C114.32 342.254 111.158 345.338 104.48 345.837C95.1982 346.538 86.0007 348.406 76.7526 349.572C74.6645 349.834 72.4159 350.071 70.3279 349.141" stroke="#141423" stroke-width="2" stroke-miterlimit="10" stroke-linecap="round" stroke-linejoin="round"/>
<path d="M393.954 104.286C390.758 106.179 388.933 109.018 389.093 112.694C389.178 114.57 388.163 116.201 387.394 117.038C378.044 127.102 374.097 139.922 370.064 152.395C368.323 157.795 367.672 163.186 362.735 166.567C359.802 168.578 355.643 168.916 354.358 173.057C349.412 171.797 346.606 177.248 341.99 177.011C339.293 176.868 336.817 177.797 334.593 179.04C323.739 185.099 312.411 189.848 300.492 193.549C292.664 195.983 284.548 197.927 277.168 201.755" stroke="#141423" stroke-width="2" stroke-miterlimit="10" stroke-linecap="round" stroke-linejoin="round"/>
<path d="M104.97 93.9C106.94 97.2887 108.157 100.813 106.881 105.114C111.944 106.982 116.628 109.77 121.725 111.866C132.985 116.497 140.61 124.745 143.62 136.922C144.778 141.62 146.655 146.133 147.99 150.798C149.503 156.105 151.219 161.226 155.395 165.189C156.232 165.983 156.689 167.403 156.892 168.603C158.337 177.282 163.629 183.679 169.302 189.865" stroke="#141423" stroke-width="2" stroke-miterlimit="10" stroke-linecap="round" stroke-linejoin="round"/>
<path d="M135.648 274.945C138.269 280.421 138.125 286.522 139.511 292.286C142.411 304.336 145.665 316.26 149.994 327.879C150.357 328.86 150.357 330.381 151.033 330.761C156.055 333.609 154.914 338.341 154.939 342.719C154.964 347.831 154.947 352.944 154.947 358.056" stroke="#141423" stroke-width="2" stroke-miterlimit="10" stroke-linecap="round" stroke-linejoin="round"/>
<path d="M55.4834 91.424C60.5724 95.0239 63.2776 100.432 65.7714 105.815C67.3775 109.288 69.0598 111.874 73.295 111.722C74.9012 111.663 76.2537 112.381 77.1751 113.581C76.9976 115.652 74.9941 116.463 74.1065 118.111C87.5307 135.908 103.423 151.516 116.383 169.541C123.171 178.98 129.367 188.622 131.683 200.242" stroke="#141423" stroke-width="2" stroke-miterlimit="10" stroke-linecap="round" stroke-linejoin="round"/>
<path d="M154.947 222.019C159.512 224.825 164.246 227.081 169.792 226.996C171.271 226.971 172.945 226.912 174.213 227.529C182.227 231.408 190.841 231.974 199.48 232.405C208.729 232.861 217.774 234.534 226.675 236.96C228.527 237.467 229.55 237.053 230.657 235.878" stroke="#141423" stroke-width="2" stroke-miterlimit="10" stroke-linecap="round" stroke-linejoin="round"/>
<path d="M374.655 203.216C368.171 207.636 360.503 209.25 353.352 212.056C332.903 220.092 311.836 226.472 291.514 234.855C290.263 235.371 288.902 235.616 287.321 236.072C283.373 225.002 276.061 215.166 277.118 203.428C275.85 201.416 274.649 202.6 274.26 202.819C267.81 206.554 261.656 204.273 255.375 202.304C253.135 201.602 250.312 199.625 248.469 203.216" stroke="#141423" stroke-width="2" stroke-miterlimit="10" stroke-linecap="round" stroke-linejoin="round"/>
<path d="M243.033 208.659C242.712 211.693 243.515 214.498 245.053 217.042C245.873 218.402 247.48 218.757 248.967 218.504C250.827 218.191 250.971 216.729 250.988 215.081C251.055 210.078 251.47 205.076 246.541 201.662C245.51 200.952 244.563 200.428 243.54 200.774C234.317 203.918 225.34 200.774 216.32 199.684C209.396 198.848 202.608 196.963 195.524 197.2C194.062 197.251 192.439 196.498 191.095 195.755C188.136 194.107 185.321 192.239 181.66 192.797C181.043 192.89 180.037 192.729 179.733 192.307C176.106 187.194 171.905 190.338 167.805 191.327C162.699 192.56 158.109 194.977 153.459 197.284" stroke="#141423" stroke-width="2" stroke-miterlimit="10" stroke-linecap="round" stroke-linejoin="round"/>
<path d="M133.179 208.659C134.887 217.481 134.676 226.464 135.09 235.371C135.665 247.726 134.566 260.114 135.606 272.469C135.648 273.018 134.997 273.618 134.667 274.193" stroke="#141423" stroke-width="2" stroke-miterlimit="10" stroke-linecap="round" stroke-linejoin="round"/>
<path d="M437.008 66.1988C438.792 63.6636 440.144 61.1285 439.079 57.7651C438.589 56.2187 439.181 54.5032 439.899 52.8131C443.145 45.2329 442.173 37.0359 442.824 29.0923C443.069 26.1093 440.719 23.6586 438.47 21.715C436.289 19.8305 434.328 18.3263 435.351 14.7095C435.943 12.6391 433.322 11.3377 431.547 10.3321C426.805 7.62788 421.978 5.05891 417.227 2.36317C416.576 1.99135 416.17 1.17164 415.232 1.40826C405.679 3.75752 394.935 0.867425 386.464 8.25323C383.835 10.5518 379.693 10.8644 378.036 14.7264C377.394 16.2221 375.813 16.501 374.655 14.7602" stroke="#141423" stroke-width="2" stroke-miterlimit="10" stroke-linecap="round" stroke-linejoin="round"/>
<path d="M414.242 247.244C414.412 249.551 414.547 251.867 414.741 254.165C415.198 259.557 414.192 260.689 408.798 260.072C396.862 258.72 385.12 256.362 373.657 252.695C371.222 251.917 368.712 251.36 366.243 250.7" stroke="#141423" stroke-width="2" stroke-miterlimit="10" stroke-linecap="round" stroke-linejoin="round"/>
<path d="M43.6145 224.487C46.607 226.946 48.1118 229.65 47.2833 233.926C46.8099 236.343 47.9004 239.436 49.1685 241.743C51.341 245.689 52.1018 249.923 52.4062 254.182C52.7274 258.627 53.3445 262.92 55.0098 267.027C60.2003 279.804 63.6663 293.182 68.5186 306.052C71.4689 313.877 75.5096 321.246 75.8055 329.857C75.8562 331.446 77.3694 333.465 74.3008 333.812" stroke="#141423" stroke-width="2" stroke-miterlimit="10" stroke-linecap="round" stroke-linejoin="round"/>
<path d="M436.019 76.0863C426.618 82.9397 416.812 89.2776 408.815 97.8634C401.663 105.537 394.85 113.497 389.541 122.607C388.899 123.705 388.273 124.643 387.039 125.066" stroke="#141423" stroke-width="2" stroke-miterlimit="10" stroke-linecap="round" stroke-linejoin="round"/>
<path d="M441.463 87.4692C429.163 98.1846 415.629 107.235 402.348 116.624C397.285 120.198 392.83 124.271 389.507 129.519" stroke="#141423" stroke-width="2" stroke-miterlimit="10" stroke-linecap="round" stroke-linejoin="round"/>
<path d="M66.8699 16.7295C60.2931 23.8195 57.5964 31.9067 60.4199 41.4728C61.0201 43.5009 59.8112 45.3938 58.856 46.8389C56.4974 50.3966 57.1484 53.7937 58.484 57.2922C60.1747 61.7203 62.2205 65.9625 65.8893 69.1737" stroke="#141423" stroke-width="2" stroke-miterlimit="10" stroke-linecap="round" stroke-linejoin="round"/>
<path d="M112.392 110.717C116.374 113.015 119.316 116.987 120.533 120.697C125.182 134.86 131.802 148.626 131.269 164.141C131.125 168.409 131.852 172.71 132.182 177.003" stroke="#141423" stroke-width="2" stroke-miterlimit="10" stroke-linecap="round" stroke-linejoin="round"/>
<path d="M63.4043 80.0496C71.8156 90.7057 82.5177 99.376 90.109 110.734C94.023 116.59 97.7594 122.564 101.479 128.547C102.147 129.621 102.755 130.584 103.99 130.998" stroke="#141423" stroke-width="2" stroke-miterlimit="10" stroke-linecap="round" stroke-linejoin="round"/>
<path d="M95.5695 257.14C95.7386 259.117 95.7217 261.128 96.0937 263.072C97.4716 270.111 96.6262 271.742 89.6183 272.41C79.7361 273.356 69.9723 275.773 59.9295 274.979C59.6167 274.954 59.2701 275.283 58.9404 275.452" stroke="#141423" stroke-width="2" stroke-miterlimit="10" stroke-linecap="round" stroke-linejoin="round"/>
<path d="M366.243 233.892C381.755 237.585 397.378 240.644 413.253 242.301" stroke="#141423" stroke-width="2" stroke-miterlimit="10" stroke-linecap="round" stroke-linejoin="round"/>
<path d="M422.662 110.218C413.634 114.063 405.019 118.398 399.347 127.001C397.496 129.815 396.65 132.942 395.509 135.967C393.675 140.818 388.814 143.488 387.039 148.313" stroke="#141423" stroke-width="2" stroke-miterlimit="10" stroke-linecap="round" stroke-linejoin="round"/>
<path d="M448.386 162.654C445.055 167.378 439.797 169.423 435.004 172.017C418.072 181.186 400.936 189.992 384.122 199.38C378.83 202.338 373.353 202.65 367.723 203.225C366.725 203.327 365.744 203.546 364.755 203.707" stroke="#141423" stroke-width="2" stroke-miterlimit="10" stroke-linecap="round" stroke-linejoin="round"/>
<path d="M53.0146 132.485C56.8271 138.088 55.6774 144.62 56.4636 150.789C57.4696 158.682 56.7003 166.617 56.9623 174.535C57.123 179.386 55.0688 183.856 53.7838 188.318C51.5605 196.051 48.9146 203.656 47.562 211.633C47.1816 213.898 46.5983 216.095 44.6033 217.574" stroke="#141423" stroke-width="2" stroke-miterlimit="10" stroke-linecap="round" stroke-linejoin="round"/>
<path d="M122.782 164.631C116.822 154.093 109.916 144.037 105.148 132.899C103.525 129.097 103.947 124.407 103.499 120.114C103.271 117.942 105.156 116.387 106.458 116.37C108.183 116.353 110.127 117.012 111.488 119.066C117.219 127.694 119.553 137.505 121.7 147.341C123.035 153.468 123.61 159.755 123.391 166.119C123.281 169.211 124.861 172.186 126.248 175.017" stroke="#141423" stroke-width="2" stroke-miterlimit="10" stroke-linecap="round" stroke-linejoin="round"/>
<path d="M22.8274 295.725C19.9785 309.237 17.9581 322.919 14.2893 336.127C15.9039 338.121 17.8652 335.172 19.3699 336.778" stroke="#141423" stroke-width="2" stroke-miterlimit="10" stroke-linecap="round" stroke-linejoin="round"/>
<path d="M358.33 322.437C356.894 332.662 358.727 342.879 358.575 353.113C358.533 355.876 357.46 359.358 359.817 362.011" stroke="#141423" stroke-width="2" stroke-miterlimit="10" stroke-linecap="round" stroke-linejoin="round"/>
<path d="M438.986 136.44C440.212 136.863 440.998 137.725 441.522 138.942C429.349 141.333 416.948 138.401 404.842 140.894" stroke="#141423" stroke-width="2" stroke-miterlimit="10" stroke-linecap="round" stroke-linejoin="round"/>
<path d="M413.253 186.899C421.064 199.752 429.425 212.14 441.674 221.292C441.496 217.819 440.068 215.073 437.997 212.622" stroke="#141423" stroke-width="2" stroke-miterlimit="10" stroke-linecap="round" stroke-linejoin="round"/>
<path d="M378.12 71.1426C377.791 72.1313 376.971 73.8468 377.207 73.9989C379.743 75.7059 379.126 78.2157 379.092 80.5396C379.042 84.2917 380.809 86.1255 384.553 85.9733C387.191 85.8635 389.837 85.7283 392.466 85.4663C395.847 85.1283 397.91 86.0663 397.986 89.9367C398.02 91.4324 398.899 92.9028 399.398 94.3901" stroke="#141423" stroke-width="2" stroke-miterlimit="10" stroke-linecap="round" stroke-linejoin="round"/>
<path d="M235.611 204.205C230.48 209.791 227.335 215.833 231.114 223.515C231.274 223.844 230.809 224.478 230.666 224.977M261.842 238.337C264.936 235.498 270.211 234.467 269.442 228.425C269.315 227.436 271.572 226.143 272.722 224.985" stroke="#141423" stroke-width="2" stroke-miterlimit="10" stroke-linecap="round" stroke-linejoin="round"/>
<path d="M67.8594 74.6074C76.11 80.7087 84.4536 86.6748 92.5521 92.9705C96.128 95.7508 99.1966 99.1817 102.493 102.308C103.643 103.399 104.522 104.928 106.45 104.784" stroke="#141423" stroke-width="2" stroke-miterlimit="10" stroke-linecap="round" stroke-linejoin="round"/>
<path d="M67.8593 349.64C61.8827 350.78 55.9821 349.302 50.0477 349.09C39.8443 348.718 29.7085 347.62 19.7756 344.747C19.7756 336.845 21.1958 329.155 22.3371 321.44" stroke="#141423" stroke-width="2" stroke-miterlimit="10" stroke-linecap="round" stroke-linejoin="round"/>
<path d="M67.8593 310.564C56.6838 316.099 45.5505 321.761 33.2929 324.499C30.1397 320.832 31.8811 315.905 29.7593 312.052" stroke="#141423" stroke-width="2" stroke-miterlimit="10" stroke-linecap="round" stroke-linejoin="round"/>
<path d="M386.532 118.626C387.284 124.567 385.399 129.866 382.584 134.953C378.763 141.857 374.993 148.803 371.197 155.724" stroke="#141423" stroke-width="2" stroke-miterlimit="10" stroke-linecap="round" stroke-linejoin="round"/>
<path d="M119.324 4.36621C111.243 8.10137 104.04 3.43665 96.5842 1.77188C92.4758 0.85077 88.6379 0.597259 84.6816 1.8902" stroke="#141423" stroke-width="2" stroke-miterlimit="10" stroke-linecap="round" stroke-linejoin="round"/>
<path d="M428.098 131.488C418.021 132.544 408.376 135.088 399.398 139.896" stroke="#141423" stroke-width="2" stroke-miterlimit="10" stroke-linecap="round" stroke-linejoin="round"/>
<path d="M451.852 116.649C456.637 125.818 455.986 135.553 454.819 145.339" stroke="#141423" stroke-width="2" stroke-miterlimit="10" stroke-linecap="round" stroke-linejoin="round"/>
<path d="M377.63 332.324C382.026 335.764 384.757 340.479 387.546 345.178C391.097 351.161 394.783 357.059 398.418 363" stroke="#141423" stroke-width="2" stroke-miterlimit="10" stroke-linecap="round" stroke-linejoin="round"/>
<path d="M268.267 205.693C269.636 208.507 269.416 211.693 270 214.642C270.98 219.628 272.527 223.937 276.754 227.377C278.013 227.013 279.814 226.49 281.623 225.966" stroke="#141423" stroke-width="2" stroke-miterlimit="10" stroke-linecap="round" stroke-linejoin="round"/>
<path d="M370.208 157.212C373.665 155.961 377.596 154.879 379.473 151.693C382.102 147.24 385.788 148.355 388.966 149.42C397.826 152.37 406.491 155.893 415.231 159.198" stroke="#141423" stroke-width="2" stroke-miterlimit="10" stroke-linecap="round" stroke-linejoin="round"/>
<path d="M373.665 18.7068C374.342 22.2645 374.748 25.9236 377.85 28.4334C376.404 32.2615 375.221 35.9544 373.615 39.4614C372.195 42.5628 374.443 44.2613 375.652 46.4078" stroke="#141423" stroke-width="2" stroke-miterlimit="10" stroke-linecap="round" stroke-linejoin="round"/>
<path d="M5.50591 196.786C7.18816 193.727 10.1046 192.096 12.8182 190.27C14.8133 191.842 13.5283 193.287 12.945 194.817C10.316 201.746 6.25827 208.11 4.89725 215.563C4.71127 216.56 4.762 217.574 4.51685 218.554" stroke="#141423" stroke-width="2" stroke-miterlimit="10" stroke-linecap="round" stroke-linejoin="round"/>
<path d="M86.66 41.4642C83.0081 39.5375 80.3368 40.6107 79.2378 44.4304C77.2428 51.3768 81.2667 57.5119 88.6382 58.7795" stroke="#141423" stroke-width="2" stroke-miterlimit="10" stroke-linecap="round" stroke-linejoin="round"/>
<path d="M90.1256 256.641C81.4608 258.297 72.7029 258.948 63.9028 259.117" stroke="#141423" stroke-width="2" stroke-miterlimit="10" stroke-linecap="round" stroke-linejoin="round"/>
<path d="M123.28 78.0637C125.385 84.5876 123.424 87.5453 116.847 87.9762C113.703 88.1875 110.558 88.5086 107.447 88.9734C103.846 89.5143 104.835 93.6888 102.552 95.455C101.394 96.3423 100.845 98.0155 100.016 99.3338" stroke="#141423" stroke-width="2" stroke-miterlimit="10" stroke-linecap="round" stroke-linejoin="round"/>
<path d="M417.218 48.3852C417.886 46.4838 419.568 45.7571 421.174 44.912C423.998 43.4247 427.709 45.2585 428.106 48.3852C428.842 54.1654 425.443 60.2582 420.211 62.7681C419.196 63.2582 418.537 63.7314 418.216 62.2357" stroke="#141423" stroke-width="2" stroke-miterlimit="10" stroke-linecap="round" stroke-linejoin="round"/>
<path d="M420.675 180.958C427.032 188.487 433.44 195.958 441.927 201.29C442.654 201.746 443.263 201.637 443.939 201.738" stroke="#141423" stroke-width="2" stroke-miterlimit="10" stroke-linecap="round" stroke-linejoin="round"/>
<path d="M37.6716 324.415C38.5001 328.209 39.2863 332.003 40.157 335.789C41.3151 340.843 43.8004 343.572 48.5259 342.947C50.9775 342.617 51.3748 344.476 52.9725 344.857C55.3733 345.431 56.5652 345.186 56.9456 342.71C56.9625 342.575 56.6582 342.347 56.4638 342.229C56.3454 342.153 56.1426 342.212 55.9735 342.212" stroke="#141423" stroke-width="2" stroke-miterlimit="10" stroke-linecap="round" stroke-linejoin="round"/>
<path d="M126.746 333.812C123.813 342.702 116.94 349.166 112.392 357.059" stroke="#141423" stroke-width="2" stroke-miterlimit="10" stroke-linecap="round" stroke-linejoin="round"/>
<path d="M26.2931 234.881C33.2166 230.951 38.9649 225.374 46.3449 221.867C45.043 219.966 44.3668 218.985 43.5552 217.785C36.7586 222.027 30.038 226.227 23.3259 230.427" stroke="#141423" stroke-width="2" stroke-miterlimit="10" stroke-linecap="round" stroke-linejoin="round"/>
<path d="M197.503 204.704C199.227 205.287 200.605 202.38 203.268 204.907C197.934 213.662 189.658 219.433 181.669 225.484" stroke="#141423" stroke-width="2" stroke-miterlimit="10" stroke-linecap="round" stroke-linejoin="round"/>
<path d="M70.8265 20.6843C68.0707 25.9659 65.4923 31.2644 65.822 37.5094C65.9235 39.5122 66.3799 41.2699 67.3606 42.9516" stroke="#141423" stroke-width="2" stroke-miterlimit="10" stroke-linecap="round" stroke-linejoin="round"/>
<path d="M463.729 337.277C463.619 344.933 464.912 352.268 468.674 359.045" stroke="#141423" stroke-width="2" stroke-miterlimit="10" stroke-linecap="round" stroke-linejoin="round"/>
<path d="M380.597 21.1829C380.58 23.5068 382.575 24.4533 384.063 24.5124C387.698 24.6561 391.316 24.9772 394.732 25.8223C395.847 22.0533 391.46 23.0843 391.485 20.6843" stroke="#141423" stroke-width="2" stroke-miterlimit="10" stroke-linecap="round" stroke-linejoin="round"/>
<path d="M420.185 13.7633C413.253 12.8253 406.178 12.876 399.398 10.7971" stroke="#141423" stroke-width="2" stroke-miterlimit="10" stroke-linecap="round" stroke-linejoin="round"/>
<path d="M131.193 21.673C131.362 21.673 131.666 21.6899 131.666 21.673C132.377 16.1632 125.411 6.77461 120.305 6.34363" stroke="#141423" stroke-width="2" stroke-miterlimit="10" stroke-linecap="round" stroke-linejoin="round"/>
<path d="M127.237 35.5236C128.522 38.0418 129.409 40.3319 128.378 43.484C126.949 47.8276 130.086 51.5966 131.852 55.2303C133.746 59.1176 133.467 61.1542 129.215 62.2358" stroke="#141423" stroke-width="2" stroke-miterlimit="10" stroke-linecap="round" stroke-linejoin="round"/>
<path d="M51.0368 117.638C47.3764 111.519 42.5157 107.007 35.2034 105.765" stroke="#141423" stroke-width="2" stroke-miterlimit="10" stroke-linecap="round" stroke-linejoin="round"/>
<path d="M166.825 207.67C167.264 204.501 170.519 203.335 172.024 200.217C164.229 199.608 158.768 204.087 152.969 207.67" stroke="#141423" stroke-width="2" stroke-miterlimit="10" stroke-linecap="round" stroke-linejoin="round"/>
<path d="M383.565 153.257C386.109 155.496 389.533 155.488 392.508 156.629C398.147 158.801 402.425 163.127 407.818 165.62" stroke="#141423" stroke-width="2" stroke-miterlimit="10" stroke-linecap="round" stroke-linejoin="round"/>
<path d="M467.195 319.463C467.956 325.378 465.986 330.812 464.228 336.279" stroke="#141423" stroke-width="2" stroke-miterlimit="10" stroke-linecap="round" stroke-linejoin="round"/>
<path d="M400.886 162.164C397.082 162.933 393.734 160.643 390.006 160.541C388.231 160.499 386.38 160.288 384.562 160.186" stroke="#141423" stroke-width="2" stroke-miterlimit="10" stroke-linecap="round" stroke-linejoin="round"/>
<path d="M65.8811 58.2809C67.9945 59.9794 67.7409 62.371 67.893 64.7118C68.0959 67.8807 69.3301 70.4075 72.813 71.1427" stroke="#141423" stroke-width="2" stroke-miterlimit="10" stroke-linecap="round" stroke-linejoin="round"/>
<path d="M405.341 46.4077C406.228 48.326 405.78 50.3626 405.814 52.34C405.915 58.416 407.04 58.3399 411.275 57.7822" stroke="#141423" stroke-width="2" stroke-miterlimit="10" stroke-linecap="round" stroke-linejoin="round"/>
<path d="M259.856 228.45C256.288 228.078 253.82 230.689 251.03 232.084C248.181 233.503 248.968 235.912 252.924 239.334" stroke="#141423" stroke-width="2" stroke-miterlimit="10" stroke-linecap="round" stroke-linejoin="round"/>
<path d="M425.13 12.7746C420.802 8.94648 415.553 9.10705 410.286 9.30986" stroke="#141423" stroke-width="2" stroke-miterlimit="10" stroke-linecap="round" stroke-linejoin="round"/>
<path d="M70.8264 321.44C72.0606 327.981 73.9964 334.386 73.3962 341.231C73.0835 344.797 72.5678 347.764 68.8398 349.141" stroke="#141423" stroke-width="2" stroke-miterlimit="10" stroke-linecap="round" stroke-linejoin="round"/>
<path d="M352.887 177.003C353.106 181.786 355.82 186.476 353.242 192.324C352.075 189.873 351.238 188.132 350.41 186.4" stroke="#141423" stroke-width="2" stroke-miterlimit="10" stroke-linecap="round" stroke-linejoin="round"/>
<path d="M107.447 32.5574C103.601 35.3038 98.554 34.1799 94.5808 36.5122" stroke="#141423" stroke-width="2" stroke-miterlimit="10" stroke-linecap="round" stroke-linejoin="round"/>
<path d="M163.359 188.377C158.853 187.077 154.474 189.408 150.002 188.876" stroke="#141423" stroke-width="2" stroke-miterlimit="10" stroke-linecap="round" stroke-linejoin="round"/>
<path d="M399.897 37.9995C401.106 40.0868 402.627 42.2924 404.876 42.8163C408.156 43.5769 408.477 46.036 409.297 48.3853" stroke="#141423" stroke-width="2" stroke-miterlimit="10" stroke-linecap="round" stroke-linejoin="round"/>
<path d="M81.7146 3.86768C76.4988 5.01695 72.8891 8.22817 70.3362 12.7746" stroke="#141423" stroke-width="2" stroke-miterlimit="10" stroke-linecap="round" stroke-linejoin="round"/>
<path d="M242.534 212.124C237.614 214.363 235.053 218.85 232.145 223.008" stroke="#141423" stroke-width="2" stroke-miterlimit="10" stroke-linecap="round" stroke-linejoin="round"/>
<path d="M62.9055 163.152C59.9806 166.228 60.8936 171.214 57.4614 174.037" stroke="#141423" stroke-width="2" stroke-miterlimit="10" stroke-linecap="round" stroke-linejoin="round"/>
<path d="M36.6819 349.15C35.3047 352.995 37.2396 357.254 35.1948 361.023" stroke="#141423" stroke-width="2" stroke-miterlimit="10" stroke-linecap="round" stroke-linejoin="round"/>
<path d="M400.387 26.625C401.013 32.0334 405.747 33.7404 409.297 36.5206" stroke="#141423" stroke-width="2" stroke-miterlimit="10" stroke-linecap="round" stroke-linejoin="round"/>
<path d="M153.958 221.521C149.064 221.757 145.775 218.47 142.081 216.078" stroke="#141423" stroke-width="2" stroke-miterlimit="10" stroke-linecap="round" stroke-linejoin="round"/>
<path d="M375.652 48.3853C374.663 51.0218 373.75 53.6922 372.668 56.295C370.276 62.0076 372.144 64.3653 378.619 63.723" stroke="#141423" stroke-width="2" stroke-miterlimit="10" stroke-linecap="round" stroke-linejoin="round"/>
<path d="M126.247 343.707C128.724 344.172 131.641 342.482 133.729 345.245C131.184 350.003 126.146 352.58 123.28 357.068" stroke="#141423" stroke-width="2" stroke-miterlimit="10" stroke-linecap="round" stroke-linejoin="round"/>
<path d="M125.758 22.1716C122.047 26.6589 117.287 27.7237 111.919 26.0589C110.178 25.5181 108.851 25.7124 107.447 26.6166" stroke="#141423" stroke-width="2" stroke-miterlimit="10" stroke-linecap="round" stroke-linejoin="round"/>
<path d="M70.8264 58.2809C71.4013 61.847 72.348 65.2357 75.2814 67.6779" stroke="#141423" stroke-width="2" stroke-miterlimit="10" stroke-linecap="round" stroke-linejoin="round"/>
<path d="M63.9028 334.302C66.3713 338.603 64.4523 344.316 68.3578 348.152" stroke="#141423" stroke-width="2" stroke-miterlimit="10" stroke-linecap="round" stroke-linejoin="round"/>
<path d="M358.821 173.048C361.974 176.226 365.297 179.276 367.233 183.434" stroke="#141423" stroke-width="2" stroke-miterlimit="10" stroke-linecap="round" stroke-linejoin="round"/>
<path d="M41.1378 229.439C38.3059 229.98 35.8375 232.075 32.7266 231.416" stroke="#141423" stroke-width="2" stroke-miterlimit="10" stroke-linecap="round" stroke-linejoin="round"/>
<path d="M96.0601 110.717C98.3763 113.497 101.563 115.136 104.471 117.148" stroke="#141423" stroke-width="2" stroke-miterlimit="10" stroke-linecap="round" stroke-linejoin="round"/>
<path d="M65.3824 343.707C62.8379 345.44 60.2426 346.183 57.4614 344.206" stroke="#141423" stroke-width="2" stroke-miterlimit="10" stroke-linecap="round" stroke-linejoin="round"/>
<path d="M356.843 177.003C359.48 178.321 362.118 179.64 364.764 180.958" stroke="#141423" stroke-width="2" stroke-miterlimit="10" stroke-linecap="round" stroke-linejoin="round"/>
<path d="M126.247 64.2131C126.915 68.9962 124.709 70.3229 118.825 68.6666" stroke="#141423" stroke-width="2" stroke-miterlimit="10" stroke-linecap="round" stroke-linejoin="round"/>
<path d="M102.992 103.787C99.5599 105.9 96.9309 108.925 94.082 111.705" stroke="#141423" stroke-width="2" stroke-miterlimit="10" stroke-linecap="round" stroke-linejoin="round"/>
<path d="M109.425 109.728C108.884 112.314 111.546 114.477 110.414 117.148" stroke="#141423" stroke-width="2" stroke-miterlimit="10" stroke-linecap="round" stroke-linejoin="round"/>
<path d="M378.619 327.381C378.442 329.924 381.358 331.589 380.598 334.31" stroke="#141423" stroke-width="2" stroke-miterlimit="10" stroke-linecap="round" stroke-linejoin="round"/>
<path d="M376.142 64.7119C376.142 71.2358 377.419 72.0808 385.052 70.6442" stroke="#141423" stroke-width="2" stroke-miterlimit="10" stroke-linecap="round" stroke-linejoin="round"/>
<path d="M160.89 219.543C159.377 221.908 156.672 219.492 154.956 221.029" stroke="#141423" stroke-width="2" stroke-miterlimit="10" stroke-linecap="round" stroke-linejoin="round"/>
<path d="M241.055 234.382C239.28 235.599 238.511 237.517 237.589 239.326" stroke="#141423" stroke-width="2" stroke-miterlimit="10" stroke-linecap="round" stroke-linejoin="round"/>
<path d="M462.242 331.336C462.571 332.984 462.901 334.632 463.23 336.279" stroke="#141423" stroke-width="2" stroke-miterlimit="10" stroke-linecap="round" stroke-linejoin="round"/>
<path d="M256.888 235.371C258.444 236.123 259.603 237.282 260.356 238.837" stroke="#141423" stroke-width="2" stroke-miterlimit="10" stroke-linecap="round" stroke-linejoin="round"/>
<path d="M122.782 70.1539C124.066 72.0384 125.612 73.906 123.28 76.0862" stroke="#141423" stroke-width="2" stroke-miterlimit="10" stroke-linecap="round" stroke-linejoin="round"/>
<path d="M249.956 238.337C248.528 239.858 247.894 241.464 249.457 243.281" stroke="#141423" stroke-width="2" stroke-miterlimit="10" stroke-linecap="round" stroke-linejoin="round"/>
</svg>
