<svg width="516" height="516" viewBox="0 0 516 516" fill="none" xmlns="http://www.w3.org/2000/svg">
<path opacity="0.7" d="M389.7 455.9C389.1 455.4 389.1 455.5 389.7 455.9V455.9Z" fill="#A7A7B1" fill-opacity="0.7"/>
<path opacity="0.7" d="M382.5 426.1C382.7 426.7 382.8 426.6 382.7 426.4C382.6 426.3 382.6 426.2 382.5 426.1Z" fill="#A7A7B1" fill-opacity="0.7"/>
<path opacity="0.7" d="M409.4 276C409.2 265.6 408 255 405.1 245C405.4 244.3 405.5 243.4 405.3 242.6C404.2 238.9 402.8 235.4 401.2 231.9C400.8 229.8 400.4 227.7 399.8 225.7C399.4 224.3 398.2 223.3 396.8 223C395.9 221.3 394.9 219.5 394 217.8C389.8 210.1 385.5 202.6 380.5 195.4C375.2 188 369.4 180.9 362.5 174.9C359.5 172.2 356.4 169.7 353.9 166.6C353.3 165.9 352.8 165.2 352.2 164.6C352 164.4 351.9 164.2 351.7 164C351.7 164 351.5 163.8 351.4 163.7C351.4 163.7 351.4 163.6 351.3 163.6C351 163.2 350.7 162.8 350.4 162.4C349.5 161.3 348.6 160.3 347.5 159.4C344.2 156.9 339.8 155.8 335.8 155.2C333.4 154.8 331 154.5 328.6 154.3C327.3 154.2 326.1 154.4 324.9 154.8C324.3 155 323.7 155.3 323.2 155.6C323.5 155.3 323.7 155.1 324 154.8C324.1 154.8 324.1 154.7 324.1 154.7C324.1 154.7 324.2 154.6 324.3 154.6C324.7 154.4 325 154.1 325.4 153.9C328.9 151.8 332.1 149.3 333.6 145.3C334.9 141.9 334.1 138.3 333 135C332.5 133.4 331.9 131.8 331.5 130.2C331.4 129.9 331.4 129.6 331.3 129.3C331.3 129.2 331.2 128.5 331.2 128.4C331.2 128 331.2 127.6 331.2 127.3C331.2 127.3 331.2 127.1 331.2 126.9C331.2 126.7 331.3 126.4 331.3 126.3C332.4 121.8 333.8 117.3 335.2 112.8C336.6 108.5 338 104.2 339.8 100.1C341.7 95.9 343.9 91.8 345.8 87.5C347.9 82.6 349.2 77.8 350.1 72.5C350.3 71.4 350.4 70.3 350.6 69.2C350.8 67.9 351.2 66.7 351.2 65.4C351.2 64.3 351.2 63.2 351.4 62.1C351.7 60.8 351.8 59.5 352.3 58.3C352.8 57.1 351.2 56.6 350.4 57.2C350.2 57.3 349.9 57.6 349.6 57.9C349.5 57.8 349.3 57.8 349.2 57.9C349.1 57.9 348.9 58 348.8 58C348.7 58.1 348.6 58.1 348.5 58.2C347.9 58.5 347.6 59.3 347.4 60C347.2 60.5 347.1 61 346.9 61.6C346.9 61.8 346.9 61.9 346.9 62.1C346.8 62.3 346.6 62.6 346.5 62.8C345.9 63.8 345.4 64.6 345.1 65.7C344.8 66.7 344.6 67.7 344.4 68.7C344.2 69.8 344 70.8 343.8 71.9C343.5 71.9 343.2 72.1 343 72.5C342.2 74.6 341.5 76.8 340.6 78.9C340.3 79.5 340.1 80 339.8 80.6C339.8 80.7 339.8 80.7 339.8 80.8C339.6 81.1 339.5 81.5 339.3 81.8C339.2 82 339.2 82.2 339.2 82.3C339.1 82.4 339.1 82.5 339 82.6C338.9 82.7 338.8 82.9 338.7 83.1C338 84.7 337.2 86.2 336.6 87.8C336.6 87.9 336.5 88.1 336.5 88.2C336.2 88.8 336 89.5 335.7 90.1C335.5 90.2 335.4 90.4 335.3 90.6C334.4 92.2 332.9 94.5 333.6 96.4C333.7 96.6 333.8 96.8 334 96.9C332.7 99.9 331.5 102.9 330.4 106C328.9 110.3 327.4 114.6 326.2 118.9C325.6 118.8 324.9 119.1 324.6 119.9C324.3 120.7 324.1 121.5 323.9 122.3C323.9 122.4 323.8 122.5 323.8 122.6C323.7 122.9 323.6 123.2 323.6 123.6C322.9 125.3 322.2 126.9 321.9 128.7C321.5 131.3 321.7 134.4 323.8 136.3C324.1 137.5 324.4 138.7 324.6 139.9C324.8 141.2 324.7 142.4 323.9 143.6C323.5 144.2 322.8 145 322.1 145.3C321.6 145.5 321.1 145.4 320.6 145.6C319.8 145.9 319.2 146.2 318.6 146.8C316.9 148.3 315.4 150.3 314.4 152.4C313.8 153.7 313.7 155.1 314 156.5C314.1 156.7 314.1 157 314.2 157.2C313.8 158.4 313.5 159.7 313.2 160.9C313.1 161.3 313 161.7 312.9 162C312.9 162 312.9 162.1 312.8 162.2C312.7 162.3 312.7 162.5 312.7 162.5C312.5 162.9 312.3 163.3 312.1 163.7C312 164.1 311.8 164.9 311.9 165V165.1C311.8 166 312 166.8 312.8 167.5C312.8 167.7 312.8 168 312.9 168.2C313.1 168.6 313.2 168.9 313.6 169.1C313.8 169.2 314.1 169.3 314.4 169.4C314.6 169.5 314.9 169.5 315.1 169.5C315.7 169.9 316.4 169.7 316.9 169.3C317.2 169 317.4 168.5 317.5 168.1C317.6 167.7 317.8 167.4 317.9 167C317.9 166.9 317.9 166.9 318 166.8C318.3 166.5 318.6 166.1 318.8 165.7C319.6 164.1 320 162.4 320.5 160.7C320.6 160.4 320.7 160.2 320.7 159.9H321C321.1 159.9 321.1 159.9 321.2 159.9C321.3 159.9 321.4 159.9 321.5 159.8C321.6 159.8 321.6 159.8 321.7 159.7C321.8 159.7 321.8 159.7 321.9 159.6C322.1 159.5 322.2 159.5 322.4 159.3C322.9 159.5 323.2 159.7 323.7 160C325 160.7 325.6 160.9 327.2 161.1C329.4 161.3 330.2 161.4 332.4 161.8C334.2 162.1 336 162.5 337.7 163C338.5 163.2 339.3 163.5 340.1 163.8C340.3 163.9 340.5 163.9 340.6 164C340.7 164 340.9 164.1 341 164.2C341.1 164.2 341.2 164.3 341.2 164.3C341.4 164.4 341.6 164.5 341.8 164.6C342 164.7 342.3 164.9 342.5 165C342.6 165 342.6 165.1 342.6 165.1C343.1 165.5 343.5 166 343.9 166.5C344 166.6 344.2 166.8 344.3 167C344.4 167.2 344.7 167.5 344.7 167.6C344.9 167.9 345.2 168.2 345.4 168.5C345.2 168.8 345.1 169.1 345.1 169.4C345 170.6 345.5 171.6 346.3 172.5C346.8 173.1 347.5 173.6 348.2 174.1C348.4 174.3 348.6 174.5 348.8 174.6C349.2 174.8 349.8 174.9 350.2 174.8C350.4 174.7 350.5 174.7 350.6 174.6C351.9 176 353.3 177.2 354.8 178.5C367.8 189.4 377.3 203.5 385.3 218.4C385.8 219.3 386.3 220.3 386.8 221.2C386.8 221.5 386.8 221.8 387 222.1C387.6 223.1 388.1 224.3 388.6 225.4C388.6 225.5 388.6 225.7 388.7 225.9C389 226.8 389.4 227.8 389.7 228.7C389.7 228.8 389.8 228.9 389.8 229C389.9 229.4 390 229.7 390.1 230.1C390 230.4 390 230.8 390.1 231.3C390.9 233.5 391.4 235.9 393.1 237.5C393.3 238.7 393.4 239.9 393.6 241.1C394.1 245.4 395.2 250.2 397.8 253.8C397.8 253.9 397.9 254 397.9 254.1C397.7 254.4 397.5 254.8 397.6 255.3C397.7 255.8 397.8 256.3 397.9 256.9C397.8 257.1 397.8 257.3 397.9 257.6C398 258.1 398.2 258.7 398.3 259.3C398.3 259.4 398.3 259.5 398.3 259.5C398.2 259.7 398.2 259.9 398.2 260.1C398.4 262.9 398.3 265.9 399.4 268.6V268.7C399.4 270.2 399.6 271.6 399.7 273.1C399.7 273.2 399.7 273.3 399.7 273.3C399.5 273.6 399.4 273.9 399.4 274.4C399.4 275.7 399.3 276.9 399.2 278.2C399.1 279.3 399.1 280.6 400 281.4C400.1 281.5 400.3 281.6 400.5 281.6C400.2 282.5 400.1 283.4 399.9 284.3C399.5 286.1 398.8 287.9 399.2 289.8C399.1 290.5 399 291.2 398.9 291.9C398.8 292.2 398.8 292.6 398.7 293L398.6 293.1C397.8 295.1 397 296.9 396.1 298.8C395.8 299.5 396 300.3 396.5 300.9C396.4 301.4 396.2 301.9 396.1 302.4C395.5 305 394.9 307.7 394.5 310.3C394.4 310.8 394.3 311.4 394.3 311.9C394.2 312.5 394.6 313 395.1 313.3C395 313.6 394.9 313.9 394.8 314.1C394.3 315.6 393.6 317.1 393 318.6C392.4 320.1 392.2 321.3 392.2 322.9C392.2 323.1 392.3 323.4 392.5 323.5C391 325.7 389.7 327.9 388.4 330.2C387.9 330.9 387.5 331.6 387.2 332.5C386.9 333.3 387.4 334.2 388.2 334.5C388.3 334.5 388.4 334.6 388.6 334.6C388.6 334.9 388.7 335.1 388.7 335.4C388.6 335.6 388.5 335.8 388.3 336.1C388.1 336.2 387.9 336.4 387.7 336.6C387.5 336.6 387.3 336.8 387.1 337C385.1 339.3 383.9 342.1 382.7 344.9C382.6 345.1 382.6 345.3 382.6 345.5C382.3 345.9 382.1 346.3 381.8 346.7C381.3 347.4 380.8 348.2 380.3 348.9C380.1 349.2 380 349.5 379.9 349.8C379.6 350 379.2 350.3 379 350.5C376 353 373.4 356.1 370.7 358.9C365.1 364.7 359.6 370.6 355.4 377.5C353.5 380.7 356.7 384.4 359.9 383.7C361.2 387.2 362.7 390.3 364 393.5C363.7 393.8 363.5 394.2 363.6 394.7C363.7 395.1 363.8 395.6 363.9 396C363.9 396.1 363.9 396.2 363.9 396.3C363.9 396.4 363.9 396.5 364 396.7C364.3 398.1 364.3 399.6 364.7 401C364.8 401.2 364.8 401.3 364.9 401.4C365 401.9 365.2 402.5 365.3 403C365.4 403.3 365.4 403.6 365.6 403.9C365.6 404 365.6 404.2 365.6 404.3C365.6 404.4 365.6 404.6 365.7 404.7C365.7 404.7 365.7 404.7 365.7 404.8C365.9 406.4 366.4 408 366.6 409.6C366.5 409.8 366.5 410.1 366.6 410.3C366.7 411.2 366.8 412.1 367 412.9C367.1 413.4 367.4 413.7 367.7 413.8C367.9 414.3 368.1 414.9 368.3 415.4V415.5C368.4 415.6 368.4 415.8 368.5 415.9C368.6 416.1 368.7 416.2 368.8 416.3C369 416.8 369.1 417.3 369.3 417.9C369.5 418.5 369.9 418.9 370.4 419C371.1 420.1 372 421.1 373 421.8C374.4 422.8 376.6 423.4 378 422.4C379.4 423.6 380.7 424.8 381.9 426.2C381.9 426.2 381.9 426.2 381.9 426.1C381.9 426.1 381.9 426.1 381.9 426.2C382 426.3 382 426.4 382.1 426.5C382.2 426.6 382.3 426.7 382.3 426.8C382.6 427.2 382.9 427.7 383.1 428.1C383.3 428.5 383.5 428.8 383.6 429.2C383.7 429.5 383.9 429.9 384 430.2C384.8 432.7 385.2 435.4 385.6 438C385.8 439.4 386.1 440.8 386.3 442.2C386.4 442.6 386.4 442.9 386.5 443.3V443.4V443.5C386.6 444.3 386.7 445.2 386.8 446C386.9 447.5 386.9 449 386.8 450.6C386.8 451.9 386.9 453.2 387.6 454.3C388 455 388.4 455.4 389 455.9C389 455.9 389 455.9 389.1 456L389 455.9C389.2 456.4 389.7 456.6 390.2 456.5C390.9 456.4 391.5 456.6 392.2 456.4C393.4 456 394.6 455 395.2 453.9C396.2 452.1 396.2 449.8 396.1 447.8C396 444.6 395.5 441.5 394.9 438.4C394 433.3 393.3 427.9 390.6 423.3C389.3 421.1 387.5 419.1 385.6 417.4C384.5 416.4 383.3 415.5 382.1 414.6C382 414.6 381.7 414.3 381.6 414.2C381.4 414 381.2 413.9 381 413.7C380.4 413.2 379.8 412.6 379.3 412.1C379.1 411.9 378.9 411.6 378.7 411.4C378.6 411.3 378.5 411.1 378.4 411C378.2 410.7 378 410.4 377.8 410.1C377.5 409.6 377.2 409.1 377 408.6C376.9 408.4 376.7 408 376.6 407.8C376.8 408.4 376.9 408.4 376.7 408C376.6 407.8 376.6 407.6 376.5 407.4C375.6 404.9 375.1 402.4 374.4 399.9C373.4 396 372.1 392.3 370.4 388.7C369 385.8 367.4 382.9 366.1 380C372.1 375.9 377.6 371.1 382 365.1C384.9 361.2 386.9 356.9 388.9 352.5C391.3 347.4 394.2 342.5 396.8 337.5C399.4 332.7 401.8 327.7 403.3 322.4C404.7 317.4 405.6 312.2 406.3 307C407 301.9 407.8 296.8 408.2 291.6C409.4 286.4 409.5 281.2 409.4 276Z" fill="#A7A7B1" fill-opacity="0.7"/>
<path opacity="0.7" d="M312.2 163.8C312.2 163.7 312.3 163.7 312.3 163.6C312.4 163.2 312.4 163.1 312.2 163.8Z" fill="#A7A7B1" fill-opacity="0.7"/>
<path opacity="0.7" d="M326.2 210.8C324.4 211.1 322.6 211.2 320.8 211.7C318.5 212.3 316.9 213.9 315.2 215.3C315.2 215.3 315 215.5 314.9 215.5C314.8 215.6 314.7 215.7 314.6 215.7C314.3 215.9 313.9 216.2 313.6 216.4C312.8 217 311.9 217.5 311 218C310.6 218.2 310.2 218.4 309.8 218.6H309.7C309.5 218.7 309.3 218.8 309 218.9C308 219.3 307 219.5 305.9 219.8C305.4 219.9 304.9 220 304.4 220.1C304.3 220.1 304.2 220.1 304.1 220.2C304 220.2 303.9 220.2 303.9 220.2C302.9 220.3 301.9 220.4 300.9 220.3C300.5 220.3 300.1 220.3 299.7 220.2C299.5 220.2 299.3 220.2 299 220.1C298.2 219.9 297.3 219.8 296.5 219.5C296.1 219.4 295.7 219.2 295.3 219.1C295.2 219 295 219 294.9 218.9C294.1 218.5 293.3 218 292.5 217.5C292.4 217.5 292.4 217.4 292.3 217.4C292.2 217.3 292.1 217.3 292.1 217.2C291.8 216.9 291.4 216.6 291.1 216.3C290.4 215.6 289.8 214.9 289.1 214.2C288.6 213.6 288.9 213.9 289 214.1C288.9 214 288.8 213.8 288.7 213.7C288.5 213.4 288.3 213.2 288.2 212.9C288 212.6 287.8 212.3 287.7 212C287.6 211.7 287.2 210.6 287.5 211.6C287.3 211 287.1 210.4 286.9 209.8C286.8 209.5 286.8 209.2 286.7 208.9C286.7 208.8 286.7 208.7 286.7 208.6C286.7 208.6 286.7 208.5 286.7 208.4C286.7 207.8 286.6 207.1 286.6 206.5C286.6 206.2 286.6 205.8 286.7 205.5C286.7 205.3 286.8 205 286.8 204.9C287 203.7 287.3 202.4 287.7 201.2C287.8 201 287.9 200.7 288 200.5C288 200.4 288.1 200.2 288.2 200C288.5 199.3 288.9 198.7 289.2 198C289.5 197.4 289.9 196.9 290.2 196.3C290.4 196 290.6 195.8 290.7 195.6C290.8 195.5 290.9 195.4 291 195.2C291.8 194.2 292.8 193.2 293.8 192.3C294 192.1 294.3 191.9 294.5 191.7C294.5 191.7 294.5 191.7 294.4 191.7C294.4 191.7 294.5 191.7 294.5 191.6C294.6 191.6 294.6 191.5 294.7 191.5C294.7 191.5 294.8 191.5 294.8 191.4C295.3 191 295.9 190.7 296.4 190.3C296.9 190 297.5 189.7 298 189.5C298.1 189.5 298.3 189.4 298.5 189.3C298.8 189.2 299.2 189.1 299.5 189C299.8 188.9 300.2 188.8 300.5 188.8C300.6 188.8 300.7 188.8 300.8 188.7C301.4 188.7 302 188.6 302.6 188.6C302.7 188.6 303.1 188.7 303.3 188.7C303.5 188.7 303.8 188.8 303.8 188.8C304.1 188.9 304.4 189 304.8 189.1C304.8 189.1 304.8 189.1 304.9 189.1C305 189.1 305.2 189.2 305.2 189.2C306.7 189.9 308 190.8 309.5 191.4C311.4 192 313.2 190 312.7 188.2C311.7 184.8 308.1 182.7 304.8 182C301.8 181.3 298.6 181.6 295.7 182.8C289.6 185.2 284.5 190.2 281.7 196.1C278.6 202.4 278 209.6 281.2 216.1C285.1 224.1 293.7 228.7 302.5 228.4C307.9 228.2 313.2 226.7 317.7 223.5C319.7 222.1 322 220.6 323.5 218.7C324.1 217.9 324.7 217.1 325 216.2C325 216.2 325.1 216 325.1 215.9C325.2 215.7 325.3 215.4 325.4 215.2C325.9 214.2 326.3 213.2 326.9 212.2C327.8 211.4 326.9 210.7 326.2 210.8Z" fill="#A7A7B1" fill-opacity="0.7"/>
<path opacity="0.7" d="M294.6 191.7C295 191.5 294.9 191.5 294.8 191.5C294.8 191.5 294.7 191.6 294.6 191.7C294.6 191.6 294.6 191.6 294.6 191.7Z" fill="#A7A7B1" fill-opacity="0.7"/>
<path opacity="0.7" d="M375.2 254C373 244.7 369.4 235.2 363.1 227.9C357.2 221.1 348.4 217.4 339.5 218.9C341.2 215.4 343.1 211.9 344.4 208.1C345.3 205.4 345.6 202.4 345.6 199.5C345.6 198.1 345.4 196.7 345.2 195.3C345 194.5 344.9 193.7 344.6 193C344.5 192.6 344.3 192.2 344.1 191.8C344.1 191.7 344 191.6 344 191.5C343.9 191.3 343.9 191.1 343.8 191.1C343.8 191 343.8 190.9 343.8 190.8C343.7 190.5 343.4 190.1 343.1 190.1C343 190.1 342.9 190.1 342.8 190.1C342.8 190 342.7 189.9 342.7 189.9C342.6 189.6 342.2 189.5 342 189.6C341.6 189.8 341.3 190 341 190.2C340.4 190.7 340.2 191.3 340.1 192C339.9 193.2 340 194.3 340 195.5C340 196.8 340.1 198.1 340.2 199.3C340.2 199.4 340.2 199.6 340.1 199.7C340 200 340.1 200.3 340.2 200.5C340.2 200.8 340.2 201.2 340.2 201.5C340.2 201.7 340.2 201.9 340.2 202C340.3 202.5 340.6 203 341 203.1C340.5 204.5 339.8 205.9 339.2 207.2C337.1 211.9 334.3 216.3 332 221C331.8 221 331.5 221 331.3 221.1C330.9 221.2 330.6 221.5 330.3 221.8C330.2 221.9 330.1 222 330.1 222.1C330.1 222.2 330 222.3 330 222.5C330 222.6 330 222.7 330 222.8V222.9C329.9 223.3 329.9 223.6 329.9 224C329.9 224.4 330.1 224.8 330.5 225.1C330.7 225.2 330.9 225.3 331.1 225.3C331.3 225.3 331.5 225.2 331.7 225.1C331.7 225.1 331.7 225.1 331.8 225.1C331.9 225.2 331.9 225.3 332 225.4C332.7 226.3 334 226.8 335.2 226.5C336.4 226.1 337.6 225.8 338.9 225.6C339.1 225.6 339.4 225.5 339.4 225.5C339.5 225.5 340 225.4 340.3 225.4C340.9 225.3 341.5 225.3 342.1 225.3C343.2 225.3 344.2 225.3 345.3 225.4C345.4 225.4 345.7 225.5 345.8 225.5C345.9 225.5 346.1 225.5 346.2 225.6C346.7 225.7 347.3 225.8 347.8 226C348.2 226.1 348.7 226.3 349.1 226.4C349.3 226.5 350.2 226.8 350.2 226.8C351.1 227.2 351.9 227.7 352.8 228.2C353.1 228.4 353.5 228.6 353.8 228.9C353.9 229 354 229 354.1 229.1C354.2 229.2 354.4 229.3 354.5 229.4C355.3 230.1 356.1 230.8 356.9 231.6C357.6 232.3 358.2 233 358.8 233.7C358.8 233.7 358.8 233.7 358.9 233.8C359.1 234 359.2 234.2 359.4 234.4C359.8 234.9 360.1 235.4 360.4 235.9C361.6 237.7 362.6 239.6 363.6 241.6C363.8 242 364 242.4 364.2 242.9C364.3 243.2 364.4 243.4 364.5 243.7V243.8C364.5 243.8 364.5 243.8 364.5 243.9C365 245 365.4 246.2 365.8 247.3C366.5 249.4 367.2 251.6 367.8 253.7C368.4 255.8 368.8 258 369.2 260.1C369.4 261 369.5 262 369.7 262.9C369.8 263.4 369.9 263.9 369.9 264.4C369.9 264.6 370 264.9 370 265.1V265.2V265.3C370.8 272.1 370.9 279 370.3 285.9C369.2 299.2 365.7 312.6 361.3 325.5C361.1 325.6 360.9 325.7 360.8 325.8C359.8 327 358.9 328.4 358.1 329.9C355.2 334.4 352.2 338.9 349.6 343.6V343.7L349.5 343.8C349.1 343.7 348.6 343.8 348.2 344.2C347 345.6 345.5 346.7 344 347.8H343.9C341.7 348.5 339.6 349.8 337.6 350.9C337.6 350.9 337.2 351.1 337 351.3C336.8 351.3 336.7 351.3 336.5 351.4C336.1 351.5 335.8 351.6 335.5 351.8C334.5 352.4 334 353.3 333.9 354.3C333 355.2 332.6 356.5 333 357.9C333.6 359.9 335.7 361.1 337.7 360.6C349.9 357.2 360.2 347.6 365.4 336.1C368.5 329.2 370.6 321.8 372.6 314.5C374.7 306.8 376.3 299.1 377.2 291.2C378.7 278.8 378.1 266.2 375.2 254Z" fill="#A7A7B1" fill-opacity="0.7"/>
<path opacity="0.7" d="M216.5 300.8C216.2 300.1 216.1 299.3 215.7 298.6C214.8 297.1 213.2 296.7 211.7 296.2C209.6 295.6 207.6 295 205.5 294.4C201.6 293.1 197.7 291.7 193.9 290.1C188.6 288 183.4 285.7 178.1 283.4C178.2 283.3 178.4 283.2 178.5 283.1C181.2 281.6 183.9 280.2 186.7 278.9C186.9 278.8 187.1 278.7 187.4 278.6C187.4 278.6 187.5 278.6 187.6 278.5C187.7 278.4 188.2 278.3 188.3 278.2C189.1 277.9 189.9 277.6 190.7 277.3C192.2 276.7 193.7 276.2 195.3 275.7C198.2 274.7 201.2 274 204.3 273.4C204.6 273.3 205 273.3 205.3 273.2C205.4 273.2 206 273.1 206.1 273.1C206.9 273 207.6 273 208.4 272.9C209.1 272.9 209.8 272.8 210.5 272.8C210.8 272.8 211.1 272.8 211.5 272.8C211.8 272.8 212.1 272.8 212.4 272.7H212.5C212.5 272.7 212.5 272.7 212.7 272.7H212.8C213 272.7 212.9 272.7 212.8 272.7C214.2 272.5 215.4 271.8 215.8 270.3C216.2 269 215.6 267.2 214.3 266.6C211.3 265.3 208.2 265.3 205 265.6C201.6 265.9 198.2 266.6 194.9 267.5C188.2 269.3 181.6 272.1 175.6 275.5C172.6 277.2 169.8 279.1 167.1 281.3C167 281.4 167 281.4 166.9 281.5C166.6 281.4 166.3 281.4 166 281.4C165.7 281.5 165.3 281.6 165 281.8C164.8 281.9 164.6 282.1 164.4 282.1C164.2 282.2 164 282.3 163.9 282.5C163.7 282.7 163.6 283.1 163.6 283.4C163.6 283.8 163.7 284.1 163.9 284.4C164.1 284.8 164.4 285 164.8 285.1V285.2C164.9 285.5 165.1 285.8 165.3 285.9C165.6 286.1 165.9 286.1 166.2 286C166.7 286.9 167.6 287.5 168.6 287.9C176.2 291 183.8 294.4 191.6 297.5C195.4 299 199.3 300.5 203.2 301.7C205.2 302.4 207.3 303 209.4 303.5C211 303.9 212.6 304.3 214.2 303.4C214.9 303 215.4 302.3 216 301.8C216.5 301.8 216.7 301.2 216.5 300.8Z" fill="#A7A7B1" fill-opacity="0.7"/>
<path opacity="0.7" d="M283.9 238C283.8 237.9 282.9 237.3 283.1 237.5C282.6 237 282.3 236.6 281.7 236.2C280.6 235.5 279.5 235.2 278.2 235.1C276.1 235 274 235.1 271.9 235.1C267.7 235.1 263.5 235.1 259.3 234.9C257.3 234.8 255.2 234.7 253.2 234.4C251.1 234.2 249.7 234 247.5 233.6C245.5 233.3 243.5 232.8 241.5 232.4C240.3 232.1 239.3 232.2 238.1 232.4C237.7 232.5 237.3 232.6 236.8 232.7C235.9 232.3 234.8 232.2 233.8 232.1C232.7 232 231.6 231.7 230.6 231.3C228.9 230.6 227 229.8 225.6 228.6C225.5 228.1 225.3 227.6 224.8 227.4C223.4 226.7 222.4 225.7 221.4 224.6C221 223.6 220.5 222.7 220.1 221.8L220.2 221.7C220.4 221.6 220.6 221.5 220.8 221.3C221 221.1 221.2 220.9 221.2 220.6C221.3 220.4 221.3 220.2 221.2 220C221.2 219.8 221.1 219.6 221 219.4C220.9 219.3 220.8 219.2 220.7 219.1C220.6 219 220.5 218.9 220.4 218.8C220.3 218.7 220.2 218.7 220.1 218.7C220 218.7 219.9 218.6 219.8 218.6C219.6 218.6 219.5 218.6 219.3 218.5C219.1 218.5 219 218.5 218.8 218.6C218.7 218.6 218.6 218.7 218.4 218.7C217.9 218.4 217.2 218.5 216.8 219C216.3 219.3 216 219.9 216.2 220.5C216.3 220.8 216.4 221.1 216.6 221.4C215.7 222.6 216 224.8 216.4 225.9C217.1 228.2 219 229.6 220.8 231C223.1 232.6 225.2 234.3 227.7 235.6C230.4 237.1 233.2 238.4 236.1 239.7C238.5 240.8 241 241.8 243.3 243.2C244 243.7 244.7 244.2 245.2 244.8C245.4 245.1 245.5 245.2 245.7 245.5C245.8 245.7 246.1 246.3 246 246.1C246.5 247.4 246.4 248.1 246 249.4C245.6 250.9 245.1 251.9 244.4 253.3C244 254.1 243.5 254.9 243.1 255.7C243 255.9 242.8 256.1 242.7 256.4C242.7 256.4 242.2 257.1 242.6 256.7C242.1 257.5 241.7 258 241.4 258.9C240.8 260.5 240.4 262.2 240.2 264C240 264.3 239.8 264.7 239.7 265.1C239.5 266 239.5 267 240 267.8C240.6 268.8 241.7 269.5 242.9 269.4C243.7 269.4 244.5 269.1 245.1 268.7C246.1 268.1 246.8 267 246.7 265.8C246.7 264.8 246.6 263.9 246.7 262.9C246.7 262.7 246.7 262.5 246.8 262.3C246.8 262.3 246.8 262.3 246.8 262.2C246.8 262.2 246.8 262.2 246.8 262.1C246.9 261.6 247 261.1 247.1 260.6C247.2 260 247.4 259.4 247.4 258.8C247.4 258.6 247.4 258.5 247.4 258.3C247.4 258.2 247.4 258.2 247.4 258.2C247.4 258.2 247.4 258.2 247.4 258.1C247.5 257.2 247.8 256.4 248.1 255.5C248.9 252.7 250.4 250.1 250.2 247.1C250 244.3 248.4 242.1 246.3 240.5C250.3 241.3 254.4 241.8 258.5 242C262.8 242.3 267 242.3 271.3 242.3C273.4 242.3 275.5 242.4 277.6 242.3C279 242.2 280.3 242 281.6 241.2C282.2 240.8 282.5 240.3 283 239.9C282.8 240.1 283.7 239.5 283.8 239.4C284.4 239.1 284.4 238.4 283.9 238Z" fill="#A7A7B1" fill-opacity="0.7"/>
<path opacity="0.7" d="M245.9 211C245.8 211 245.5 211 245.4 211.1C245.5 211.1 245.6 211.1 245.7 211.1C245.8 211 245.8 211 245.9 211Z" fill="#A7A7B1" fill-opacity="0.7"/>
<path opacity="0.7" d="M308.6 50.1C308.4 48.3 307.8 47 306.6 45.7C306.1 45.1 305.6 44.6 305 44.1C304.7 43.8 304.2 43.5 304 43.1L303.9 43C303.9 42.9 303.9 42.8 303.8 42.7C303.6 42.5 303.3 42.4 303 42.4C302.8 42.4 302.7 42.5 302.6 42.5C302.5 42.5 302 42.8 302.4 42.6C301.9 42.8 301.7 43.5 301.9 43.9C302.6 45.9 304.6 46.9 305.3 48.8C305.8 50.2 305.6 52.2 305.4 53.6C305.3 54.9 305 56.2 304.8 57.5C304.3 57.1 303.5 57.1 303.4 57.9C303.1 59.8 302.6 61.6 302.1 63.5C301.7 64.2 301.4 64.9 301.1 65.6C300.9 66 300.7 66.4 300.6 66.8C300.6 66.8 300.6 66.9 300.5 66.9C300.5 67 300.4 67 300.4 67.1C300.3 67.3 300.4 67.6 300.5 67.7C299.1 71.3 297.6 74.8 296.1 78.4C294.7 81.7 293.3 85.1 292.3 88.5C291.8 90.2 291.3 91.9 291 93.6C290.8 94.7 290.5 96 290.9 97.1C290.8 97.2 290.8 97.2 290.7 97.3C290.5 97.4 290.3 97.6 290.2 97.9C290.2 98 290.1 98.1 290.1 98.3C287.7 102.2 286.6 107 285.4 111.4C285.3 111.7 285.4 112 285.4 112.2C284.3 114.9 282.8 117.6 280.7 119.5C279.9 119.3 279.1 119.5 278.5 120.1C278.3 120.3 277.8 120.5 277.4 121C277.3 121.1 277.2 121.2 277.1 121.4C276 121.6 275 122.2 274.8 123.3C274.8 123.5 274.7 123.8 274.8 124C273.6 124.5 272.5 125.2 271.5 126.1C270.6 126.8 270.3 128.2 270.5 129.2C270.7 130.4 271.3 131.2 272.3 131.9C272.4 132 272.6 132.1 272.7 132.2C272.7 132.2 272.7 132.2 272.8 132.3C273.1 132.5 273.4 132.8 273.6 133C274.3 133.5 274.9 134.1 275.6 134.6L275.7 134.7C275.6 135 275.5 135.3 275.5 135.6C275.3 135.8 275.1 136.1 275 136.4C274.9 136.7 274.9 137.1 274.9 137.4C274.9 137.9 274.9 138.4 275.1 138.8C275.1 138.9 275.2 139 275.3 139C275.4 139.4 275.6 139.7 275.8 140C275.1 141.5 274.5 143.1 273.8 144.6C272.7 147 271.9 149.5 271.1 152C269.6 156.9 268.1 161.8 266.7 166.7C266.3 167.9 266 169 265.6 170.2C265.5 170.3 265.3 170.4 265.2 170.5C262.8 172.6 261.7 175.7 260.7 178.6C260.5 179.1 260.3 179.5 260.2 180C260.1 180.3 260.1 180.6 260.2 180.8C258.6 184.1 257.1 187.5 256.6 191.1C255.4 194.3 254.2 197.5 253.3 200.8C253.2 201 253.2 201.2 253.2 201.3C252.7 202.6 252.3 204 251.9 205.3C251.4 206.2 250.8 207.1 250 207.8C249.4 208.4 248.7 209 248.2 209.7C248 209.8 247.8 209.9 247.6 210C247.4 210.1 247.2 210.1 247.1 210.2C247 210.2 246.5 210.4 246 210.5C246.1 210.5 246.1 210.5 245.9 210.5C245.7 210.5 245.5 210.6 245.5 210.6C245.5 210.6 245.5 210.6 245.4 210.6C245.1 210.6 244.8 210.6 244.5 210.6C243.8 210.6 243.1 210.6 242.4 210.6C239.7 210.5 237 210.1 234.4 210C234 210 233.6 210 233.1 210C232.7 209.7 232.2 209.7 231.7 209.6C231.5 209.6 231.3 209.5 231.2 209.5C231.1 209.5 231 209.4 231 209.4C230.9 209.4 230.9 209.4 230.8 209.3C230.4 209 229.9 208.9 229.4 208.8C228.7 208.7 228.2 208.7 227.6 208.7C226.8 208.8 226.1 209.2 225.5 209.7C225.2 210 224.9 210.4 224.8 210.8C224.7 210.9 224.7 211.1 224.6 211.3C224.5 211.7 224.5 212.1 224.6 212.4C222.1 214.6 221.6 218.1 222.2 221.3C222.6 223.3 225 224.5 226.9 224C229 223.4 229.8 221.5 229.6 219.5V219.4C229.6 219.5 229.6 219.5 229.6 219.5C229.6 219.4 229.6 219.3 229.6 219.3C229.6 219.3 229.6 219.3 229.6 219.2V219.1C229.6 218.8 229.6 218.6 229.6 218.3C229.6 218.3 229.6 218.3 229.6 218.2C229.6 218.2 229.6 218.1 229.7 218.1C230.1 218 230.5 217.9 231 217.8C231.3 217.8 231.6 217.7 231.9 217.7C233.2 217.6 234.4 217.7 235.7 217.7C241.5 218 247.2 218.8 252.4 215.8C259 211.9 262 204.3 264.2 197.3C266.9 188.7 269.8 180.3 272.4 171.7C274 166.2 275.6 160.7 277.1 155.1C277.8 152.4 278.6 149.8 279.1 147.1C279.4 144.9 280 142.7 280.3 140.5C280.9 140.1 281.2 139.5 280.7 138.8C280.7 138.8 280.6 138.7 280.5 138.6C280.5 138.5 280.5 138.3 280.4 138.2C283.2 140.3 286.2 142.1 289.6 143.2C291.8 143.9 294.3 144.3 296.1 142.4C298.3 140.1 295.9 137.2 293.6 136.5C292.8 136.3 292.1 136.1 291.3 135.8C291.1 135.7 291 135.7 290.8 135.6C290.8 135.6 290.7 135.6 290.6 135.5C290.5 135.5 290.4 135.4 290.4 135.4C290.1 135.3 289.8 135.1 289.6 135C288.1 134.2 286.7 133.3 285.3 132.3C284.9 132 284.5 131.7 284.1 131.4C284.1 131.4 284 131.3 283.9 131.2C283.8 131.1 283.6 130.9 283.5 130.9C283.1 130.6 282.7 130.3 282.3 130C282.9 129.9 283.4 129.6 283.9 129.2C284.5 128.7 285.1 128.2 285.7 127.7C287.8 125.8 289.5 123.4 291 121C294.3 115.6 296.6 109.6 298.6 103.6C300.5 97.8 302.1 91.9 303.6 85.9C305.5 78.3 307.9 70.9 308.2 63C308 59.2 309.2 54.7 308.6 50.1Z" fill="#A7A7B1" fill-opacity="0.7"/>
<path opacity="0.7" d="M221.1 364.2C221.2 364.2 221.2 364.3 221.3 364.3C221.2 364.2 221.1 364.1 221 364.1C221 364.1 221.1 364.1 221.1 364.2Z" fill="#A7A7B1" fill-opacity="0.7"/>
<path opacity="0.7" d="M221.9 364.6C221.9 364.6 222 364.6 222 364.7C221.9 364.6 221.8 364.6 221.7 364.5C221.7 364.5 221.8 364.5 221.8 364.6C221.8 364.6 221.8 364.6 221.9 364.6Z" fill="#A7A7B1" fill-opacity="0.7"/>
<path opacity="0.7" d="M228.6 367.2C227.9 367.2 227.4 367 226.7 366.8C226.5 366.7 226.3 366.6 226 366.6C225.9 366.6 225.8 366.5 225.6 366.5C225.5 366.4 225.3 366.3 225.1 366.2C225.1 366.2 224.9 366.1 224.7 366C224.3 365.6 223.8 365.3 223.2 365.2C223 365.1 222.8 365 222.6 365C222.3 364.9 222.3 364.9 222.5 365C222.3 364.9 222.1 364.8 221.9 364.8C221.9 364.8 221.8 364.7 221.6 364.7C221.4 364.6 221.4 364.6 221.5 364.6C221.4 364.5 221.2 364.5 221.1 364.4C221.2 364.5 221.1 364.5 220.9 364.3C220.8 364.2 220.7 364.2 220.7 364.2C220.7 364.2 220.7 364.2 220.8 364.2C220.7 364.1 220.6 364 220.5 363.8C220.4 363.6 220.2 363.3 220.1 363.1C219.8 362.7 219.6 362.2 219.4 361.7C219.4 361.6 219.3 361.6 219.3 361.5C219.3 361.5 219.3 361.5 219.3 361.4C219.2 361.1 219.1 360.8 218.9 360.5C217.5 356.9 216.3 353.3 214.8 349.8C213.2 345.8 211.5 341.8 210.7 337.6C210.4 335.9 208.4 334.8 206.8 335.1C205.2 335.3 203.5 336.8 203.7 338.6C203.7 338.9 203.8 339.2 203.8 339.5C203.8 339.6 203.8 339.6 203.8 339.7C203.9 340.1 203.9 340.4 204 340.8C204 341.4 204.1 342.1 204.4 342.7C204.5 343 204.6 343.2 204.8 343.5C205.7 346.6 206.9 349.7 208.1 352.7C209.6 356.4 210.7 360.2 212.2 363.9C213.3 366.6 214.6 369.2 217.2 370.8C218.4 371.6 219.9 372.1 221.4 372.1C221.9 372.1 222.4 372 222.9 371.9C223.3 371.9 223.6 371.7 223.9 371.5C224.1 371.4 224.2 371.3 224.4 371.2C224.3 371.2 224.2 371.3 224.2 371.3C224.3 371.3 224.4 371.2 224.5 371.2C224.6 371.1 224.7 371 224.8 371C224.7 371.1 224.7 371.1 224.6 371.2C224.8 371.1 224.9 371.1 225.1 371C225.4 370.8 225.7 370.6 225.9 370.3C226.3 370.1 226.7 370 227 369.7C227.6 369.3 228.2 368.9 228.8 368.6C229.5 368.1 229.2 367.2 228.6 367.2Z" fill="#A7A7B1" fill-opacity="0.7"/>
<path opacity="0.7" d="M224.6 371C224.6 371 224.7 371 224.7 370.9C224.7 371 224.6 371 224.6 371Z" fill="#A7A7B1" fill-opacity="0.7"/>
<path opacity="0.7" d="M330.5 373.1C330.3 372.6 329.8 372.1 329.5 371.7C328.7 370.7 327.8 369.8 326.8 368.8C326.4 368.4 326.2 368 325.8 367.6C325.4 367.2 324.9 366.8 324.5 366.4C323.4 365.3 322.4 364.4 321.1 363.6C317 361 311.4 359.7 306.7 361.1C306.6 361.1 306.5 361.1 306.4 361.1C306.1 360.9 305.7 360.9 305.3 361C304.7 361.1 304.1 361.3 303.6 361.6C303.5 361.6 303.5 361.7 303.4 361.7C302.4 362 301.4 362.6 300.7 363.5C300 364.1 299.4 364.9 298.8 365.7C298.5 366.2 298.2 366.7 297.9 367.2C297.7 367.6 297.7 367.8 297.6 368.2C297.6 368.3 297.6 368.3 297.6 368.3C297.6 368.3 297.6 368.3 297.6 368.4C297.5 368.7 297.6 368.9 297.6 369.2C297 370.3 296.5 371.5 296.1 372.8C295.7 373.9 295.4 375 295.1 376.1C294.9 376.6 294.7 377.2 294.6 377.7C294.5 377.9 294.4 378.1 294.4 378.3C294.7 377.6 294.1 378.9 294.1 379C293.9 379.4 293.6 379.9 293.4 380.3C293.4 380.4 293.2 380.6 293.1 380.7C293 380.8 292.9 380.9 292.8 381C292.6 381.2 292.6 381.3 292.5 381.3C292.6 381.2 292.7 381 292.2 381.4C292.1 381.5 292.1 381.5 292.1 381.5C291.5 381.7 290.9 381.8 290.3 381.9C289 382.1 287.8 382.4 286.8 383.2L286.7 383.3C286.4 383.1 286 383 285.6 383C283.9 382.8 281.8 383.9 281.5 385.7C281.2 387.1 281 388.4 280.8 389.8C280.2 389.5 279.4 389.7 279.3 390.5C279.1 391.8 278.9 393 278.7 394.3C278.6 394.6 278.6 395 278.5 395.4C278.4 395.5 278.4 395.6 278.3 395.7C277.8 396.8 277.3 398 277 399.2C276.7 400.6 276.4 402 275.9 403.3C275.8 403.6 275.8 404 275.9 404.2C275.7 404.8 275.5 405.3 275.3 405.9C274.8 407.1 274.4 408.2 275 409.4C275.1 409.6 275.3 409.7 275.5 409.7C276.3 412.1 279.6 413.7 281.8 411.4C283.4 409.8 284.3 407.5 285.1 405.5C285.8 403.7 286.3 401.8 286.7 399.9C287.7 399.5 288.4 398.6 288.9 397.5C289.7 395.4 289.9 393.2 290.5 391.1C290.6 390.9 290.6 390.7 290.7 390.4C290.7 390.4 290.8 390 290.9 389.8C291 389.7 291.1 389.5 291.1 389.3C291.5 389.2 291.9 389.1 292.2 389C295 388.4 297.2 387.1 299 384.8C300.4 382.9 301.3 380.8 302 378.6C302.3 377.6 302.6 376.6 302.9 375.6C303 375.1 303.2 374.6 303.4 374.1C303.5 373.8 303.6 373.6 303.7 373.3C303.7 373.2 303.9 372.9 303.9 372.7C304.3 371.9 304.7 371 305.2 370.3C305.2 370.2 305.3 370.2 305.3 370.2L305.4 370.1C305.6 369.9 305.7 369.7 305.9 369.6C306.1 369.4 306.3 369.3 306.4 369.1C306.5 369 306.6 368.9 306.6 368.9C306.6 368.9 306.7 368.9 306.8 368.8C307.2 368.5 307.6 368.3 308.1 368.1C308.1 368.1 308.8 367.9 308.9 367.8C309.2 367.7 309.4 367.7 309.7 367.6C309.8 367.6 309.9 367.6 310 367.5C310.5 367.5 311 367.4 311.5 367.4C312 367.4 312.5 367.5 313 367.5H313.1C313.1 367.5 313.2 367.5 313.3 367.5C313.5 367.5 313.7 367.6 314 367.6C315.1 367.8 316.3 368.2 317.3 368.6C318.2 369 319.3 369.6 320.6 370C321.8 370.4 322.8 370.8 323.9 371.4C325 371.9 325.8 372.8 326.7 373.5C327.2 373.9 327.6 374.2 328 374.6C328.6 375.1 329 375.2 329.7 375.4C330.2 375.5 330.9 375.1 330.8 374.6C330.7 374 330.7 373.5 330.5 373.1Z" fill="#A7A7B1" fill-opacity="0.7"/>
<path opacity="0.7" d="M197.3 460.1C190.8 458.2 184.1 457.7 177.4 456.5C171 455.4 164.6 453.8 158 453.4C159.1 450.4 160.1 447.4 160.4 444.1C160.6 441.8 160.4 439.4 159.8 437.1C159.5 436 159.2 435 158.8 434C159.4 434.1 160 434.2 160.5 434.1C160.6 434.1 161.7 433.6 161.2 433.8C161.8 433.6 162.2 432.9 161.8 432.3C161.6 432 161.4 431.8 161.2 431.6C161.3 431.5 161.4 431.4 161.4 431.3C161.5 431.1 161.5 430.8 161.4 430.6C161.3 430.1 161 429.7 160.6 429.5C160.6 429.5 160.5 429.5 160.4 429.4C160.3 429.4 160.3 429.3 160.2 429.3C160.1 429.2 159.9 429.2 159.8 429.1C159.1 428.8 158.4 428.5 157.7 428.2C156.5 427.7 155 427.3 153.7 427.9C152.9 428.3 152.5 429.2 152.5 430.1C152.5 430.4 152.6 430.7 152.9 431C152.8 431.3 152.7 431.6 152.7 431.9C152.7 431.9 152.7 431.9 152.6 431.8C152.7 433.1 152.7 434.4 152.9 435.7C153 436.5 153.1 437.3 153.2 438.1C153.2 438.2 153.2 438.3 153.2 438.4C153.2 438.7 153.3 438.9 153.3 439.2C153.4 440.1 153.4 441.1 153.4 442C153.4 442.4 153.3 442.9 153.3 443.3C153.2 443.5 153.2 443.8 153.2 444C152.8 445.7 152.2 447.4 151.6 449C151.5 449.2 151.3 449.7 151.3 449.7C151.1 450.1 151 450.4 150.9 450.8C150.7 451.3 150.5 451.8 150.3 452.3C149.8 453.5 149.3 454.7 148.9 456C148 458.2 150.2 460.9 152.5 460.7C159.8 460.3 166.3 462 173.5 463.4C180.2 464.7 187.1 465.2 193.7 466.9C195.2 467.3 196.7 467.8 198.2 468.3C200.4 469 203.5 469.9 205 467.4C207.8 462.9 200.2 460.9 197.3 460.1Z" fill="#A7A7B1" fill-opacity="0.7"/>
<path opacity="0.7" d="M210.5 412.8C210 412.9 209.6 412.9 209.2 412.9C209 412.7 208.7 412.6 208.5 412.4C208.3 412.3 208.1 412.2 207.9 412.1C207.5 411.9 207.1 411.9 206.6 411.9C206.1 411.9 205.6 411.8 205.1 411.9H205C203.8 411.5 202.5 411.1 201.2 410.9C199.1 410.6 196.9 410.4 194.9 411.6C193.2 412.6 191.3 414.8 190.9 416.9C190.5 417.1 190.2 417.3 189.9 417.5C189.5 417.8 189.1 418.2 188.7 418.5C188.2 419 188.2 420 188.7 420.5C189 420.7 189.3 420.9 189.7 420.9C190.1 420.9 190.4 420.7 190.7 420.5C190.9 420.4 191 420.2 191.2 420.1C191.1 420.2 191 420.2 190.9 420.3C191.1 420.1 191.3 420 191.5 419.8C191.8 420.3 192.3 420.7 192.9 420.9C194 421.4 195.5 421.2 196.4 420.2C197.1 419.4 197.7 418.3 198.2 417.3C198.3 417.2 198.4 417.1 198.4 417.1C198.5 417 198.6 417 198.7 416.9H198.6C198.6 416.9 198.7 416.9 198.8 416.8C198.9 416.7 199 416.7 199 416.7C199.1 416.7 199.7 416.5 199.9 416.4C200.1 416.4 200.2 416.4 200.4 416.4C200.8 416.4 201.2 416.4 201.6 416.4C203.3 416.5 205.1 416.7 206.7 416.4C206.8 416.4 206.8 416.4 206.8 416.4C206.8 416.4 206.9 416.4 207 416.4C207.2 416.4 207.4 416.4 207.6 416.3C208.1 416.3 208.5 416.2 209 416.1C209.9 415.9 210.7 415.7 211.5 415.2C213.1 414.6 212 412.6 210.5 412.8Z" fill="#A7A7B1" fill-opacity="0.7"/>
<path opacity="0.7" d="M198.7 417.1C198.9 417.1 199.1 417 199 416.9C199 416.9 198.9 417 198.8 417L198.7 417.1Z" fill="#A7A7B1" fill-opacity="0.7"/>
<path opacity="0.7" d="M290.8 363.3C290.6 363.1 290.3 362.9 290 362.8C289.8 362.1 289.5 361.5 289 361C287.8 359.8 286.1 359 284.6 358.2C281.9 356.9 279.1 355.8 276.6 354.1C276.5 354 276.5 354 276.4 354C276.4 354 276.4 354 276.3 353.9C276 353.7 275.8 353.4 275.5 353.2C275.2 352.9 275 352.7 274.7 352.4C274.6 352.3 274.5 352.2 274.4 352.1C274.4 352 274.3 352 274.3 351.9C273.9 351.3 273.5 350.6 273.2 350C272.9 349.4 273.1 349.8 273.2 349.9C273.1 349.7 273 349.5 273 349.3C272.8 348.8 272.7 348.3 272.6 347.8C272.1 345.6 271.8 343.5 271.4 341.3C271.1 339.3 271.1 337.1 270.2 335.2C269.3 333.2 268.6 331.1 267.8 329.1C266.9 326.8 266 324.1 264.2 322.3C264.1 322.2 264 322.1 263.9 322C262.8 321.2 261.4 322.5 261.7 323.7C262 324.8 262.7 325.8 263.1 326.9C263.5 327.9 263.9 329 264.2 330.1C264.6 331.8 264.7 333.8 264.5 335.4C264.2 337.6 264.4 339.8 264.6 342C264.8 344.4 265.2 346.7 265.7 349C266.5 352.6 268.2 356.1 271 358.6C273.4 360.7 276.2 362.1 279.1 363.4C280.7 364.1 282.2 364.9 283.7 365.7C284.2 366 284.7 366.2 285.2 366.3V366.4C285.4 366.9 285.6 367.3 285.8 367.8C285.5 367 285.8 367.7 285.8 367.9C286 368.4 286.1 368.9 286.2 369.4C286.2 369.5 286.3 369.7 286.3 369.9C286.3 370.1 286.3 370.3 286.4 370.4C286.4 370.9 286.5 371.5 286.4 372C286.4 372.2 286.4 372.5 286.4 372.7C286.4 372.8 286.3 373.4 286.3 373.3C286.2 373.8 286.1 374.3 286 374.8C285.9 375 285.9 375.2 285.8 375.5C285.8 375.6 285.6 376.1 285.6 376.1C285.4 376.6 285.2 377 284.9 377.5C284.4 378.4 284.6 379.6 285.4 380.2C285.7 380.4 286.2 380.6 286.6 380.6C286.8 380.9 287.1 381.1 287.4 381.3C288.2 381.8 289.1 381.7 289.9 381.3C289.9 381.3 290 381.2 290.1 381.2H290.2C291.2 380.8 291.9 380.2 292.4 379.3C292.7 378.7 293 378.1 293.3 377.5C294 375.8 294.5 374.3 294.6 372.4C295.2 368.8 293.4 365.5 290.8 363.3Z" fill="#A7A7B1" fill-opacity="0.7"/>
<path d="M386.1 335.9C383.2 334.9 379.5 336.1 377.5 332.5C385.8 320.5 388.3 306.6 390 292.3C392.3 272.6 388.4 254.3 379.8 236.4C372.2 220.5 362.9 205.9 350.3 193.3C347.7 190.7 344.9 188.2 340.7 188.1C338.7 189.9 339.4 192.3 339.7 194.2C341.4 203.9 338.1 211.9 331.6 219.1C330.2 220.6 328.6 222 329.5 224.2C330.5 226.6 333 226 334.8 225.7C347.4 223.3 355.5 230 360.8 239.1C369.8 254.4 372.1 271.1 369.8 288.8C368.1 301.9 365 314.5 359.3 326.3C354.6 335.9 349.9 345.7 338.1 349.8C333.3 351.5 332.5 355.7 335.4 359.8C341.2 367.9 348.1 375.3 352.4 384.2C356.4 392.6 359.9 401.2 362.7 410C363.4 412.2 362.8 414.1 363.3 416.1C359.1 417.3 358.1 415.1 356.7 412.6C352.1 404.4 350 395.3 345.2 387.1C337.3 373.5 326.5 363.9 310.4 360.2C303.7 358.7 300.5 360.9 297.9 367.3C296.7 370.2 295.6 373 294.9 376" stroke="#141423" stroke-width="2.2" stroke-miterlimit="10" stroke-linecap="round" stroke-linejoin="round"/>
<path d="M447.8 334.9C415.9 334.4 419.5 336.1 387.2 335.2C384.3 342 380.5 348.8 376 355.3C371.5 361.7 367.3 368.2 359.5 371.6C358.4 372.1 357.7 373.2 356.8 374.1C353.7 377.1 353.5 379.7 356.9 382.2C362.4 386.3 363.2 392.1 364.4 398C365.6 404 365.8 410.1 368.5 415.8C370.4 419.7 372.6 422.4 377.2 422.8C381.1 423.2 383.1 425.7 383.5 428.9C384.6 436.8 385.4 444.8 386.2 452.8C386.5 455.4 385.8 458.1 384 459.8C377 466.8 369.3 473.1 359.5 476C351.9 478.3 343.9 478 336 478C318.7 478 301.5 477.1 284.2 475.8C270.1 474.8 256.1 473.4 242 472.4C222.9 471 203.9 468.7 184.9 466.4C174.9 465.2 165 463.1 155 461.4C153.7 461.2 152.5 460.9 151.3 460.4C147.9 459 146.9 456.6 149.2 453.9C154.5 447.6 153.2 440.5 152.2 433.5C151.5 428.3 151.8 427.3 157.1 426.9" stroke="#141423" stroke-width="2.2" stroke-miterlimit="10" stroke-linecap="round" stroke-linejoin="round"/>
<path d="M158.6 424.8C182.3 428.5 206.2 430.2 230.2 432C250.5 433.5 270.8 435.4 291.1 437C302.5 437.9 313.9 438.3 325.3 439.1C329.9 439.4 334.5 440.4 339.2 440.2C339.9 440.2 341.8 440.1 341.9 441.9" stroke="#141423" stroke-width="2.2" stroke-miterlimit="10" stroke-linecap="round" stroke-linejoin="round"/>
<path d="M188 418.7C188.5 418.2 189.4 417.7 189.5 417.2C190.7 411.4 195.6 410.7 200.2 410.7C207.3 410.8 214.5 411.5 221.6 412.1C232.5 413.2 243.3 414.4 254.2 415.6C260.3 416.3 266.3 417 272.4 417.6C274.2 417.8 275 418.5 275.1 420.6C268.8 424.5 261.6 426.5 254.2 426.6C241.3 426.9 228.5 425.3 215.7 423.9C208.8 423.1 201.9 421.8 194.9 421.7C194 421.7 193 422 192.3 421.6C188.8 419.9 185.5 419.1 181.5 420.5C179.6 421.2 177 420.8 174.6 420.3C168.5 418.9 162.7 420.6 157 422.4C157.4 431.5 165.4 429.7 170.4 430.7C181.3 432.8 192.4 433.9 203.5 434.9C216.6 436.2 229.8 436.9 243 438C253 438.9 262.9 440.2 272.9 440.9C278 441.3 283.2 441.6 288.4 441.8C304.8 442.4 321.2 444 337.5 442.8C344.9 442.2 352.1 442.1 359.4 443" stroke="#141423" stroke-width="2.2" stroke-miterlimit="10" stroke-linecap="round" stroke-linejoin="round"/>
<path d="M321 192.6C324.5 188.2 324.6 182.5 327.8 177.8C333 170.3 339.2 168.4 346.6 173.3C349.7 175.4 352.7 177.6 355.7 179.9C373.3 193.3 382.3 211.8 389.9 231.2C393.4 240 396.1 248.9 397.9 258.1C400 269.5 400.3 281.1 399 292.6C397.4 305.7 394.5 318.5 389 330.7C388.5 331.8 388.6 333.1 388.4 334.2" stroke="#141423" stroke-width="2.2" stroke-miterlimit="10" stroke-linecap="round" stroke-linejoin="round"/>
<path d="M343.4 172.8C337 179 336.4 187.1 335.3 195.1C333.6 208.4 326.6 223.7 312.4 228.1C303.2 230.9 294.5 230.4 286.8 224.1C278.7 217.5 276.3 208.8 279 199.8C283.4 185.4 302.4 177.5 316.4 187.1C318.3 188.5 320.6 191.2 321.1 192.8" stroke="#141423" stroke-width="2.2" stroke-miterlimit="10" stroke-linecap="round" stroke-linejoin="round"/>
<path d="M348.2 57C353 55.6 354 53.7 350.8 51.5C346 48.2 341.7 43.4 334.3 45.1C332.1 45.6 329.3 43.7 326.9 42.8C320 40.2 312.6 41 305.5 39.4C303.9 39 302 40.4 301.4 41.9C301 42.8 300.1 44 301.7 45.5C305.4 48.9 304.9 53.3 303.4 57.6C296.6 76.7 289.9 95.9 283.1 115C282.2 117.5 281.1 119.6 278.3 120.7C276.7 121.3 273.8 121.1 274.5 124.2C267.8 126.6 270.5 129.8 273.4 133.4C275.6 136.2 274.9 139.6 273.9 142.5C267.1 162.2 260.2 181.8 253.1 201.4C250 210 243.9 212.6 234.5 210.1C226.3 207.9 224.7 209 222.6 217.2C222 219.6 219.8 222.1 221.7 224.3C224.9 227.9 228.6 231.4 233.9 231.9C239.9 232.5 245.2 235.4 250.9 236.7C260.5 238.9 270 239.7 279.8 238.6C281 238.5 282.3 238.9 283.5 239.1" stroke="#141423" stroke-width="2.2" stroke-miterlimit="10" stroke-linecap="round" stroke-linejoin="round"/>
<path d="M293.7 377C291.1 378.3 294.7 382.6 289.3 382.7C282.5 380.3 282.8 380.4 279.7 388.2C277.9 392.7 277.4 397.4 276.2 402C275.3 405.3 274 408 270.7 409.7C265.1 406.9 258.7 407.3 252.6 406.7C237.3 405.2 222 404.8 206.7 403.3C200.8 402.7 195.4 402.1 190.1 405.4C184.3 409 182.3 413.5 184.8 419.2" stroke="#141423" stroke-width="2.2" stroke-miterlimit="10" stroke-linecap="round" stroke-linejoin="round"/>
<path d="M202.8 335.9C201.6 335.9 200.2 335.9 199 335.9C171.2 335.9 95.1 335.9 67.3 335.9" stroke="#141423" stroke-width="2.2" stroke-miterlimit="10" stroke-linecap="round" stroke-linejoin="round"/>
<path d="M346.6 59.1C343.8 69.9 339.3 80.1 335.4 90.6C330.8 103.1 326 115.6 321.6 128.2C320.6 131.1 321.8 133.9 324.1 136.3C326.7 138.9 326.4 143.8 323.6 144.2C316.3 145.1 316.1 150.6 314.7 155.1C313.5 158.7 312.3 162.4 311.8 166.2C311.3 169.9 314.5 170.1 316.3 170.5C317.8 170.9 319.4 169.2 319.5 166.7C319.8 160.2 321 159.6 327.4 161.6C331.8 163 336.2 164.9 340.8 165.5C345.6 166.2 345.5 168.5 344.5 171.7" stroke="#141423" stroke-width="2.2" stroke-miterlimit="10" stroke-linecap="round" stroke-linejoin="round"/>
<path d="M220 218.5C216.2 214.7 216.1 219.4 215.9 220.6C215.2 224 215.8 227.5 218.4 230.2C224.5 236.5 232.2 240 240.8 241.8C245.2 242.7 246.8 244.1 245.5 247.9C243.9 252.9 241.7 257.8 239.7 262.6C238.2 266.1 239.1 268.5 242.9 269.7C244.8 270.3 246.8 270.9 248.8 271.2C253.7 272 254.8 271.2 256.3 266.2C257.7 261.3 259.4 256.4 260.5 251.5C261.3 247.9 263.2 246.6 267 246.9C270 247.2 273.1 246.7 276.1 247C280.5 247.4 283.8 246.4 285.2 241.9C286.8 236.9 291 238.6 294.2 239.5C300 241.1 305.6 243.6 311.3 245.4C317.8 247.5 320.7 245.9 322.5 239.9C325.4 230.1 338.9 226.2 347.1 232.8C353.3 237.9 355.5 245.1 357.7 252.1C362.8 268.6 362.3 285.1 358 301.9C355.5 311.5 353 321 348.1 329.8C345.2 335 341.6 339.6 335.3 341.5C328.4 343.7 317.4 339.7 313.4 330.8C311.8 327.2 310.7 323.5 308.7 320.1C306.3 316 302.2 313.7 298.4 310.6C304.3 303.9 314 305.7 320.2 300C316.3 294.4 309.6 293.5 303.8 291.8C285.4 286.4 266.8 281.7 248.3 276.4C239.6 273.9 231 270.9 222.7 267.2C211.6 262.3 201 264.3 190.7 268.5C181.2 272.3 171.9 276.8 163.3 282.7C163.7 286.8 167 288.2 170.4 289.7C186.4 297.1 203.8 300.8 220.6 305.9C229.9 308.8 239.5 311.1 248.3 315.1C253.3 317.3 259 319.3 260.1 325.7C260.2 326.4 260.5 327.2 259.6 327.7" stroke="#141423" stroke-width="2.2" stroke-miterlimit="10" stroke-linecap="round" stroke-linejoin="round"/>
<path d="M260.6 327.2C264.6 329.9 263.7 334.1 263.7 337.9C263.7 343.2 264.5 348.2 266.4 353.1C268.6 358.7 272.8 362 278.7 363.8C285.9 366 287.6 369.4 285.2 375C284.1 377.6 283.3 378.7 279.7 377.2C274.8 375.1 269.5 374.1 263.7 375.8C259.7 377 255.9 375.5 253.5 371.4C250.4 366.2 249 366.2 242.9 367.7C236.4 369.3 229.8 370.7 223.2 371.8C216.8 372.8 213.5 370.2 211.4 363.8C209.1 356.5 206.3 349.3 204 341.9C202.1 335.8 202.5 335.4 209.3 333.8" stroke="#141423" stroke-width="2.2" stroke-miterlimit="10" stroke-linecap="round" stroke-linejoin="round"/>
<path d="M259 328.3C258.1 328.3 257.5 327.5 256.3 328.2C246.9 333.5 236.6 336.7 225.9 338.9C222 339.7 218.1 339.6 214.1 338.9C210.9 338.4 209.4 336.8 209.3 333.8" stroke="#141423" stroke-width="2.2" stroke-miterlimit="10" stroke-linecap="round" stroke-linejoin="round"/>
<path d="M306.6 41.8C304.4 43.3 305.9 44.3 307.1 45.3C312.5 49.8 319.1 51.9 325.8 53.9C332.6 56 339.5 57.7 346.9 58.5C348.8 54.4 346.5 52.4 342.9 50.8C340.3 49.6 337.9 48.1 335.4 46.8" stroke="#141423" stroke-width="2.2" stroke-miterlimit="10" stroke-linecap="round" stroke-linejoin="round"/>
<path d="M275 124.6C284.6 136.1 297.5 140.3 312.4 140.3C314.3 140.3 316.4 140.7 317.2 138.3" stroke="#141423" stroke-width="2.2" stroke-miterlimit="10" stroke-linecap="round" stroke-linejoin="round"/>
<path d="M253.2 318.6C244.8 319.4 235.9 318.8 228.2 322.3C221.6 325.3 214.2 327.3 209.4 333.3" stroke="#141423" stroke-width="2.2" stroke-miterlimit="10" stroke-linecap="round" stroke-linejoin="round"/>
</svg>
