<svg width="159" height="19" viewBox="0 0 159 19" fill="none" xmlns="http://www.w3.org/2000/svg">
<path d="M9.94 12.36H10.46C10.5267 12.7333 10.5867 13.2067 10.64 13.78C10.6933 14.34 10.7067 14.8867 10.68 15.42C10.48 15.58 10.24 15.7133 9.96 15.82C9.68 15.9133 9.38 15.9933 9.06 16.06C8.75333 16.1267 8.43333 16.1733 8.1 16.2C7.78 16.2267 7.47333 16.24 7.18 16.24C6.06 16.24 5.06 16.1 4.18 15.82C3.3 15.5267 2.55333 15.0867 1.94 14.5C1.34 13.9133 0.873333 13.1667 0.54 12.26C0.22 11.34 0.0600001 10.2533 0.0600001 9C0.0600001 7.69333 0.24 6.58667 0.6 5.68C0.96 4.76 1.44667 4.01333 2.06 3.44C2.67333 2.85333 3.38667 2.42667 4.2 2.16C5.01333 1.89333 5.86667 1.76 6.76 1.76C7.64 1.76 8.38 1.82 8.98 1.94C9.58 2.04667 10.1067 2.21333 10.56 2.44C10.56 2.65333 10.5533 2.90667 10.54 3.2C10.5267 3.48 10.5067 3.78 10.48 4.1C10.4533 4.42 10.42 4.73333 10.38 5.04C10.34 5.34667 10.3 5.62667 10.26 5.88H9.74L8.7 3C8.55333 2.92 8.30667 2.86667 7.96 2.84C7.62667 2.81333 7.29333 2.8 6.96 2.8C6.29333 2.8 5.66 2.92667 5.06 3.18C4.47333 3.42 3.95333 3.8 3.5 4.32C3.06 4.82667 2.70667 5.47333 2.44 6.26C2.17333 7.03333 2.04 7.94667 2.04 9C2.04 9.94667 2.16 10.8067 2.4 11.58C2.64 12.34 2.98667 12.9933 3.44 13.54C3.89333 14.0733 4.44667 14.4867 5.1 14.78C5.75333 15.06 6.49333 15.2 7.32 15.2C7.76 15.2 8.12667 15.1667 8.42 15.1C8.71333 15.0333 8.90667 14.9467 9 14.84L9.94 12.36ZM13.2023 16L12.3023 18.96H11.7823C11.7157 18.3067 11.6623 17.6467 11.6223 16.98C11.5957 16.3133 11.5823 15.66 11.5823 15.02H12.9423C13.1023 14.8333 13.2823 14.54 13.4823 14.14C13.6823 13.74 13.869 13.2267 14.0423 12.6C14.229 11.96 14.3823 11.2 14.5023 10.32C14.6357 9.42667 14.7023 8.38667 14.7023 7.2C14.4223 7.12 14.169 7.02 13.9423 6.9C13.7157 6.78 13.509 6.65333 13.3223 6.52V6H21.8223V6.52C21.4623 6.76 21.0223 6.92 20.5023 7V15.02H22.2823C22.2957 15.66 22.2823 16.3133 22.2423 16.98C22.2023 17.6467 22.1423 18.3067 22.0623 18.96H21.5623L20.6623 16H13.2023ZM15.8023 7C15.8023 8.2 15.7423 9.24667 15.6223 10.14C15.5023 11.0333 15.3557 11.8 15.1823 12.44C15.0223 13.0667 14.849 13.5933 14.6623 14.02C14.4757 14.4333 14.309 14.7667 14.1623 15.02H18.7023V7H15.8023ZM31.7872 14.6C31.6805 14.8267 31.5139 15.04 31.2872 15.24C31.0605 15.44 30.8005 15.6133 30.5072 15.76C30.2139 15.9067 29.8939 16.02 29.5472 16.1C29.2005 16.1933 28.8472 16.24 28.4872 16.24C27.7005 16.24 27.0072 16.12 26.4072 15.88C25.8072 15.6267 25.3072 15.2733 24.9072 14.82C24.5072 14.3533 24.2005 13.8 23.9872 13.16C23.7872 12.52 23.6872 11.8 23.6872 11C23.6872 9.29333 24.0805 7.99333 24.8672 7.1C25.6539 6.20667 26.7672 5.76 28.2072 5.76C28.6739 5.76 29.1339 5.82667 29.5872 5.96C30.0405 6.08 30.4405 6.28667 30.7872 6.58C31.1472 6.87333 31.4339 7.26667 31.6472 7.76C31.8739 8.24 31.9872 8.84 31.9872 9.56C31.9872 9.78667 31.9739 10.02 31.9472 10.26C31.9339 10.4867 31.9005 10.7333 31.8472 11H25.6072C25.6072 11.56 25.6739 12.0867 25.8072 12.58C25.9539 13.06 26.1672 13.48 26.4472 13.84C26.7272 14.2 27.0805 14.4867 27.5072 14.7C27.9339 14.9 28.4339 15 29.0072 15C29.4739 15 29.9472 14.9333 30.4272 14.8C30.9072 14.6667 31.2672 14.4933 31.5072 14.28L31.7872 14.6ZM28.1272 6.64C27.3672 6.64 26.7872 6.9 26.3872 7.42C25.9872 7.92667 25.7472 8.82667 25.6672 10.12H30.0672C30.0805 10 30.0872 9.88667 30.0872 9.78C30.1005 9.66 30.1072 9.54667 30.1072 9.44C30.1072 8.58667 29.9472 7.90667 29.6272 7.4C29.3072 6.89333 28.8072 6.64 28.1272 6.64ZM34.6342 14.28C34.8209 13.96 34.9876 13.5333 35.1342 13C35.2809 12.4667 35.4009 11.88 35.4942 11.24C35.6009 10.6 35.6809 9.93333 35.7342 9.24C35.7876 8.53333 35.8142 7.85333 35.8142 7.2C35.5476 7.12 35.3009 7.02 35.0742 6.9C34.8609 6.78 34.6609 6.65333 34.4742 6.52V6H42.6542V6.52C42.2276 6.76 41.7876 6.92 41.3342 7V15.02C41.6142 15.0867 41.8609 15.16 42.0742 15.24C42.2876 15.32 42.4809 15.4067 42.6542 15.5V16H38.3542V15.5C38.6742 15.2733 39.0676 15.1133 39.5342 15.02V6.88H36.8942C36.8809 7.58667 36.8409 8.34 36.7742 9.14C36.7076 9.92667 36.6076 10.7067 36.4742 11.48C36.3409 12.24 36.1676 12.96 35.9542 13.64C35.7409 14.3067 35.4809 14.8667 35.1742 15.32C34.9209 15.7067 34.6476 15.9733 34.3542 16.12C34.0609 16.28 33.7876 16.3333 33.5342 16.28C33.3342 16.0533 33.1409 15.76 32.9542 15.4C32.7809 15.0267 32.6809 14.6867 32.6542 14.38L32.9342 13.88L34.6342 14.28ZM51.6336 13.38C51.6336 13.6733 51.6403 13.9267 51.6536 14.14C51.6669 14.3533 51.6803 14.58 51.6936 14.82L53.0736 15.02V15.44C52.7403 15.6133 52.3669 15.7667 51.9536 15.9C51.5536 16.0333 51.1669 16.1333 50.7936 16.2H50.2936C50.1603 15.8933 50.0803 15.56 50.0536 15.2C50.0269 14.8267 50.0069 14.42 49.9936 13.98H49.8936C49.8403 14.2467 49.7336 14.52 49.5736 14.8C49.4269 15.0667 49.2269 15.3067 48.9736 15.52C48.7336 15.7333 48.4469 15.9067 48.1136 16.04C47.7803 16.1733 47.4003 16.24 46.9736 16.24C46.1603 16.24 45.4936 15.9933 44.9736 15.5C44.4669 15.0067 44.2136 14.36 44.2136 13.56C44.2136 12.9467 44.3336 12.4467 44.5736 12.06C44.8269 11.66 45.1936 11.3467 45.6736 11.12C46.1536 10.8933 46.7469 10.7333 47.4536 10.64C48.1603 10.5333 48.9803 10.4533 49.9136 10.4C49.9669 9.82667 49.9803 9.31333 49.9536 8.86C49.9403 8.39333 49.8669 8 49.7336 7.68C49.6136 7.34667 49.4269 7.09333 49.1736 6.92C48.9336 6.73333 48.6136 6.64 48.2136 6.64C48.0269 6.64 47.8136 6.65333 47.5736 6.68C47.3469 6.69333 47.1203 6.74667 46.8936 6.84L45.9536 9.24H45.4336C45.3003 8.84 45.1803 8.42667 45.0736 8C44.9803 7.57333 44.9203 7.15333 44.8936 6.74C45.4003 6.43333 45.9603 6.19333 46.5736 6.02C47.2003 5.84667 47.8936 5.76 48.6536 5.76C49.3336 5.76 49.8736 5.86 50.2736 6.06C50.6869 6.24667 51.0003 6.49333 51.2136 6.8C51.4269 7.10667 51.5669 7.44667 51.6336 7.82C51.7003 8.19333 51.7336 8.56667 51.7336 8.94C51.7336 9.74 51.7136 10.5133 51.6736 11.26C51.6469 11.9933 51.6336 12.7 51.6336 13.38ZM47.7736 15C48.1069 15 48.4003 14.9333 48.6536 14.8C48.9069 14.6667 49.1203 14.5067 49.2936 14.32C49.4669 14.1333 49.6069 13.9467 49.7136 13.76C49.8203 13.56 49.8936 13.3933 49.9336 13.26V11.16C49.1603 11.16 48.5269 11.2 48.0336 11.28C47.5403 11.36 47.1536 11.4867 46.8736 11.66C46.5936 11.8333 46.4003 12.0533 46.2936 12.32C46.1869 12.5733 46.1336 12.8667 46.1336 13.2C46.1336 13.7733 46.2803 14.22 46.5736 14.54C46.8669 14.8467 47.2669 15 47.7736 15ZM58.6113 16H54.3113V15.5C54.4979 15.3933 54.7046 15.3067 54.9313 15.24C55.1579 15.16 55.3913 15.0867 55.6313 15.02V7C55.3913 6.93333 55.1579 6.86667 54.9313 6.8C54.7046 6.72 54.4979 6.62667 54.3113 6.52V6H58.6113V6.52C58.3046 6.70667 57.9113 6.86667 57.4313 7V10.5H61.8713V7C61.4046 6.92 61.0046 6.76 60.6713 6.52V6H64.9913V6.52C64.6313 6.74667 64.1913 6.90667 63.6713 7V15.02C63.9113 15.0733 64.1446 15.1333 64.3713 15.2C64.5979 15.2667 64.8046 15.3667 64.9913 15.5V16H60.6713V15.5C61.0046 15.26 61.4046 15.1 61.8713 15.02V11.38H57.4313V15.02C57.6979 15.0733 57.9246 15.14 58.1113 15.22C58.2979 15.3 58.4646 15.3933 58.6113 15.5V16ZM66.5973 11C66.5973 10.16 66.704 9.42 66.9173 8.78C67.144 8.12667 67.464 7.58 67.8773 7.14C68.2907 6.68667 68.784 6.34667 69.3573 6.12C69.944 5.88 70.5907 5.76 71.2973 5.76C72.124 5.76 72.8373 5.88667 73.4373 6.14C74.0373 6.39333 74.524 6.75333 74.8973 7.22C75.284 7.67333 75.564 8.22 75.7373 8.86C75.924 9.5 76.0173 10.2133 76.0173 11C76.0173 12.68 75.5907 13.9733 74.7373 14.88C73.884 15.7867 72.7373 16.24 71.2973 16.24C70.4973 16.24 69.804 16.12 69.2173 15.88C68.6307 15.6267 68.144 15.2733 67.7573 14.82C67.3707 14.3533 67.0773 13.8 66.8773 13.16C66.6907 12.5067 66.5973 11.7867 66.5973 11ZM68.5173 11C68.5173 11.6 68.5707 12.1667 68.6773 12.7C68.7973 13.2333 68.9773 13.7 69.2173 14.1C69.4707 14.4867 69.7973 14.7933 70.1973 15.02C70.5973 15.2467 71.0773 15.36 71.6373 15.36C72.3573 15.36 72.944 15.0067 73.3973 14.3C73.864 13.5933 74.0973 12.4933 74.0973 11C74.0973 10.3867 74.0373 9.82 73.9173 9.3C73.8107 8.76667 73.6373 8.30667 73.3973 7.92C73.1573 7.52 72.8507 7.20667 72.4773 6.98C72.104 6.75333 71.6573 6.64 71.1373 6.64C70.3507 6.64 69.7173 6.99333 69.2373 7.7C68.7573 8.40667 68.5173 9.50667 68.5173 11ZM91.3153 13.08C91.3153 13.6133 91.1953 14.0733 90.9553 14.46C90.7153 14.8333 90.3886 15.14 89.9753 15.38C89.5753 15.62 89.1086 15.8 88.5753 15.92C88.042 16.0267 87.482 16.08 86.8953 16.08C86.4686 16.08 86.1286 16.0733 85.8753 16.06C85.622 16.06 85.4086 16.0533 85.2353 16.04C85.062 16.0267 84.9153 16.0133 84.7953 16C84.6753 16 84.542 16 84.3953 16H82.4753V15.5C82.8886 15.2867 83.3286 15.1267 83.7953 15.02V7C83.2886 6.90667 82.8486 6.74667 82.4753 6.52V6H84.2753C84.5953 6 84.8686 6 85.0953 6C85.322 5.98667 85.5353 5.97333 85.7353 5.96C85.9353 5.94667 86.1353 5.94 86.3353 5.94C86.5353 5.92667 86.7553 5.92 86.9953 5.92C88.1686 5.92 89.082 6.1 89.7353 6.46C90.3886 6.80667 90.7153 7.42 90.7153 8.3C90.7153 8.62 90.6486 8.90667 90.5153 9.16C90.382 9.41333 90.2086 9.63333 89.9953 9.82C89.782 10.0067 89.542 10.1667 89.2753 10.3C89.0086 10.42 88.7486 10.5067 88.4953 10.56C88.8686 10.5867 89.222 10.66 89.5553 10.78C89.902 10.9 90.202 11.0667 90.4553 11.28C90.722 11.48 90.9286 11.7333 91.0753 12.04C91.2353 12.3333 91.3153 12.68 91.3153 13.08ZM85.5953 15.14C85.782 15.18 86.0153 15.2 86.2953 15.2C86.5886 15.2 86.8286 15.2 87.0153 15.2C87.802 15.2 88.3886 15.0333 88.7753 14.7C89.162 14.3533 89.3553 13.8667 89.3553 13.24C89.3553 12.5867 89.122 12.1 88.6553 11.78C88.1886 11.4467 87.5886 11.28 86.8553 11.28H85.5953V15.14ZM85.5953 10.68L87.8153 10.48C88.0553 10.36 88.2953 10.14 88.5353 9.82C88.7886 9.48667 88.9153 9.05333 88.9153 8.52C88.9153 7.86667 88.7153 7.42 88.3153 7.18C87.9286 6.92667 87.3553 6.8 86.5953 6.8C86.4486 6.8 86.282 6.80667 86.0953 6.82C85.9086 6.82 85.742 6.84 85.5953 6.88V10.68ZM100.125 14.62C100.285 14.78 100.492 14.92 100.745 15.04C100.998 15.1467 101.378 15.2 101.885 15.2C102.312 15.2 102.712 15.1467 103.085 15.04C103.458 14.92 103.778 14.7533 104.045 14.54C104.325 14.3133 104.545 14.0467 104.705 13.74C104.865 13.42 104.945 13.06 104.945 12.66C104.945 12.1267 104.778 11.68 104.445 11.32C104.125 10.96 103.718 10.64 103.225 10.36C102.745 10.08 102.218 9.80667 101.645 9.54C101.072 9.27333 100.538 8.96 100.045 8.6C99.565 8.22667 99.1583 7.78667 98.825 7.28C98.505 6.76 98.345 6.11333 98.345 5.34C98.345 4.78 98.445 4.28 98.645 3.84C98.845 3.4 99.125 3.02667 99.485 2.72C99.8583 2.41333 100.298 2.18 100.805 2.02C101.312 1.84667 101.878 1.76 102.505 1.76C103.318 1.76 104.058 1.82667 104.725 1.96C105.405 2.08 105.938 2.23333 106.325 2.42C106.325 2.64667 106.305 2.91333 106.265 3.22C106.238 3.51333 106.198 3.82 106.145 4.14C106.105 4.46 106.058 4.77333 106.005 5.08C105.952 5.37333 105.898 5.63333 105.845 5.86H105.325L104.525 3.12C104.285 3.01333 103.978 2.93333 103.605 2.88C103.245 2.82667 102.858 2.8 102.445 2.8C101.765 2.8 101.218 2.99333 100.805 3.38C100.392 3.75333 100.185 4.28 100.185 4.96C100.185 5.50667 100.345 5.96667 100.665 6.34C100.998 6.71333 101.412 7.04667 101.905 7.34C102.398 7.63333 102.925 7.92 103.485 8.2C104.058 8.46667 104.592 8.78 105.085 9.14C105.578 9.5 105.985 9.92667 106.305 10.42C106.638 10.9133 106.805 11.5267 106.805 12.26C106.805 12.86 106.692 13.4067 106.465 13.9C106.252 14.3933 105.938 14.8133 105.525 15.16C105.112 15.5067 104.605 15.7733 104.005 15.96C103.405 16.1467 102.725 16.24 101.965 16.24C101.125 16.24 100.372 16.14 99.705 15.94C99.0383 15.74 98.565 15.5267 98.285 15.3C98.2983 15.0733 98.3183 14.8 98.345 14.48C98.385 14.16 98.425 13.8333 98.465 13.5C98.5183 13.1533 98.5717 12.82 98.625 12.5C98.6783 12.18 98.7317 11.9067 98.785 11.68H99.305L100.125 14.62ZM108.668 11C108.668 10.16 108.774 9.42 108.988 8.78C109.214 8.12667 109.534 7.58 109.948 7.14C110.361 6.68667 110.854 6.34667 111.428 6.12C112.014 5.88 112.661 5.76 113.368 5.76C114.194 5.76 114.908 5.88667 115.508 6.14C116.108 6.39333 116.594 6.75333 116.968 7.22C117.354 7.67333 117.634 8.22 117.808 8.86C117.994 9.5 118.088 10.2133 118.088 11C118.088 12.68 117.661 13.9733 116.808 14.88C115.954 15.7867 114.808 16.24 113.368 16.24C112.568 16.24 111.874 16.12 111.288 15.88C110.701 15.6267 110.214 15.2733 109.828 14.82C109.441 14.3533 109.148 13.8 108.948 13.16C108.761 12.5067 108.668 11.7867 108.668 11ZM110.588 11C110.588 11.6 110.641 12.1667 110.748 12.7C110.868 13.2333 111.048 13.7 111.288 14.1C111.541 14.4867 111.868 14.7933 112.268 15.02C112.668 15.2467 113.148 15.36 113.708 15.36C114.428 15.36 115.014 15.0067 115.468 14.3C115.934 13.5933 116.168 12.4933 116.168 11C116.168 10.3867 116.108 9.82 115.988 9.3C115.881 8.76667 115.708 8.30667 115.468 7.92C115.228 7.52 114.921 7.20667 114.548 6.98C114.174 6.75333 113.728 6.64 113.208 6.64C112.421 6.64 111.788 6.99333 111.308 7.7C110.828 8.40667 110.588 9.50667 110.588 11ZM125.022 0.959999C125.142 0.959999 125.282 0.966666 125.442 0.979999C125.602 0.993332 125.769 1.01333 125.942 1.04C126.116 1.05333 126.282 1.08 126.442 1.12C126.602 1.14667 126.742 1.18 126.862 1.22C126.822 1.66 126.762 2.07333 126.682 2.46C126.616 2.83333 126.529 3.17333 126.422 3.48H125.922L125.042 1.76C124.656 1.76 124.322 1.8 124.042 1.88C123.776 1.96 123.549 2.11333 123.362 2.34C123.189 2.56667 123.056 2.89333 122.962 3.32C122.882 3.74667 122.842 4.30667 122.842 5V6H125.142V7H122.842V15.02C123.536 15.1 124.176 15.26 124.762 15.5V16H119.722V15.5C120.136 15.26 120.576 15.1 121.042 15.02V7H119.522V6.48C119.989 6.18667 120.496 5.96667 121.042 5.82V5.12C121.042 4.29333 121.142 3.61333 121.342 3.08C121.542 2.53333 121.822 2.10667 122.182 1.8C122.542 1.48 122.962 1.26 123.442 1.14C123.936 1.02 124.462 0.959999 125.022 0.959999ZM125.823 6.48C126.33 6.16 126.863 5.93333 127.423 5.8V4.1C127.597 3.95333 127.797 3.82667 128.023 3.72C128.263 3.6 128.497 3.48667 128.723 3.38H129.223V6H132.223V7H129.223V12.8C129.223 13.6 129.35 14.1667 129.603 14.5C129.857 14.8333 130.237 15 130.743 15C130.983 15 131.283 14.9867 131.643 14.96C132.003 14.92 132.31 14.8533 132.563 14.76L132.703 15.06C132.597 15.18 132.443 15.3067 132.243 15.44C132.057 15.5733 131.837 15.7 131.583 15.82C131.343 15.94 131.077 16.04 130.783 16.12C130.49 16.2 130.19 16.24 129.883 16.24C129.083 16.24 128.47 16.0133 128.043 15.56C127.63 15.1067 127.423 14.3733 127.423 13.36V7H125.823V6.48ZM138.205 16H133.765V15.5C134.205 15.2867 134.645 15.1267 135.085 15.02V2.36L133.565 2.2V1.68C133.912 1.52 134.345 1.38 134.865 1.26C135.385 1.14 135.892 1.04 136.385 0.959999H136.885V15.02C137.325 15.1267 137.765 15.2867 138.205 15.5V16ZM147.881 14.6C147.774 14.8267 147.608 15.04 147.381 15.24C147.154 15.44 146.894 15.6133 146.601 15.76C146.308 15.9067 145.988 16.02 145.641 16.1C145.294 16.1933 144.941 16.24 144.581 16.24C143.794 16.24 143.101 16.12 142.501 15.88C141.901 15.6267 141.401 15.2733 141.001 14.82C140.601 14.3533 140.294 13.8 140.081 13.16C139.881 12.52 139.781 11.8 139.781 11C139.781 9.29333 140.174 7.99333 140.961 7.1C141.748 6.20667 142.861 5.76 144.301 5.76C144.768 5.76 145.228 5.82667 145.681 5.96C146.134 6.08 146.534 6.28667 146.881 6.58C147.241 6.87333 147.528 7.26667 147.741 7.76C147.968 8.24 148.081 8.84 148.081 9.56C148.081 9.78667 148.068 10.02 148.041 10.26C148.028 10.4867 147.994 10.7333 147.941 11H141.701C141.701 11.56 141.768 12.0867 141.901 12.58C142.048 13.06 142.261 13.48 142.541 13.84C142.821 14.2 143.174 14.4867 143.601 14.7C144.028 14.9 144.528 15 145.101 15C145.568 15 146.041 14.9333 146.521 14.8C147.001 14.6667 147.361 14.4933 147.601 14.28L147.881 14.6ZM144.221 6.64C143.461 6.64 142.881 6.9 142.481 7.42C142.081 7.92667 141.841 8.82667 141.761 10.12H146.161C146.174 10 146.181 9.88667 146.181 9.78C146.194 9.66 146.201 9.54667 146.201 9.44C146.201 8.58667 146.041 7.90667 145.721 7.4C145.401 6.89333 144.901 6.64 144.221 6.64ZM154.628 10.64L157.788 15.02C157.975 15.0867 158.155 15.16 158.328 15.24C158.515 15.3067 158.688 15.3933 158.848 15.5V16H154.748V15.52C154.935 15.4133 155.108 15.32 155.268 15.24C155.428 15.1467 155.588 15.0733 155.748 15.02L153.528 11.74L151.288 15.02C151.475 15.0867 151.648 15.16 151.808 15.24C151.968 15.32 152.128 15.4067 152.288 15.5V16H148.868V15.5C149.241 15.2733 149.615 15.1133 149.988 15.02L152.968 11.04L149.968 7C149.781 6.93333 149.608 6.86667 149.448 6.8C149.301 6.72 149.148 6.62667 148.988 6.52V6H153.008V6.5C152.848 6.60667 152.688 6.70667 152.528 6.8C152.381 6.88 152.215 6.94667 152.028 7L154.108 10L156.148 7C155.695 6.85333 155.361 6.69333 155.148 6.52V6H158.488V6.52C158.235 6.69333 157.861 6.85333 157.368 7L154.628 10.64Z" fill="#22223B"/>
</svg>
